<svg width="250" height="68" viewBox="0 0 250 68" fill="none" xmlns="http://www.w3.org/2000/svg">
<rect x="1" y="1" width="248" height="66" rx="24" stroke="#396857" stroke-width="2"/>
<path d="M74.6797 42H79.2305C79.8359 41.9935 80.4219 41.8991 80.9883 41.7168C81.5612 41.5345 82.0658 41.2708 82.502 40.9258C82.9382 40.5872 83.2865 40.1641 83.5469 39.6562C83.8073 39.1484 83.9342 38.5625 83.9277 37.8984C83.9277 37.4753 83.8626 37.0814 83.7324 36.7168C83.6087 36.3522 83.4329 36.0234 83.2051 35.7305C82.9902 35.4635 82.7168 35.2194 82.3848 34.998C82.0527 34.7767 81.7077 34.6237 81.3496 34.5391V34.5098C81.6947 34.36 81.9876 34.2005 82.2285 34.0312C82.4759 33.862 82.7005 33.6536 82.9023 33.4062C83.0977 33.1654 83.2507 32.8919 83.3613 32.5859C83.4785 32.2799 83.5404 31.9414 83.5469 31.5703C83.5534 30.9062 83.4264 30.3366 83.166 29.8613C82.9056 29.3861 82.5573 28.9954 82.1211 28.6895C81.6849 28.3835 81.1868 28.1589 80.627 28.0156C80.0671 27.8659 79.4941 27.7878 78.9082 27.7812H74.6797V42ZM76.4961 35.3496H79.377C79.7611 35.3626 80.1191 35.4277 80.4512 35.5449C80.7832 35.6621 81.0729 35.8281 81.3203 36.043C81.5677 36.2643 81.7598 36.5312 81.8965 36.8438C82.0397 37.1562 82.1081 37.5143 82.1016 37.918C82.1016 38.3151 82.0234 38.6699 81.8672 38.9824C81.7174 39.2949 81.5124 39.5586 81.252 39.7734C80.9915 39.9883 80.6921 40.1576 80.3535 40.2812C80.015 40.3984 79.6569 40.4603 79.2793 40.4668H76.4961V35.3496ZM76.4961 33.8457V29.3242H78.9668C79.3184 29.3307 79.6602 29.3763 79.9922 29.4609C80.3307 29.5456 80.6302 29.6758 80.8906 29.8516C81.1445 30.0339 81.3464 30.265 81.4961 30.5449C81.6523 30.8249 81.7305 31.1634 81.7305 31.5605C81.7305 31.9316 81.6523 32.2572 81.4961 32.5371C81.3398 32.8171 81.1348 33.0514 80.8809 33.2402C80.627 33.4355 80.3372 33.5853 80.0117 33.6895C79.6862 33.7871 79.3542 33.8392 79.0156 33.8457H76.4961ZM91.2129 40.7305C90.6465 40.7305 90.1712 40.6198 89.7871 40.3984C89.4095 40.1706 89.1068 39.8743 88.8789 39.5098C88.6445 39.1517 88.4753 38.748 88.3711 38.2988C88.2734 37.8431 88.2246 37.3841 88.2246 36.9219V36.5117C88.2246 36.056 88.2734 35.6035 88.3711 35.1543C88.4753 34.7051 88.6445 34.2982 88.8789 33.9336C89.1133 33.5755 89.4193 33.2858 89.7969 33.0645C90.181 32.8366 90.653 32.7227 91.2129 32.7227C91.5775 32.7227 91.916 32.7845 92.2285 32.9082C92.5475 33.0319 92.821 33.2012 93.0488 33.416C93.2767 33.6309 93.4557 33.8815 93.5859 34.168C93.7227 34.4479 93.7943 34.7474 93.8008 35.0664H95.5098C95.5098 34.5326 95.4023 34.0312 95.1875 33.5625C94.9727 33.0938 94.6764 32.6868 94.2988 32.3418C93.9147 32.0033 93.459 31.7363 92.9316 31.541C92.4108 31.3392 91.8379 31.2383 91.2129 31.2383C90.4121 31.2383 89.7122 31.3815 89.1133 31.668C88.5143 31.9544 88.0163 32.3385 87.6191 32.8203C87.2155 33.3086 86.9128 33.8717 86.7109 34.5098C86.5091 35.1478 86.4082 35.8151 86.4082 36.5117V36.9219C86.4082 37.625 86.5091 38.2956 86.7109 38.9336C86.9128 39.5651 87.2155 40.1217 87.6191 40.6035C88.0163 41.0918 88.5143 41.4792 89.1133 41.7656C89.7122 42.0521 90.4121 42.1953 91.2129 42.1953C91.7728 42.1953 92.3099 42.1009 92.8242 41.9121C93.3385 41.7168 93.7943 41.4564 94.1914 41.1309C94.5885 40.8118 94.9043 40.4408 95.1387 40.0176C95.3796 39.5879 95.5033 39.1387 95.5098 38.6699H93.8008C93.7943 38.9629 93.7161 39.2363 93.5664 39.4902C93.4232 39.7376 93.2311 39.9525 92.9902 40.1348C92.7493 40.3236 92.4727 40.4701 92.1602 40.5742C91.8542 40.6784 91.5384 40.7305 91.2129 40.7305ZM103.391 42.1953C104.419 42.1953 105.282 41.9902 105.979 41.5801C106.682 41.1634 107.209 40.6882 107.561 40.1543L106.457 39.2949C106.125 39.7246 105.708 40.0697 105.207 40.3301C104.706 40.5905 104.133 40.7207 103.488 40.7207C103 40.7207 102.554 40.6296 102.15 40.4473C101.747 40.265 101.402 40.0143 101.115 39.6953C100.835 39.3958 100.614 39.0508 100.451 38.6602C100.295 38.2695 100.194 37.8171 100.148 37.3027V37.2344H107.697V36.4238C107.697 35.6882 107.603 35.0046 107.414 34.373C107.232 33.7415 106.952 33.1914 106.574 32.7227C106.197 32.2604 105.721 31.8991 105.148 31.6387C104.582 31.3717 103.918 31.2383 103.156 31.2383C102.551 31.2383 101.958 31.362 101.379 31.6094C100.806 31.8568 100.295 32.2116 99.8457 32.6738C99.39 33.1426 99.0254 33.7155 98.752 34.3926C98.4785 35.0632 98.3418 35.8249 98.3418 36.6777V37.0879C98.3418 37.8236 98.4655 38.5039 98.7129 39.1289C98.9603 39.7539 99.3053 40.2943 99.748 40.75C100.191 41.2057 100.721 41.5605 101.34 41.8145C101.965 42.0684 102.648 42.1953 103.391 42.1953ZM103.156 32.7227C103.618 32.7227 104.016 32.8073 104.348 32.9766C104.686 33.1458 104.966 33.3672 105.188 33.6406C105.409 33.9141 105.581 34.2396 105.705 34.6172C105.829 34.9883 105.891 35.3366 105.891 35.6621V35.75H100.207C100.279 35.2617 100.402 34.832 100.578 34.4609C100.76 34.0833 100.982 33.7643 101.242 33.5039C101.503 33.25 101.796 33.0579 102.121 32.9277C102.447 32.791 102.792 32.7227 103.156 32.7227ZM131.428 42V31.4336H122.658V42H124.465V32.9277H129.621V42H131.428ZM134.25 36.6191V36.834C134.25 37.5957 134.361 38.3021 134.582 38.9531C134.803 39.6042 135.122 40.1706 135.539 40.6523C135.949 41.1341 136.451 41.5117 137.043 41.7852C137.642 42.0586 138.316 42.1953 139.064 42.1953C139.807 42.1953 140.474 42.0586 141.066 41.7852C141.659 41.5117 142.163 41.1341 142.58 40.6523C142.99 40.1706 143.306 39.6042 143.527 38.9531C143.749 38.3021 143.859 37.5957 143.859 36.834V36.6191C143.859 35.8574 143.749 35.151 143.527 34.5C143.306 33.8424 142.99 33.2728 142.58 32.791C142.163 32.3092 141.656 31.9316 141.057 31.6582C140.464 31.3783 139.794 31.2383 139.045 31.2383C138.303 31.2383 137.635 31.3783 137.043 31.6582C136.451 31.9316 135.949 32.3092 135.539 32.791C135.122 33.2728 134.803 33.8424 134.582 34.5C134.361 35.151 134.25 35.8574 134.25 36.6191ZM136.057 36.834V36.6191C136.057 36.1048 136.118 35.6133 136.242 35.1445C136.366 34.6693 136.555 34.2526 136.809 33.8945C137.056 33.5365 137.365 33.2533 137.736 33.0449C138.107 32.8301 138.544 32.7227 139.045 32.7227C139.546 32.7227 139.982 32.8301 140.354 33.0449C140.731 33.2533 141.047 33.5365 141.301 33.8945C141.548 34.2526 141.734 34.6693 141.857 35.1445C141.988 35.6133 142.053 36.1048 142.053 36.6191V36.834C142.053 37.3548 141.991 37.8529 141.867 38.3281C141.743 38.7969 141.558 39.2103 141.311 39.5684C141.057 39.9264 140.741 40.2096 140.363 40.418C139.992 40.6263 139.559 40.7305 139.064 40.7305C138.563 40.7305 138.124 40.6263 137.746 40.418C137.368 40.2096 137.056 39.9264 136.809 39.5684C136.555 39.2103 136.366 38.7969 136.242 38.3281C136.118 37.8529 136.057 37.3548 136.057 36.834ZM146.594 40.5254H145.598L145.773 45.1055H147.395V42H154.768V45.1055H156.398L156.574 40.5254H155.217V31.4336H148.41L148.254 35.3984C148.208 36.1536 148.146 36.8372 148.068 37.4492C147.997 38.0612 147.899 38.5885 147.775 39.0312C147.652 39.474 147.492 39.8255 147.297 40.0859C147.108 40.3398 146.874 40.4863 146.594 40.5254ZM150.061 35.3984L150.148 33.1035H153.41V40.5254H149.094C149.25 40.2389 149.38 39.9134 149.484 39.5488C149.595 39.1842 149.686 38.7839 149.758 38.3477C149.829 37.918 149.888 37.4557 149.934 36.9609C149.986 36.4661 150.028 35.9453 150.061 35.3984ZM167.463 42V31.4336H158.693V42H160.5V32.9277H165.656V42H167.463ZM177.668 31.4336L172.502 39.2363V31.4336H170.705V42H172.502L177.668 34.207V42H179.475V31.4336H177.668ZM187.307 40.7305C186.74 40.7305 186.265 40.6198 185.881 40.3984C185.503 40.1706 185.201 39.8743 184.973 39.5098C184.738 39.1517 184.569 38.748 184.465 38.2988C184.367 37.8431 184.318 37.3841 184.318 36.9219V36.5117C184.318 36.056 184.367 35.6035 184.465 35.1543C184.569 34.7051 184.738 34.2982 184.973 33.9336C185.207 33.5755 185.513 33.2858 185.891 33.0645C186.275 32.8366 186.747 32.7227 187.307 32.7227C187.671 32.7227 188.01 32.7845 188.322 32.9082C188.641 33.0319 188.915 33.2012 189.143 33.416C189.37 33.6309 189.549 33.8815 189.68 34.168C189.816 34.4479 189.888 34.7474 189.895 35.0664H191.604C191.604 34.5326 191.496 34.0312 191.281 33.5625C191.066 33.0938 190.77 32.6868 190.393 32.3418C190.008 32.0033 189.553 31.7363 189.025 31.541C188.505 31.3392 187.932 31.2383 187.307 31.2383C186.506 31.2383 185.806 31.3815 185.207 31.668C184.608 31.9544 184.11 32.3385 183.713 32.8203C183.309 33.3086 183.007 33.8717 182.805 34.5098C182.603 35.1478 182.502 35.8151 182.502 36.5117V36.9219C182.502 37.625 182.603 38.2956 182.805 38.9336C183.007 39.5651 183.309 40.1217 183.713 40.6035C184.11 41.0918 184.608 41.4792 185.207 41.7656C185.806 42.0521 186.506 42.1953 187.307 42.1953C187.867 42.1953 188.404 42.1009 188.918 41.9121C189.432 41.7168 189.888 41.4564 190.285 41.1309C190.682 40.8118 190.998 40.4408 191.232 40.0176C191.473 39.5879 191.597 39.1387 191.604 38.6699H189.895C189.888 38.9629 189.81 39.2363 189.66 39.4902C189.517 39.7376 189.325 39.9525 189.084 40.1348C188.843 40.3236 188.566 40.4701 188.254 40.5742C187.948 40.6784 187.632 40.7305 187.307 40.7305ZM198.244 37.498L202.277 42H204.572L199.689 36.5215L204.221 31.4336H202.023L198.088 35.9062H196.525V31.4336H194.719V42H196.525V37.498H198.244ZM213.703 31.4336L208.537 39.2363V31.4336H206.74V42H208.537L213.703 34.207V42H215.51V31.4336H213.703Z" fill="#396857"/>
<path d="M46.3333 34C44.5083 34 43 32.4917 43 30.6667C43 30.0767 43.1717 29.5283 43.4467 29.045C43.2967 29.0333 43.1533 29 43 29C41.6766 29.0087 40.4099 29.5383 39.4741 30.4741C38.5383 31.4099 38.0087 32.6766 38 34C38 36.7367 40.2633 39 43 39C45.735 39 48 36.7367 48 34C48 33.8467 47.9667 33.7033 47.955 33.5533C47.4717 33.8283 46.9233 34 46.3333 34Z" fill="#396857"/>
<path d="M43 22.3334C30.2783 22.3334 26.455 33.3617 26.42 33.4734L26.2433 34L26.4183 34.5267C26.455 34.6384 30.2783 45.6667 43 45.6667C55.7217 45.6667 59.545 34.6384 59.58 34.5267L59.7567 34L59.5817 33.4734C59.545 33.3617 55.7217 22.3334 43 22.3334ZM43 42.3334C34.0817 42.3334 30.6267 35.9234 29.79 34C30.63 32.07 34.0867 25.6667 43 25.6667C51.9183 25.6667 55.3733 32.0767 56.21 34C55.37 35.93 51.9133 42.3334 43 42.3334Z" fill="#396857"/>
</svg>
