<svg width="200" height="200" viewBox="0 0 200 200" fill="none" xmlns="http://www.w3.org/2000/svg">
<ellipse cx="99.526" cy="99.66" rx="99.526" ry="99.66" fill="white"/>
<mask id="mask0_409_3264" style="mask-type:alpha" maskUnits="userSpaceOnUse" x="0" y="0" width="201" height="200">
<ellipse cx="100.474" cy="100.34" rx="99.526" ry="99.66" fill="#D9D9D9"/>
</mask>
<g mask="url(#mask0_409_3264)">
<path d="M188.272 115.195C186.292 109.698 181.622 105.904 176.628 104.495C180.88 98.7817 179.69 89.259 174.942 84.1028C170.195 78.9311 162.881 77.8162 156.603 79.8911C159.665 73.6974 160.84 65.8469 158.196 59.4055C156.417 55.0545 149.211 53.0105 143.026 53.1034C142.918 53.2738 142.81 53.4441 142.686 53.6299C142.578 53.4596 142.454 53.3048 142.346 53.1344C139.64 53.2428 137.181 53.7693 135.526 54.6983C135.403 51.555 135.465 48.3498 135.635 45.0982C128.893 38.5793 120.372 34.0579 111.342 32.4166C98.7545 30.125 85.3478 33.3921 75.0183 41.289L70.8433 40.0039C68.3073 45.4543 66.4516 51.2299 67.0701 53.2118C62.9259 51.4776 52.2254 51.2608 49.6276 55.3796C47.0298 59.4984 47.0916 65.6147 49.7822 69.656C43.4113 70.3838 37.4887 75.0755 34.5816 81.6872C31.69 88.299 31.9064 96.5985 35.1383 102.978C27.3911 100.299 18.6545 105.455 14.6186 113.554C10.5826 121.652 10.7063 131.887 13.4124 140.713C13.4279 140.713 22.0254 140.868 35.3703 141.054C35.8032 137.229 36.6227 133.451 37.8444 129.797C39.066 133.575 40.2877 137.353 41.5093 141.146C72.0958 141.58 120.898 142.153 152.907 141.967C153.479 137.337 154.624 132.769 156.325 128.418C157.577 132.862 158.613 137.368 159.479 141.921C162.17 141.89 164.69 141.859 167.025 141.812C167.721 137.647 168.881 133.544 170.458 129.626C172.731 133.219 174.03 137.399 174.231 141.642C180.401 141.441 184.221 141.146 184.731 140.728C188.983 137.353 190.267 120.692 188.272 115.195Z" fill="#EF6A55"/>
<path d="M67.5809 88.965C66.5603 82.1364 65.5395 75.3079 64.519 68.4949C63.6839 62.8741 62.8335 57.114 64.0087 51.5552C66.2355 40.9795 75.5908 32.9587 85.9049 29.738C96.2189 26.5173 107.337 27.3535 117.991 29.1806C122.476 29.9548 127.115 30.9768 130.656 33.8259C134.661 37.0621 136.671 42.2183 137.614 47.2816C140.753 63.958 134.382 80.8512 127.377 96.3044C110.383 98.2554 93.2189 98.7664 76.1319 97.8528L67.5809 88.965Z" fill="#EF6A55"/>
<mask id="mask1_409_3264" style="mask-type:luminance" maskUnits="userSpaceOnUse" x="11" y="31" width="178" height="112">
<path d="M188.025 115.35C186.045 109.853 181.375 106.059 176.381 104.65C180.633 98.9365 179.442 89.4137 174.695 84.2575C169.948 79.0858 162.634 77.9709 156.356 80.0458C159.417 73.8521 160.593 66.0017 157.948 59.5603C156.155 55.2092 148.964 53.1653 142.779 53.2582C142.671 53.4286 142.562 53.5989 142.439 53.7847C142.33 53.6144 142.207 53.4595 142.098 53.2892C139.392 53.3976 136.934 53.924 135.279 54.8531C135.155 51.7098 135.217 48.5046 135.387 45.2529C128.645 38.7341 120.125 34.2127 111.095 32.5714C98.5074 30.2798 85.1005 33.5469 74.771 41.4438L70.5959 40.1586C68.06 45.6091 66.2044 51.3847 66.823 53.3666C62.6788 51.6324 51.9781 51.4156 49.3803 55.5344C46.7824 59.6532 46.8443 65.7694 49.5349 69.8108C43.164 70.5386 37.2416 75.2302 34.3345 81.842C31.4428 88.4537 31.6593 96.7532 34.8911 103.133C27.144 100.454 18.4072 105.61 14.3713 113.708C10.3353 121.807 10.459 132.042 13.1651 140.868C13.1805 140.868 21.7783 141.022 35.1231 141.208C35.5561 137.384 36.3756 133.606 37.5972 129.951C38.8188 133.729 40.0404 137.508 41.262 141.301C71.8485 141.735 120.651 142.308 152.66 142.122C153.232 137.492 154.376 132.924 156.077 128.573C157.33 133.017 158.366 137.523 159.232 142.075C161.922 142.044 164.443 142.013 166.778 141.967C167.474 137.802 168.634 133.698 170.211 129.781C172.484 133.373 173.783 137.554 173.984 141.797C180.154 141.595 183.973 141.301 184.499 140.883C188.736 137.492 190.004 120.847 188.025 115.35Z" fill="white"/>
</mask>
<g mask="url(#mask1_409_3264)">
<path d="M52.3798 143.236C62.1217 140.279 68.1525 128.495 64.8433 118.849C64.5186 117.889 64.1166 116.758 64.6887 115.922C65.0908 115.303 65.8639 115.071 66.5597 114.838C75.9614 111.556 79.982 98.2084 73.9667 90.2805C91.8269 85.7126 110.862 85.852 128.661 90.6521C124.284 93.1605 121.547 98.3012 121.919 103.334C122.274 108.366 125.707 113.058 130.392 114.931C125.336 118.477 124.81 126.173 127.532 131.716C130.269 137.259 135.387 141.161 140.351 144.847C114.372 148.733 78.2346 147.51 52.2716 143.53L52.3798 143.236Z" fill="#933B32"/>
</g>
<path d="M154.129 155.066C143.799 148.145 131.32 145.373 119.135 142.911C118.393 142.756 117.62 142.602 117.017 142.137C115.996 141.332 118.315 121.264 117.017 109.481L99.6203 111.107L82.224 109.481C80.9251 121.264 83.2446 141.347 82.224 142.137C81.6209 142.602 80.8478 142.772 80.1055 142.911C67.9204 145.358 55.4415 148.129 45.112 155.066C34.7825 161.988 26.958 200.915 28.628 213.256C38.9885 213.209 67.9358 186.546 97.2543 186.933V186.995C98.043 186.979 98.8316 186.979 99.6048 186.964C100.393 186.979 101.182 186.979 101.955 186.995V186.933C131.274 186.546 160.221 213.209 170.582 213.256C172.283 200.915 164.458 161.988 154.129 155.066Z" fill="#FBD1B9"/>
<mask id="mask2_409_3264" style="mask-type:luminance" maskUnits="userSpaceOnUse" x="28" y="109" width="143" height="105">
<path d="M154.129 155.066C143.799 148.145 131.32 145.373 119.135 142.911C118.393 142.756 117.62 142.602 117.017 142.137C115.996 141.332 118.315 121.264 117.017 109.481L99.6203 111.107L82.224 109.481C80.9251 121.264 83.2446 141.347 82.224 142.137C81.6209 142.602 80.8478 142.772 80.1055 142.911C67.9204 145.358 55.4415 148.129 45.112 155.066C34.7825 161.988 26.958 200.915 28.628 213.256C38.9885 213.209 67.9358 186.546 97.2543 186.933V186.995C98.043 186.979 98.8316 186.979 99.6048 186.964C100.393 186.979 101.182 186.979 101.955 186.995V186.933C131.274 186.546 160.221 213.209 170.582 213.256C172.283 200.915 164.458 161.988 154.129 155.066Z" fill="white"/>
</mask>
<g mask="url(#mask2_409_3264)">
<path d="M59.0902 109.093C65.9559 104.665 66.2497 102.544 66.5744 104.665C68.1981 115.101 84.6511 140.217 99.6196 140.217C118.995 140.217 130.237 107.483 132.046 99.23C109.655 102.435 86.9859 105.64 64.5331 102.946C65.1517 103.535 65.7703 104.107 66.3734 104.696L59.0902 109.093Z" fill="#DBA78A"/>
</g>
<path d="M73.828 51.9422C69.823 65.4598 70.8126 89.1506 73.828 102.932C73.8434 103.009 73.8589 103.086 73.8744 103.148C75.5135 110.534 78.1114 117.92 83.0288 123.68C87.9461 129.44 95.5076 133.327 103.007 132.305C110.26 131.314 116.337 125.926 119.878 119.515C123.419 113.105 124.78 105.734 125.754 98.4876C127.47 85.8525 127.022 52.2983 125.816 52.1899C110.213 50.8738 89.0284 47.6685 73.828 51.5086V51.9422Z" fill="#FBD1B9"/>
<path d="M125.135 93.2542C125.521 90.4671 128.862 88.7329 131.552 89.5535C134.243 90.3742 136.006 93.1613 136.207 95.964C136.408 98.7666 135.279 101.523 133.671 103.83C130.996 107.67 126.279 110.658 121.764 109.466C122.475 103.706 123.511 97.9769 124.856 92.3252L125.135 93.2542Z" fill="#FBD1B9"/>
<path d="M74.2446 93.2542C73.8581 90.4671 70.5179 88.7329 67.8273 89.5535C65.1367 90.3742 63.3739 93.1613 63.1728 95.964C62.9718 98.7666 64.1007 101.523 65.7088 103.83C68.384 107.67 73.1004 110.658 77.6157 109.466C76.9044 103.706 75.8684 97.9769 74.5231 92.3252L74.2446 93.2542Z" fill="#FBD1B9"/>
<path d="M127.084 102.002C127.223 101.724 127.378 101.46 127.548 101.197C127.625 101.073 127.702 100.965 127.78 100.841C127.826 100.779 127.872 100.702 127.919 100.64C127.934 100.624 128.073 100.439 127.996 100.531C127.919 100.624 128.074 100.438 128.074 100.423C128.12 100.361 128.182 100.299 128.228 100.237C128.321 100.129 128.414 100.02 128.506 99.9275C128.723 99.7108 128.939 99.494 129.171 99.2772C129.28 99.1843 129.388 99.0914 129.496 98.9985C129.512 98.983 129.728 98.8127 129.573 98.9365C129.635 98.8901 129.682 98.8591 129.744 98.8127C129.975 98.6424 130.223 98.472 130.47 98.3172C130.733 98.1623 130.996 98.0075 131.274 97.8836C131.398 97.8217 131.522 97.7597 131.661 97.7133C131.475 97.7907 131.738 97.6823 131.754 97.6823C131.831 97.6514 131.908 97.6204 131.986 97.5894C132.45 97.4191 132.805 96.9391 132.635 96.4436C132.496 95.9946 131.97 95.6074 131.491 95.7933C128.924 96.7378 126.728 98.5959 125.476 101.042C125.259 101.476 125.352 102.08 125.816 102.328C126.233 102.56 126.852 102.467 127.084 102.002Z" fill="#A46E4A"/>
<path d="M128.584 99.6487C128.723 99.7726 128.847 99.8965 128.955 100.051C128.909 99.9894 128.862 99.9274 128.816 99.8655C128.955 100.051 129.079 100.253 129.171 100.469C129.141 100.392 129.11 100.315 129.079 100.253C129.187 100.5 129.249 100.748 129.28 101.011C129.264 100.934 129.264 100.841 129.249 100.764C129.28 100.996 129.28 101.228 129.249 101.46C129.264 101.383 129.264 101.29 129.28 101.213C129.28 101.259 129.264 101.29 129.264 101.321C129.218 101.569 129.218 101.817 129.357 102.049C129.465 102.25 129.697 102.436 129.914 102.482C130.146 102.544 130.424 102.529 130.64 102.389C130.841 102.266 131.027 102.064 131.073 101.832C131.182 101.197 131.166 100.547 130.95 99.9275C130.733 99.3236 130.393 98.7661 129.914 98.348C129.728 98.1777 129.512 98.0693 129.249 98.0693C129.017 98.0693 128.738 98.1777 128.584 98.348C128.414 98.5338 128.305 98.7661 128.305 99.0138C128.321 99.2306 128.398 99.4939 128.584 99.6487Z" fill="#A46E4A"/>
<path d="M84.4661 92.8205C86.2424 92.8205 87.6826 91.2399 87.6826 89.2902C87.6826 87.3404 86.2424 85.7598 84.4661 85.7598C82.6897 85.7598 81.2498 87.3404 81.2498 89.2902C81.2498 91.2399 82.6897 92.8205 84.4661 92.8205Z" fill="#1A1A1A"/>
<path d="M119.6 89.2902C119.6 91.2412 118.161 92.8205 116.383 92.8205C114.605 92.8205 113.167 91.2412 113.167 89.2902C113.167 87.3391 114.605 85.7598 116.383 85.7598C118.161 85.7598 119.6 87.3391 119.6 89.2902Z" fill="#1A1A1A"/>
<path d="M66.7925 96.5213C68.5708 98.1626 69.9314 100.222 70.7201 102.452C70.8902 102.932 71.3541 103.241 71.8644 103.102C72.3283 102.978 72.684 102.436 72.5139 101.956C71.617 99.3858 70.1171 97.0477 68.1069 95.1896C67.7357 94.8489 67.1482 94.818 66.777 95.1896C66.4523 95.5457 66.4214 96.1651 66.7925 96.5213Z" fill="#A46E4A"/>
<path d="M67.7968 100.655C67.8586 100.655 67.9357 100.671 67.9976 100.671C67.9203 100.655 67.8276 100.655 67.7503 100.64C68.106 100.686 68.446 100.779 68.7862 100.918C68.7089 100.887 68.6318 100.856 68.5699 100.825C68.8946 100.965 69.2039 101.151 69.4977 101.367C69.4358 101.321 69.374 101.274 69.3121 101.228C69.4513 101.336 69.5905 101.46 69.7142 101.584C70.0544 101.94 70.7038 101.956 71.044 101.584C71.3842 101.212 71.4151 100.64 71.044 100.252C70.1781 99.3854 69.0337 98.8744 67.8275 98.7815C67.5956 98.766 67.3173 98.9053 67.1627 99.0602C67.0081 99.215 66.8843 99.4937 66.8843 99.726C66.8997 99.9738 66.9771 100.221 67.1627 100.392C67.3173 100.562 67.5339 100.64 67.7968 100.655Z" fill="#A46E4A"/>
<path d="M90.6061 71.5294C91.0236 71.7926 90.8071 72.5204 90.3432 72.7217C89.8948 72.923 89.3689 72.7836 88.8741 72.6752C85.0855 71.7772 80.9259 72.5359 77.6941 74.7192C79.1013 72.2262 81.529 70.3371 84.2815 69.6094C86.5701 69.0055 89.4309 69.4081 90.5907 71.4675L90.6061 71.5294Z" fill="#241E21"/>
<path d="M110.336 79.0236C109.919 79.2868 110.135 80.0145 110.599 80.2158C111.048 80.4171 111.573 80.2778 112.068 80.1694C115.857 79.2713 120.016 80.03 123.248 82.2133C121.841 79.7204 119.413 77.8313 116.661 77.1035C114.372 76.4996 111.511 76.9022 110.352 78.9616L110.336 79.0236Z" fill="#241E21"/>
<path d="M71.6774 86.983C76.3474 76.1441 78.8989 64.4071 79.1464 52.6081C81.7442 55.163 84.4348 57.7953 87.8367 59.096C91.2387 60.3967 95.5684 59.9941 97.8879 57.176C101.723 63.1064 111.326 64.051 116.243 58.9876C117.526 63.7258 122.583 67.1323 127.454 66.5284C128.057 66.451 128.722 66.2962 129.077 65.8007C129.371 65.3981 129.402 64.8716 129.433 64.3606C129.665 58.8947 129.541 53.4133 129.093 47.9629C129.031 47.2351 128.938 46.4454 128.459 45.9035C127.949 45.3306 127.114 45.1758 126.356 45.0519C108.372 42.3267 90.0479 43.3176 71.8939 44.3086C71.2599 44.3396 70.5488 44.4015 70.1003 44.866C69.7138 45.2686 69.6208 45.857 69.5435 46.4145C68.0899 57.2843 67.8736 68.3246 68.9096 79.2564L71.6774 86.983Z" fill="#EF6A55"/>
<path d="M98.3834 97.2336C99.2958 96.1806 100.301 95.2206 101.445 94.4154C102.388 93.7496 103.749 92.7122 104.909 93.1303C105.667 93.3935 106.162 94.2451 106.363 95.0658C106.61 96.1032 106.301 97.0942 105.744 97.9923C104.971 99.262 103.78 100.222 102.651 101.167C102.265 101.492 102.311 102.158 102.651 102.498C103.038 102.885 103.579 102.823 103.981 102.498C106.285 100.563 108.821 98.1162 108.218 94.8025C107.986 93.5328 107.228 92.2631 106.1 91.6128C104.569 90.7302 102.883 91.2877 101.476 92.1393C99.8215 93.1458 98.3371 94.4155 97.0691 95.8865C96.7444 96.2736 96.698 96.831 97.0691 97.2181C97.4093 97.5743 98.0587 97.6207 98.3834 97.2336Z" fill="#A46E4A"/>
<path d="M93.2494 105.981C95.8318 108.536 100.223 108.954 103.177 106.802C103.579 106.508 103.78 105.981 103.517 105.517C103.285 105.114 102.651 104.882 102.234 105.176C99.9449 106.833 96.6049 106.663 94.5637 104.65C93.7133 103.814 92.3989 105.145 93.2494 105.981Z" fill="#A46E4A"/>
<path d="M155.35 154.865C149.041 150.638 141.944 147.928 134.599 145.916C132.96 148.873 130.826 151.567 128.166 153.812C122.182 158.891 114.311 161.198 106.548 162.282C89.6312 164.62 70.5494 160.626 59.7715 147.588C54.3748 149.399 49.21 151.707 44.4782 154.881C33.9786 161.926 26.015 201.055 27.7005 213.597C38.2465 213.535 67.6888 186.887 97.5021 187.274V187.336C98.3062 187.32 99.0947 187.32 99.8988 187.305C100.703 187.32 101.492 187.32 102.296 187.336V187.274C132.124 186.887 161.551 213.535 172.097 213.597C173.814 201.039 165.866 161.911 155.35 154.865Z" fill="#EF6A55"/>
<mask id="mask3_409_3264" style="mask-type:luminance" maskUnits="userSpaceOnUse" x="27" y="145" width="146" height="69">
<path d="M155.35 154.865C149.041 150.638 141.944 147.928 134.599 145.916C132.96 148.873 130.826 151.567 128.166 153.812C122.182 158.891 114.311 161.198 106.548 162.282C89.6312 164.62 70.5494 160.626 59.7715 147.588C54.3748 149.399 49.21 151.707 44.4782 154.881C33.9786 161.926 26.015 201.055 27.7005 213.597C38.2465 213.535 67.6888 186.887 97.5021 187.274V187.336C98.3062 187.32 99.0947 187.32 99.8988 187.305C100.703 187.32 101.492 187.32 102.296 187.336V187.274C132.124 186.887 161.551 213.535 172.097 213.597C173.814 201.039 165.866 161.911 155.35 154.865Z" fill="white"/>
</mask>
<g mask="url(#mask3_409_3264)">
<path d="M39.9014 160.671L45.3135 161.089L48.7154 156.877L49.9835 162.157L55.0553 164.093L50.4318 166.942L50.1536 172.362L46.0248 168.847L40.7982 170.256L42.8549 165.223L39.9014 160.671Z" fill="white"/>
</g>
<mask id="mask4_409_3264" style="mask-type:luminance" maskUnits="userSpaceOnUse" x="27" y="145" width="146" height="69">
<path d="M155.35 154.865C149.041 150.638 141.944 147.928 134.599 145.916C132.96 148.873 130.826 151.567 128.166 153.812C122.182 158.891 114.311 161.198 106.548 162.282C89.6312 164.62 70.5494 160.626 59.7715 147.588C54.3748 149.399 49.21 151.707 44.4782 154.881C33.9786 161.926 26.015 201.055 27.7005 213.597C38.2465 213.535 67.6888 186.887 97.5021 187.274V187.336C98.3062 187.32 99.0947 187.32 99.8988 187.305C100.703 187.32 101.492 187.32 102.296 187.336V187.274C132.124 186.887 161.551 213.535 172.097 213.597C173.814 201.039 165.866 161.911 155.35 154.865Z" fill="white"/>
</mask>
<g mask="url(#mask4_409_3264)">
<path d="M81.6981 174.684L76.3014 175.21L73.6726 179.964L71.5077 174.994L66.1884 173.956L70.2397 170.348L69.5902 164.96L74.2602 167.716L79.1776 165.424L78.0024 170.72L81.6981 174.684Z" fill="white"/>
</g>
<mask id="mask5_409_3264" style="mask-type:luminance" maskUnits="userSpaceOnUse" x="27" y="145" width="146" height="69">
<path d="M155.35 154.865C149.041 150.638 141.944 147.928 134.599 145.916C132.96 148.873 130.826 151.567 128.166 153.812C122.182 158.891 114.311 161.198 106.548 162.282C89.6312 164.62 70.5494 160.626 59.7715 147.588C54.3748 149.399 49.21 151.707 44.4782 154.881C33.9786 161.926 26.015 201.055 27.7005 213.597C38.2465 213.535 67.6888 186.887 97.5021 187.274V187.336C98.3062 187.32 99.0947 187.32 99.8988 187.305C100.703 187.32 101.492 187.32 102.296 187.336V187.274C132.124 186.887 161.551 213.535 172.097 213.597C173.814 201.039 165.866 161.911 155.35 154.865Z" fill="white"/>
</mask>
<g mask="url(#mask5_409_3264)">
<path d="M58.9988 181.018L58.5041 186.422L62.6636 189.905L57.3751 191.098L55.3495 196.13L52.5815 191.469L47.1848 191.098L50.7569 187.025L49.4271 181.761L54.4063 183.913L58.9988 181.018Z" fill="white"/>
</g>
<mask id="mask6_409_3264" style="mask-type:luminance" maskUnits="userSpaceOnUse" x="27" y="145" width="146" height="69">
<path d="M155.35 154.865C149.041 150.638 141.944 147.928 134.599 145.916C132.96 148.873 130.826 151.567 128.166 153.812C122.182 158.891 114.311 161.198 106.548 162.282C89.6312 164.62 70.5494 160.626 59.7715 147.588C54.3748 149.399 49.21 151.707 44.4782 154.881C33.9786 161.926 26.015 201.055 27.7005 213.597C38.2465 213.535 67.6888 186.887 97.5021 187.274V187.336C98.3062 187.32 99.0947 187.32 99.8988 187.305C100.703 187.32 101.492 187.32 102.296 187.336V187.274C132.124 186.887 161.551 213.535 172.097 213.597C173.814 201.039 165.866 161.911 155.35 154.865Z" fill="white"/>
</mask>
<g mask="url(#mask6_409_3264)">
<path d="M102.698 179.919L105.11 184.796L110.476 185.571L106.579 189.364L107.507 194.706L102.698 192.182L97.9045 194.706L98.8167 189.364L94.9354 185.571L100.301 184.796L102.698 179.919Z" fill="white"/>
</g>
<mask id="mask7_409_3264" style="mask-type:luminance" maskUnits="userSpaceOnUse" x="27" y="145" width="146" height="69">
<path d="M155.35 154.865C149.041 150.638 141.944 147.928 134.599 145.916C132.96 148.873 130.826 151.567 128.166 153.812C122.182 158.891 114.311 161.198 106.548 162.282C89.6312 164.62 70.5494 160.626 59.7715 147.588C54.3748 149.399 49.21 151.707 44.4782 154.881C33.9786 161.926 26.015 201.055 27.7005 213.597C38.2465 213.535 67.6888 186.887 97.5021 187.274V187.336C98.3062 187.32 99.0947 187.32 99.8988 187.305C100.703 187.32 101.492 187.32 102.296 187.336V187.274C132.124 186.887 161.551 213.535 172.097 213.597C173.814 201.039 165.866 161.911 155.35 154.865Z" fill="white"/>
</mask>
<g mask="url(#mask7_409_3264)">
<path d="M126.944 162.637L127.424 168.041L132.14 170.72L127.145 172.841L126.063 178.168L122.506 174.064L117.125 174.684L119.909 170.039L117.666 165.084L122.939 166.307L126.944 162.637Z" fill="white"/>
</g>
<mask id="mask8_409_3264" style="mask-type:luminance" maskUnits="userSpaceOnUse" x="27" y="145" width="146" height="69">
<path d="M155.35 154.865C149.041 150.638 141.944 147.928 134.599 145.916C132.96 148.873 130.826 151.567 128.166 153.812C122.182 158.891 114.311 161.198 106.548 162.282C89.6312 164.62 70.5494 160.626 59.7715 147.588C54.3748 149.399 49.21 151.707 44.4782 154.881C33.9786 161.926 26.015 201.055 27.7005 213.597C38.2465 213.535 67.6888 186.887 97.5021 187.274V187.336C98.3062 187.32 99.0947 187.32 99.8988 187.305C100.703 187.32 101.492 187.32 102.296 187.336V187.274C132.124 186.887 161.551 213.535 172.097 213.597C173.814 201.039 165.866 161.911 155.35 154.865Z" fill="white"/>
</mask>
<g mask="url(#mask8_409_3264)">
<path d="M149.01 146.256L151.406 151.133L156.772 151.908L152.891 155.701L153.803 161.059L149.01 158.519L144.201 161.059L145.113 155.701L141.232 151.908L146.597 151.133L149.01 146.256Z" fill="white"/>
</g>
<mask id="mask9_409_3264" style="mask-type:luminance" maskUnits="userSpaceOnUse" x="27" y="145" width="146" height="69">
<path d="M155.35 154.865C149.041 150.638 141.944 147.928 134.599 145.916C132.96 148.873 130.826 151.567 128.166 153.812C122.182 158.891 114.311 161.198 106.548 162.282C89.6312 164.62 70.5494 160.626 59.7715 147.588C54.3748 149.399 49.21 151.707 44.4782 154.881C33.9786 161.926 26.015 201.055 27.7005 213.597C38.2465 213.535 67.6888 186.887 97.5021 187.274V187.336C98.3062 187.32 99.0947 187.32 99.8988 187.305C100.703 187.32 101.492 187.32 102.296 187.336V187.274C132.124 186.887 161.551 213.535 172.097 213.597C173.814 201.039 165.866 161.911 155.35 154.865Z" fill="white"/>
</mask>
<g mask="url(#mask9_409_3264)">
<path d="M145.5 177.085L149.258 181.002L154.608 180.135L152.057 184.92L154.546 189.736L149.211 188.775L145.392 192.647L144.65 187.258L139.81 184.827L144.681 182.458L145.5 177.085Z" fill="white"/>
</g>
<path d="M56.0608 148.78C57.2669 162.235 58.4732 175.691 59.6638 189.162C56.3083 189.642 52.9527 190.107 49.5817 190.587C48.7158 178.556 47.8652 166.525 46.9993 154.493C46.9683 153.982 46.9374 153.44 47.1848 153.007C47.4322 152.604 47.8651 152.372 48.2826 152.155C50.5867 150.978 52.8909 149.786 55.1949 148.609L56.0608 148.78Z" fill="#8CA3C3"/>
<path d="M137.691 145.9C137.428 159.402 137.181 172.92 136.918 186.422C140.242 186.67 143.567 186.917 146.907 187.165C146.923 175.103 146.938 163.041 146.969 150.979C146.969 150.468 146.953 149.926 146.675 149.508C146.412 149.12 145.964 148.919 145.531 148.733C143.196 147.711 140.846 146.689 138.511 145.667L137.691 145.9Z" fill="#8CA3C3"/>
<path d="M55.643 182.922C85.0234 180.522 117.605 181.529 146.97 184.13C147.665 189.906 145.717 200.357 146.073 200.543C117.512 199.661 78.8845 200.745 50.3237 201.612L55.643 182.922Z" fill="#8CA3C3"/>
<path d="M69.9153 55.5184C72.8997 58.2901 76.1005 60.845 79.4406 63.1676C79.8581 63.4618 80.4767 61.3715 80.7241 60.9534C81.0025 60.4889 80.8013 61.836 80.3838 61.5418C77.1674 59.3121 74.1058 56.8501 71.2296 54.1868C70.3482 53.3816 69.0339 54.6978 69.9153 55.5184Z" fill="#241E21"/>
<path d="M73.0086 52.7471C75.993 55.0542 78.9928 57.3768 81.9772 59.684C82.3792 59.9937 83.0288 59.7459 83.2608 59.3433C83.5391 58.8633 83.3225 56.4943 82.9204 56.1846C79.936 53.8774 76.9362 53.4284 73.9518 51.1212C73.5498 50.8116 72.9002 51.0593 72.6682 51.4619C72.3899 51.9419 72.6065 52.4374 73.0086 52.7471Z" fill="#241E21"/>
<path d="M61.3489 187.971C80.106 187.971 98.863 187.971 117.62 187.971C122.909 187.971 128.182 187.971 133.47 187.971C134.676 187.971 134.676 186.097 133.47 186.097C114.713 186.097 95.9559 186.097 77.1989 186.097C71.9104 186.097 66.6374 186.097 61.3489 186.097C60.1428 186.097 60.1428 187.971 61.3489 187.971Z" fill="#566E8C"/>
<path d="M56.6947 183.527C56.6947 184.905 55.5814 186.02 54.2052 186.02C52.8289 186.02 51.7156 184.905 51.7156 183.527C51.7156 182.149 52.8289 181.034 54.2052 181.034C55.5659 181.034 56.6947 182.149 56.6947 183.527Z" fill="#566E8C"/>
<path d="M144.913 183.836C144.913 185.214 143.8 186.329 142.423 186.329C141.047 186.329 139.934 185.214 139.934 183.836C139.934 182.458 141.047 181.343 142.423 181.343C143.8 181.343 144.913 182.458 144.913 183.836Z" fill="#566E8C"/>
<path d="M72.8684 107.05C72.8684 108.087 72.0334 108.923 70.9973 108.923C69.9613 108.923 69.1263 108.087 69.1263 107.05C69.1263 106.012 69.9613 105.176 70.9973 105.176C72.0334 105.176 72.8684 106.012 72.8684 107.05Z" fill="#241E21"/>
<path d="M75.1416 118.276H66.884C65.9872 118.276 65.4459 117.285 65.9099 116.526L71.0128 108.289L76.1156 116.526C76.5795 117.3 76.0385 118.276 75.1416 118.276Z" fill="#241E21"/>
<path d="M129 107.05C129 108.087 128.165 108.923 127.129 108.923C126.093 108.923 125.258 108.087 125.258 107.05C125.258 106.012 126.093 105.176 127.129 105.176C128.149 105.176 129 106.012 129 107.05Z" fill="#241E21"/>
<path d="M131.257 118.276H123C122.103 118.276 121.562 117.285 122.025 116.526L127.128 108.289L132.231 116.526C132.695 117.3 132.154 118.276 131.257 118.276Z" fill="#241E21"/>
<path d="M145.422 56.4174C150.154 55.9839 154.979 57.5942 158.381 60.9388C161.783 64.2833 163.515 69.0679 163.19 73.8061C163.159 74.3171 163.654 74.7352 164.118 74.7352C169.143 74.8745 173.999 77.1507 177.308 80.9598C180.663 84.8463 182.102 90.1419 181.437 95.2052C181.375 95.7162 181.916 96.1343 182.364 96.1343C182.921 96.1343 183.23 95.7007 183.292 95.2052C184.452 86.3793 179.395 77.7701 171.215 74.3791C168.958 73.4345 166.545 72.939 164.102 72.8771C164.411 73.1868 164.721 73.4964 165.03 73.8061C165.386 68.5879 163.406 63.2769 159.68 59.6071C155.938 55.9529 150.603 54.0638 145.407 54.5438C144.232 54.6522 144.216 56.5258 145.422 56.4174Z" fill="#EF6A55"/>
<path d="M45.8236 71.2664C37.5353 73.4187 31.319 81.0834 30.1747 89.4758C29.85 91.8759 29.9429 94.2914 30.4841 96.6605C30.7779 96.2579 31.0871 95.8708 31.3809 95.4682C23.2163 95.8398 15.6237 101.012 11.9744 108.274C10.9383 110.317 10.227 112.501 9.88685 114.777C9.71675 115.954 11.5106 116.465 11.6961 115.272C12.794 107.825 18.2062 101.321 25.1956 98.6424C27.1749 97.8837 29.2625 97.4347 31.3809 97.3263C31.9995 97.2953 32.4169 96.7534 32.2777 96.134C30.5304 88.5777 34.1178 80.2627 40.365 75.8188C42.1742 74.5336 44.1537 73.5891 46.3031 73.0471C47.4783 72.7684 46.9834 70.9568 45.8236 71.2664Z" fill="#EF6A55"/>
<path d="M57.066 78.5442C49.7982 81.8733 46.7983 91.8296 50.8652 98.6736C51.0507 98.2091 51.2363 97.7601 51.4218 97.2955C44.3551 98.4414 39.2986 105.672 40.2728 112.687C40.4429 113.879 42.2367 113.368 42.0821 112.191C41.2471 106.122 45.9789 100.083 51.9322 99.1072C52.5353 99.0143 52.7672 98.2091 52.4889 97.7291C48.9014 91.6903 51.6847 83.0811 58.0247 80.1701C59.1071 79.6591 58.1639 78.0487 57.066 78.5442Z" fill="#933B32"/>
<path d="M144.186 84.3204C145.021 85.203 145.748 86.163 146.351 87.2004C150.078 93.4715 154.608 99.2936 160.577 103.505C161.118 103.877 161.613 104.295 162.093 104.759C165.417 108.011 166.778 113.013 165.649 117.518C165.355 118.695 167.165 119.191 167.458 118.014C168.463 114.019 167.783 109.683 165.618 106.199C163.422 102.669 159.758 100.223 155.66 99.4639C153.356 99.0458 151.005 99.1232 148.763 99.7581C149.15 100.145 149.536 100.532 149.908 100.904C151.686 94.6638 149.954 87.6959 145.5 82.9887C144.681 82.1061 143.351 83.4378 144.186 84.3204Z" fill="#933B32"/>
<path d="M141.65 114.189C146.258 112.439 151.933 116.403 151.763 121.373C151.717 122.581 153.588 122.581 153.634 121.373C153.835 115.272 146.877 110.209 141.14 112.392C140.66 112.578 140.351 113.027 140.49 113.538C140.614 113.987 141.171 114.359 141.65 114.189Z" fill="#933B32"/>
</g>
</svg>
