<svg width="34" height="34" viewBox="0 0 34 34" fill="none" xmlns="http://www.w3.org/2000/svg">
<path fill-rule="evenodd" clip-rule="evenodd" d="M9.00742 25.595C14.7116 24.7617 18.6391 24.8333 24.3508 25.6242C24.7644 25.6841 25.1424 25.8917 25.4149 26.2087C25.6873 26.5256 25.836 26.9304 25.8333 27.3483C25.8333 27.7483 25.6958 28.1367 25.4474 28.44C25.0146 28.9689 24.5712 29.489 24.1174 30H26.3183C26.4566 29.835 26.5958 29.6667 26.7366 29.4958C27.2309 28.8897 27.5005 28.1313 27.4999 27.3492C27.4999 25.6617 26.2683 24.2075 24.5791 23.9742C18.7324 23.165 14.6458 23.0875 8.76659 23.9467C7.05992 24.1958 5.83325 25.6725 5.83325 27.3717C5.83325 28.1258 6.07909 28.8717 6.54492 29.4758C6.68242 29.6542 6.81825 29.8292 6.95325 30.0008H9.10075C8.6786 29.4954 8.26685 28.9814 7.86575 28.4592C7.62739 28.1465 7.4988 27.764 7.49992 27.3708C7.49992 26.4733 8.14492 25.7208 9.00742 25.595ZM16.6666 17.5C17.3232 17.5 17.9734 17.3707 18.58 17.1194C19.1866 16.8681 19.7378 16.4998 20.2021 16.0355C20.6664 15.5712 21.0347 15.02 21.286 14.4134C21.5373 13.8068 21.6666 13.1566 21.6666 12.5C21.6666 11.8434 21.5373 11.1932 21.286 10.5866C21.0347 9.97996 20.6664 9.42876 20.2021 8.96447C19.7378 8.50018 19.1866 8.13188 18.58 7.88061C17.9734 7.62933 17.3232 7.5 16.6666 7.5C15.3405 7.5 14.0687 8.02679 13.1311 8.96447C12.1934 9.90215 11.6666 11.1739 11.6666 12.5C11.6666 13.8261 12.1934 15.0979 13.1311 16.0355C14.0687 16.9732 15.3405 17.5 16.6666 17.5ZM16.6666 19.1667C18.4347 19.1667 20.1304 18.4643 21.3806 17.214C22.6309 15.9638 23.3333 14.2681 23.3333 12.5C23.3333 10.7319 22.6309 9.0362 21.3806 7.78596C20.1304 6.53571 18.4347 5.83334 16.6666 5.83334C14.8985 5.83334 13.2028 6.53571 11.9525 7.78596C10.7023 9.0362 9.99992 10.7319 9.99992 12.5C9.99992 14.2681 10.7023 15.9638 11.9525 17.214C13.2028 18.4643 14.8985 19.1667 16.6666 19.1667Z" fill="black"/>
<path fill-rule="evenodd" clip-rule="evenodd" d="M16.6667 31.6667C24.9508 31.6667 31.6667 24.9508 31.6667 16.6667C31.6667 8.3825 24.9508 1.66667 16.6667 1.66667C8.3825 1.66667 1.66667 8.3825 1.66667 16.6667C1.66667 24.9508 8.3825 31.6667 16.6667 31.6667ZM16.6667 33.3333C25.8717 33.3333 33.3333 25.8717 33.3333 16.6667C33.3333 7.46167 25.8717 0 16.6667 0C7.46167 0 0 7.46167 0 16.6667C0 25.8717 7.46167 33.3333 16.6667 33.3333Z" fill="black"/>
</svg>
