<svg width="26" height="25" viewBox="0 0 26 25" fill="none" xmlns="http://www.w3.org/2000/svg">
<path d="M11.3607 13.75V17.5C11.3607 17.8542 11.4811 18.1512 11.7219 18.3912C11.9627 18.6312 12.2604 18.7508 12.6149 18.75C12.9703 18.75 13.2683 18.63 13.5091 18.39C13.7499 18.15 13.8699 17.8533 13.8691 17.5V13.75H17.6316C17.9869 13.75 18.285 13.63 18.5258 13.39C18.7666 13.15 18.8866 12.8533 18.8857 12.5C18.8857 12.1458 18.7653 11.8487 18.5245 11.6087C18.2837 11.3687 17.9861 11.2492 17.6316 11.25H13.8691V7.5C13.8691 7.14583 13.7487 6.84875 13.5079 6.60875C13.2671 6.36875 12.9694 6.24917 12.6149 6.25C12.2596 6.25 11.9615 6.37 11.7207 6.61C11.4799 6.85 11.3599 7.14667 11.3607 7.5V11.25H7.59824C7.24289 11.25 6.94482 11.37 6.70402 11.61C6.46322 11.85 6.34324 12.1467 6.34408 12.5C6.34408 12.8542 6.46448 13.1513 6.70528 13.3913C6.94608 13.6313 7.24373 13.7508 7.59824 13.75H11.3607ZM12.6149 25C10.88 25 9.24956 24.6717 7.72366 24.015C6.19776 23.3583 4.87043 22.4679 3.74168 21.3438C2.61293 20.2188 1.71955 18.8958 1.06153 17.375C0.403506 15.8542 0.0740783 14.2292 0.0732422 12.5C0.0732422 10.7708 0.40267 9.14583 1.06153 7.625C1.72038 6.10417 2.61377 4.78125 3.74168 3.65625C4.87043 2.53125 6.19776 1.64083 7.72366 0.985C9.24956 0.329167 10.88 0.000833333 12.6149 0C14.3498 0 15.9803 0.328333 17.5062 0.985C19.0321 1.64167 20.3594 2.53208 21.4881 3.65625C22.6169 4.78125 23.5107 6.10417 24.1695 7.625C24.8284 9.14583 25.1574 10.7708 25.1566 12.5C25.1566 14.2292 24.8271 15.8542 24.1683 17.375C23.5094 18.8958 22.6161 20.2188 21.4881 21.3438C20.3594 22.4688 19.0321 23.3596 17.5062 24.0162C15.9803 24.6729 14.3498 25.0008 12.6149 25ZM12.6149 22.5C15.4159 22.5 17.7883 21.5312 19.7323 19.5938C21.6763 17.6562 22.6482 15.2917 22.6482 12.5C22.6482 9.70833 21.6763 7.34375 19.7323 5.40625C17.7883 3.46875 15.4159 2.5 12.6149 2.5C9.81394 2.5 7.44147 3.46875 5.49751 5.40625C3.55355 7.34375 2.58158 9.70833 2.58158 12.5C2.58158 15.2917 3.55355 17.6562 5.49751 19.5938C7.44147 21.5312 9.81394 22.5 12.6149 22.5Z" fill="#396857"/>
</svg>
