<svg width="30" height="30" viewBox="0 0 30 30" fill="none" xmlns="http://www.w3.org/2000/svg">
<path d="M29.7354 16.5C28.8213 17.4603 27.2896 17.4603 26.3755 16.5L26.2488 16.3669C25.3318 15.4037 25.3318 13.8904 26.2488 12.9272L26.2915 12.8824C26.4642 12.7045 26.6964 12.6049 26.9383 12.6049C27.1801 12.6049 27.4123 12.7045 27.585 12.8824L29.7354 15.1412C30.0882 15.5118 30.0882 16.1294 29.7354 16.5ZM13.4397 27.4031C13.4397 26.7365 13.6961 26.0954 14.1557 25.6126L21.8123 17.5698C22.7961 16.5364 24.4445 16.5364 25.4284 17.5698C26.345 18.5327 26.3462 20.045 25.4312 21.0093L17.6164 29.2455C17.1593 29.7272 16.5244 30 15.8604 30C14.5235 30 13.4397 28.9162 13.4397 27.5794V27.4031ZM13.4397 17.6471C6.01428 17.6471 0 20.8059 0 24.7059C0 26.6551 1.58017 28.2353 3.52941 28.2353H7.69724C9.01309 28.2353 10.0798 27.1686 10.0798 25.8527C10.0798 25.2411 10.315 24.6529 10.7367 24.21L14.4776 20.2804C15.4405 19.2689 14.8363 17.6471 13.4397 17.6471ZM13.4397 0C11.6575 0 9.94829 0.743695 8.68807 2.06748C7.42785 3.39127 6.71987 5.18671 6.71987 7.05882C6.71987 8.93094 7.42785 10.7264 8.68807 12.0502C9.94829 13.374 11.6575 14.1176 13.4397 14.1176C15.222 14.1176 16.9312 13.374 18.1914 12.0502C19.4516 10.7264 20.1596 8.93094 20.1596 7.05882C20.1596 5.18671 19.4516 3.39127 18.1914 2.06748C16.9312 0.743695 15.222 0 13.4397 0Z" fill="#396857"/>
</svg>
