<svg width="253" height="68" viewBox="0 0 253 68" fill="none" xmlns="http://www.w3.org/2000/svg">
<rect x="1" y="1" width="251" height="66" rx="24" stroke="#396857" stroke-width="2"/>
<path d="M52.7354 35.5C51.8213 36.4603 50.2896 36.4603 49.3755 35.5L49.2488 35.3669C48.3318 34.4037 48.3318 32.8904 49.2488 31.9272L49.2915 31.8824C49.4642 31.7045 49.6964 31.6049 49.9383 31.6049C50.1801 31.6049 50.4123 31.7045 50.585 31.8824L52.7354 34.1412C53.0882 34.5118 53.0882 35.1294 52.7354 35.5ZM36.4397 46.4031C36.4397 45.7365 36.6961 45.0954 37.1557 44.6126L44.8123 36.5698C45.7961 35.5364 47.4445 35.5364 48.4284 36.5698C49.345 37.5327 49.3462 39.045 48.4312 40.0093L40.6164 48.2455C40.1593 48.7272 39.5244 49 38.8604 49C37.5235 49 36.4397 47.9162 36.4397 46.5794V46.4031ZM36.4397 36.6471C29.0143 36.6471 23 39.8059 23 43.7059C23 45.6551 24.5802 47.2353 26.5294 47.2353H30.6972C32.0131 47.2353 33.0798 46.1686 33.0798 44.8527C33.0798 44.2411 33.315 43.6529 33.7367 43.21L37.4776 39.2804C38.4405 38.2689 37.8363 36.6471 36.4397 36.6471ZM36.4397 19C34.6575 19 32.9483 19.7437 31.6881 21.0675C30.4278 22.3913 29.7199 24.1867 29.7199 26.0588C29.7199 27.9309 30.4278 29.7264 31.6881 31.0502C32.9483 32.374 34.6575 33.1176 36.4397 33.1176C38.222 33.1176 39.9312 32.374 41.1914 31.0502C42.4516 29.7264 43.1596 27.9309 43.1596 26.0588C43.1596 24.1867 42.4516 22.3913 41.1914 21.0675C39.9312 19.7437 38.222 19 36.4397 19Z" fill="#396857"/>
<path d="M76.6719 36.2969H79.4746C80.1126 36.2904 80.7148 36.1927 81.2812 36.0039C81.8542 35.8151 82.3555 35.5417 82.7852 35.1836C83.2148 34.8255 83.5534 34.3861 83.8008 33.8652C84.0547 33.3379 84.1816 32.7324 84.1816 32.0488C84.1816 31.3652 84.0547 30.7598 83.8008 30.2324C83.5534 29.7051 83.2148 29.2624 82.7852 28.9043C82.3555 28.5462 81.8542 28.2728 81.2812 28.084C80.7148 27.8952 80.1126 27.7943 79.4746 27.7812H74.8652V42H76.6719V36.2969ZM76.6719 34.8125V29.2656H79.4746C79.8913 29.2721 80.2754 29.3405 80.627 29.4707C80.985 29.6009 81.2943 29.7865 81.5547 30.0273C81.8086 30.2682 82.0072 30.5612 82.1504 30.9062C82.3001 31.2513 82.375 31.6387 82.375 32.0684C82.375 32.498 82.3001 32.8822 82.1504 33.2207C82.0072 33.5527 81.8053 33.8359 81.5449 34.0703C81.2845 34.3047 80.9785 34.487 80.627 34.6172C80.2754 34.7409 79.8913 34.806 79.4746 34.8125H76.6719ZM91.3789 42.1953C92.4076 42.1953 93.2702 41.9902 93.9668 41.5801C94.6699 41.1634 95.1973 40.6882 95.5488 40.1543L94.4453 39.2949C94.1133 39.7246 93.6966 40.0697 93.1953 40.3301C92.694 40.5905 92.1211 40.7207 91.4766 40.7207C90.9883 40.7207 90.5423 40.6296 90.1387 40.4473C89.735 40.265 89.39 40.0143 89.1035 39.6953C88.8236 39.3958 88.6022 39.0508 88.4395 38.6602C88.2832 38.2695 88.1823 37.8171 88.1367 37.3027V37.2344H95.6855V36.4238C95.6855 35.6882 95.5911 35.0046 95.4023 34.373C95.2201 33.7415 94.9401 33.1914 94.5625 32.7227C94.1849 32.2604 93.7096 31.8991 93.1367 31.6387C92.5703 31.3717 91.9062 31.2383 91.1445 31.2383C90.5391 31.2383 89.9466 31.362 89.3672 31.6094C88.7943 31.8568 88.2832 32.2116 87.834 32.6738C87.3783 33.1426 87.0137 33.7155 86.7402 34.3926C86.4668 35.0632 86.3301 35.8249 86.3301 36.6777V37.0879C86.3301 37.8236 86.4538 38.5039 86.7012 39.1289C86.9486 39.7539 87.2936 40.2943 87.7363 40.75C88.179 41.2057 88.7096 41.5605 89.3281 41.8145C89.9531 42.0684 90.6367 42.1953 91.3789 42.1953ZM91.1445 32.7227C91.6068 32.7227 92.0039 32.8073 92.3359 32.9766C92.6745 33.1458 92.9544 33.3672 93.1758 33.6406C93.3971 33.9141 93.5697 34.2396 93.6934 34.6172C93.8171 34.9883 93.8789 35.3366 93.8789 35.6621V35.75H88.1953C88.2669 35.2617 88.3906 34.832 88.5664 34.4609C88.7487 34.0833 88.9701 33.7643 89.2305 33.5039C89.4909 33.25 89.7839 33.0579 90.1094 32.9277C90.4349 32.791 90.7799 32.7227 91.1445 32.7227ZM98.5469 40.5254H97.5508L97.7266 45.1055H99.3477V42H106.721V45.1055H108.352L108.527 40.5254H107.17V31.4336H100.363L100.207 35.3984C100.161 36.1536 100.1 36.8372 100.021 37.4492C99.9499 38.0612 99.8522 38.5885 99.7285 39.0312C99.6048 39.474 99.4453 39.8255 99.25 40.0859C99.0612 40.3398 98.8268 40.4863 98.5469 40.5254ZM102.014 35.3984L102.102 33.1035H105.363V40.5254H101.047C101.203 40.2389 101.333 39.9134 101.438 39.5488C101.548 39.1842 101.639 38.7839 101.711 38.3477C101.783 37.918 101.841 37.4557 101.887 36.9609C101.939 36.4661 101.981 35.9453 102.014 35.3984ZM117.678 42H119.562V41.8438C119.445 41.5508 119.354 41.209 119.289 40.8184C119.224 40.4212 119.191 40.0469 119.191 39.6953V34.7832C119.191 34.1908 119.084 33.6732 118.869 33.2305C118.654 32.7878 118.361 32.4167 117.99 32.1172C117.613 31.8242 117.167 31.6061 116.652 31.4629C116.138 31.3132 115.581 31.2383 114.982 31.2383C114.325 31.2383 113.736 31.3294 113.215 31.5117C112.701 31.694 112.264 31.9316 111.906 32.2246C111.542 32.5241 111.262 32.8594 111.066 33.2305C110.878 33.6016 110.78 33.9792 110.773 34.3633H112.59C112.59 34.1419 112.642 33.9303 112.746 33.7285C112.857 33.5202 113.01 33.3411 113.205 33.1914C113.4 33.0417 113.638 32.9212 113.918 32.8301C114.204 32.7389 114.527 32.6934 114.885 32.6934C115.269 32.6934 115.614 32.7422 115.92 32.8398C116.232 32.9375 116.496 33.0742 116.711 33.25C116.926 33.4323 117.092 33.6504 117.209 33.9043C117.326 34.1582 117.385 34.4447 117.385 34.7637V35.5938H115.412C114.676 35.5938 114.009 35.6654 113.41 35.8086C112.818 35.9518 112.31 36.1667 111.887 36.4531C111.464 36.7461 111.135 37.1107 110.9 37.5469C110.673 37.9831 110.559 38.4909 110.559 39.0703C110.559 39.513 110.643 39.9264 110.812 40.3105C110.988 40.6882 111.236 41.0137 111.555 41.2871C111.867 41.5671 112.248 41.7884 112.697 41.9512C113.153 42.1139 113.661 42.1953 114.221 42.1953C114.566 42.1953 114.891 42.1595 115.197 42.0879C115.503 42.0163 115.793 41.9186 116.066 41.7949C116.333 41.6712 116.577 41.528 116.799 41.3652C117.027 41.2025 117.232 41.0299 117.414 40.8477C117.434 41.069 117.463 41.2839 117.502 41.4922C117.548 41.694 117.606 41.8633 117.678 42ZM114.484 40.623C114.133 40.623 113.824 40.5775 113.557 40.4863C113.29 40.3952 113.068 40.2682 112.893 40.1055C112.717 39.9492 112.583 39.7604 112.492 39.5391C112.408 39.3177 112.365 39.0768 112.365 38.8164C112.365 38.543 112.414 38.2988 112.512 38.084C112.616 37.8691 112.766 37.6836 112.961 37.5273C113.234 37.306 113.602 37.1432 114.064 37.0391C114.533 36.9284 115.08 36.873 115.705 36.873H117.385V39.0117C117.281 39.2201 117.137 39.4219 116.955 39.6172C116.773 39.806 116.558 39.9753 116.311 40.125C116.057 40.2747 115.777 40.3952 115.471 40.4863C115.165 40.5775 114.836 40.623 114.484 40.623ZM126.174 37.498L130.207 42H132.502L127.619 36.5215L132.15 31.4336H129.953L126.018 35.9062H124.455V31.4336H122.648V42H124.455V37.498H126.174ZM144.26 32.8984V31.4336H134.074V32.8984H138.225V42H140.041V32.8984H144.26ZM153.645 31.4336L148.479 39.2363V31.4336H146.682V42H148.479L153.645 34.207V42H155.451V31.4336H153.645ZM158.771 46.0625H160.578V40.9844C160.708 41.1276 160.848 41.2611 160.998 41.3848C161.148 41.502 161.307 41.6094 161.477 41.707C161.757 41.8633 162.069 41.9837 162.414 42.0684C162.766 42.153 163.143 42.1953 163.547 42.1953C164.211 42.1953 164.8 42.0586 165.314 41.7852C165.835 41.5117 166.271 41.1341 166.623 40.6523C166.975 40.1706 167.242 39.6042 167.424 38.9531C167.606 38.2956 167.697 37.5892 167.697 36.834V36.6289C167.697 35.8411 167.606 35.1185 167.424 34.4609C167.242 33.7969 166.975 33.2272 166.623 32.752C166.271 32.2767 165.835 31.9056 165.314 31.6387C164.794 31.3717 164.195 31.2383 163.518 31.2383C163.133 31.2383 162.772 31.2806 162.434 31.3652C162.102 31.4434 161.799 31.5605 161.525 31.7168C161.33 31.821 161.148 31.9479 160.979 32.0977C160.809 32.2409 160.653 32.4036 160.51 32.5859L160.422 31.4336H158.771V46.0625ZM165.891 36.6289V36.834C165.891 37.3483 165.832 37.8398 165.715 38.3086C165.604 38.7773 165.432 39.1908 165.197 39.5488C164.963 39.9069 164.663 40.1934 164.299 40.4082C163.934 40.6165 163.501 40.7207 163 40.7207C162.688 40.7207 162.401 40.6816 162.141 40.6035C161.887 40.5254 161.656 40.418 161.447 40.2812C161.265 40.1641 161.102 40.0208 160.959 39.8516C160.816 39.6823 160.689 39.5 160.578 39.3047V34.2168C160.702 33.9954 160.845 33.7936 161.008 33.6113C161.171 33.429 161.356 33.276 161.564 33.1523C161.753 33.0286 161.965 32.9342 162.199 32.8691C162.44 32.804 162.701 32.7715 162.98 32.7715C163.488 32.7715 163.924 32.8757 164.289 33.084C164.654 33.2923 164.956 33.5723 165.197 33.9238C165.432 34.2819 165.604 34.6953 165.715 35.1641C165.832 35.6263 165.891 36.1146 165.891 36.6289ZM170.285 36.6191V36.834C170.285 37.5957 170.396 38.3021 170.617 38.9531C170.839 39.6042 171.158 40.1706 171.574 40.6523C171.984 41.1341 172.486 41.5117 173.078 41.7852C173.677 42.0586 174.351 42.1953 175.1 42.1953C175.842 42.1953 176.509 42.0586 177.102 41.7852C177.694 41.5117 178.199 41.1341 178.615 40.6523C179.025 40.1706 179.341 39.6042 179.562 38.9531C179.784 38.3021 179.895 37.5957 179.895 36.834V36.6191C179.895 35.8574 179.784 35.151 179.562 34.5C179.341 33.8424 179.025 33.2728 178.615 32.791C178.199 32.3092 177.691 31.9316 177.092 31.6582C176.499 31.3783 175.829 31.2383 175.08 31.2383C174.338 31.2383 173.671 31.3783 173.078 31.6582C172.486 31.9316 171.984 32.3092 171.574 32.791C171.158 33.2728 170.839 33.8424 170.617 34.5C170.396 35.151 170.285 35.8574 170.285 36.6191ZM172.092 36.834V36.6191C172.092 36.1048 172.154 35.6133 172.277 35.1445C172.401 34.6693 172.59 34.2526 172.844 33.8945C173.091 33.5365 173.4 33.2533 173.771 33.0449C174.143 32.8301 174.579 32.7227 175.08 32.7227C175.581 32.7227 176.018 32.8301 176.389 33.0449C176.766 33.2533 177.082 33.5365 177.336 33.8945C177.583 34.2526 177.769 34.6693 177.893 35.1445C178.023 35.6133 178.088 36.1048 178.088 36.6191V36.834C178.088 37.3548 178.026 37.8529 177.902 38.3281C177.779 38.7969 177.593 39.2103 177.346 39.5684C177.092 39.9264 176.776 40.2096 176.398 40.418C176.027 40.6263 175.594 40.7305 175.1 40.7305C174.598 40.7305 174.159 40.6263 173.781 40.418C173.404 40.2096 173.091 39.9264 172.844 39.5684C172.59 39.2103 172.401 38.7969 172.277 38.3281C172.154 37.8529 172.092 37.3548 172.092 36.834ZM182.707 42H187.531C188.15 42 188.706 41.9382 189.201 41.8145C189.702 41.6908 190.129 41.502 190.48 41.248C190.832 41.0007 191.102 40.6914 191.291 40.3203C191.48 39.9427 191.574 39.5033 191.574 39.002C191.574 38.7155 191.529 38.4421 191.438 38.1816C191.346 37.9212 191.213 37.6836 191.037 37.4688C190.861 37.2604 190.65 37.0814 190.402 36.9316C190.161 36.7754 189.878 36.6549 189.553 36.5703L189.475 36.5508C189.676 36.4727 189.862 36.3848 190.031 36.2871C190.201 36.1895 190.35 36.0788 190.48 35.9551C190.715 35.7467 190.891 35.5059 191.008 35.2324C191.132 34.9525 191.193 34.653 191.193 34.334C191.193 33.8327 191.089 33.3997 190.881 33.0352C190.679 32.6706 190.389 32.3711 190.012 32.1367C189.628 31.9023 189.169 31.7266 188.635 31.6094C188.101 31.4922 187.508 31.4336 186.857 31.4336H182.707V42ZM184.523 37.3613H187.531C187.896 37.3613 188.218 37.3971 188.498 37.4688C188.778 37.5404 189.012 37.6445 189.201 37.7812C189.383 37.9115 189.52 38.0742 189.611 38.2695C189.709 38.4648 189.758 38.6895 189.758 38.9434C189.758 39.1908 189.715 39.4121 189.631 39.6074C189.546 39.7962 189.423 39.9557 189.26 40.0859C189.071 40.2357 188.83 40.3496 188.537 40.4277C188.251 40.5059 187.915 40.5449 187.531 40.5449H184.523V37.3613ZM184.523 35.916V32.8984H186.857C187.255 32.8984 187.609 32.9277 187.922 32.9863C188.241 33.0449 188.505 33.1361 188.713 33.2598C188.934 33.3835 189.1 33.543 189.211 33.7383C189.328 33.9336 189.387 34.1647 189.387 34.4316C189.387 34.6335 189.351 34.8158 189.279 34.9785C189.208 35.1348 189.107 35.2715 188.977 35.3887C188.768 35.571 188.488 35.7044 188.137 35.7891C187.785 35.8737 187.365 35.916 186.877 35.916H184.523ZM201.76 42H203.645V41.8438C203.527 41.5508 203.436 41.209 203.371 40.8184C203.306 40.4212 203.273 40.0469 203.273 39.6953V34.7832C203.273 34.1908 203.166 33.6732 202.951 33.2305C202.736 32.7878 202.443 32.4167 202.072 32.1172C201.695 31.8242 201.249 31.6061 200.734 31.4629C200.22 31.3132 199.663 31.2383 199.064 31.2383C198.407 31.2383 197.818 31.3294 197.297 31.5117C196.783 31.694 196.346 31.9316 195.988 32.2246C195.624 32.5241 195.344 32.8594 195.148 33.2305C194.96 33.6016 194.862 33.9792 194.855 34.3633H196.672C196.672 34.1419 196.724 33.9303 196.828 33.7285C196.939 33.5202 197.092 33.3411 197.287 33.1914C197.482 33.0417 197.72 32.9212 198 32.8301C198.286 32.7389 198.609 32.6934 198.967 32.6934C199.351 32.6934 199.696 32.7422 200.002 32.8398C200.314 32.9375 200.578 33.0742 200.793 33.25C201.008 33.4323 201.174 33.6504 201.291 33.9043C201.408 34.1582 201.467 34.4447 201.467 34.7637V35.5938H199.494C198.758 35.5938 198.091 35.6654 197.492 35.8086C196.9 35.9518 196.392 36.1667 195.969 36.4531C195.546 36.7461 195.217 37.1107 194.982 37.5469C194.755 37.9831 194.641 38.4909 194.641 39.0703C194.641 39.513 194.725 39.9264 194.895 40.3105C195.07 40.6882 195.318 41.0137 195.637 41.2871C195.949 41.5671 196.33 41.7884 196.779 41.9512C197.235 42.1139 197.743 42.1953 198.303 42.1953C198.648 42.1953 198.973 42.1595 199.279 42.0879C199.585 42.0163 199.875 41.9186 200.148 41.7949C200.415 41.6712 200.66 41.528 200.881 41.3652C201.109 41.2025 201.314 41.0299 201.496 40.8477C201.516 41.069 201.545 41.2839 201.584 41.4922C201.63 41.694 201.688 41.8633 201.76 42ZM198.566 40.623C198.215 40.623 197.906 40.5775 197.639 40.4863C197.372 40.3952 197.15 40.2682 196.975 40.1055C196.799 39.9492 196.665 39.7604 196.574 39.5391C196.49 39.3177 196.447 39.0768 196.447 38.8164C196.447 38.543 196.496 38.2988 196.594 38.084C196.698 37.8691 196.848 37.6836 197.043 37.5273C197.316 37.306 197.684 37.1432 198.146 37.0391C198.615 36.9284 199.162 36.873 199.787 36.873H201.467V39.0117C201.363 39.2201 201.219 39.4219 201.037 39.6172C200.855 39.806 200.64 39.9753 200.393 40.125C200.139 40.2747 199.859 40.3952 199.553 40.4863C199.247 40.5775 198.918 40.623 198.566 40.623ZM216.33 32.8984V31.4336H206.145V32.8984H210.295V42H212.111V32.8984H216.33ZM220.559 35.4375V31.4336H218.752V42H223.791C224.423 42 224.986 41.9154 225.48 41.7461C225.975 41.5768 226.392 41.3424 226.73 41.043C227.069 40.75 227.326 40.4017 227.502 39.998C227.678 39.5879 227.766 39.1484 227.766 38.6797C227.766 38.2044 227.674 37.7682 227.492 37.3711C227.316 36.974 227.059 36.6322 226.721 36.3457C226.382 36.0592 225.965 35.8379 225.471 35.6816C224.982 35.5189 224.423 35.4375 223.791 35.4375H220.559ZM220.559 36.9121H223.791C224.169 36.9121 224.491 36.9674 224.758 37.0781C225.031 37.1823 225.256 37.319 225.432 37.4883C225.607 37.6641 225.738 37.8626 225.822 38.084C225.907 38.2988 225.949 38.5202 225.949 38.748C225.949 38.9824 225.907 39.207 225.822 39.4219C225.744 39.6367 225.617 39.8255 225.441 39.9883C225.266 40.151 225.041 40.2812 224.768 40.3789C224.494 40.4766 224.169 40.5254 223.791 40.5254H220.559V36.9121Z" fill="#396857"/>
</svg>
