<svg width="250" height="68" viewBox="0 0 250 68" fill="none" xmlns="http://www.w3.org/2000/svg">
<rect x="1" y="1" width="248" height="66" rx="24" stroke="#396857" stroke-width="2"/>
<path d="M83.4102 42V27.7812H74.582V42H76.3887V29.2656H81.6035V42H83.4102ZM86.2031 36.6191V36.834C86.2031 37.5957 86.3138 38.3021 86.5352 38.9531C86.7565 39.6042 87.0755 40.1706 87.4922 40.6523C87.9023 41.1341 88.4036 41.5117 88.9961 41.7852C89.5951 42.0586 90.2689 42.1953 91.0176 42.1953C91.7598 42.1953 92.4271 42.0586 93.0195 41.7852C93.612 41.5117 94.1165 41.1341 94.5332 40.6523C94.9434 40.1706 95.2591 39.6042 95.4805 38.9531C95.7018 38.3021 95.8125 37.5957 95.8125 36.834V36.6191C95.8125 35.8574 95.7018 35.151 95.4805 34.5C95.2591 33.8424 94.9434 33.2728 94.5332 32.791C94.1165 32.3092 93.6087 31.9316 93.0098 31.6582C92.4173 31.3783 91.7467 31.2383 90.998 31.2383C90.2559 31.2383 89.5885 31.3783 88.9961 31.6582C88.4036 31.9316 87.9023 32.3092 87.4922 32.791C87.0755 33.2728 86.7565 33.8424 86.5352 34.5C86.3138 35.151 86.2031 35.8574 86.2031 36.6191ZM88.0098 36.834V36.6191C88.0098 36.1048 88.0716 35.6133 88.1953 35.1445C88.319 34.6693 88.5078 34.2526 88.7617 33.8945C89.0091 33.5365 89.3184 33.2533 89.6895 33.0449C90.0605 32.8301 90.4967 32.7227 90.998 32.7227C91.4993 32.7227 91.9355 32.8301 92.3066 33.0449C92.6842 33.2533 93 33.5365 93.2539 33.8945C93.5013 34.2526 93.6868 34.6693 93.8105 35.1445C93.9408 35.6133 94.0059 36.1048 94.0059 36.6191V36.834C94.0059 37.3548 93.944 37.8529 93.8203 38.3281C93.6966 38.7969 93.5111 39.2103 93.2637 39.5684C93.0098 39.9264 92.694 40.2096 92.3164 40.418C91.9453 40.6263 91.5124 40.7305 91.0176 40.7305C90.5163 40.7305 90.0768 40.6263 89.6992 40.418C89.3216 40.2096 89.0091 39.9264 88.7617 39.5684C88.5078 39.2103 88.319 38.7969 88.1953 38.3281C88.0716 37.8529 88.0098 37.3548 88.0098 36.834ZM98.5469 40.5254H97.5508L97.7266 45.1055H99.3477V42H106.721V45.1055H108.352L108.527 40.5254H107.17V31.4336H100.363L100.207 35.3984C100.161 36.1536 100.1 36.8372 100.021 37.4492C99.9499 38.0612 99.8522 38.5885 99.7285 39.0312C99.6048 39.474 99.4453 39.8255 99.25 40.0859C99.0612 40.3398 98.8268 40.4863 98.5469 40.5254ZM102.014 35.3984L102.102 33.1035H105.363V40.5254H101.047C101.203 40.2389 101.333 39.9134 101.438 39.5488C101.548 39.1842 101.639 38.7839 101.711 38.3477C101.783 37.918 101.841 37.4557 101.887 36.9609C101.939 36.4661 101.981 35.9453 102.014 35.3984ZM119.416 42V31.4336H110.646V42H112.453V32.9277H117.609V42H119.416ZM129.621 31.4336L124.455 39.2363V31.4336H122.658V42H124.455L129.621 34.207V42H131.428V31.4336H129.621ZM139.26 40.7305C138.693 40.7305 138.218 40.6198 137.834 40.3984C137.456 40.1706 137.154 39.8743 136.926 39.5098C136.691 39.1517 136.522 38.748 136.418 38.2988C136.32 37.8431 136.271 37.3841 136.271 36.9219V36.5117C136.271 36.056 136.32 35.6035 136.418 35.1543C136.522 34.7051 136.691 34.2982 136.926 33.9336C137.16 33.5755 137.466 33.2858 137.844 33.0645C138.228 32.8366 138.7 32.7227 139.26 32.7227C139.624 32.7227 139.963 32.7845 140.275 32.9082C140.594 33.0319 140.868 33.2012 141.096 33.416C141.324 33.6309 141.503 33.8815 141.633 34.168C141.77 34.4479 141.841 34.7474 141.848 35.0664H143.557C143.557 34.5326 143.449 34.0312 143.234 33.5625C143.02 33.0938 142.723 32.6868 142.346 32.3418C141.962 32.0033 141.506 31.7363 140.979 31.541C140.458 31.3392 139.885 31.2383 139.26 31.2383C138.459 31.2383 137.759 31.3815 137.16 31.668C136.561 31.9544 136.063 32.3385 135.666 32.8203C135.262 33.3086 134.96 33.8717 134.758 34.5098C134.556 35.1478 134.455 35.8151 134.455 36.5117V36.9219C134.455 37.625 134.556 38.2956 134.758 38.9336C134.96 39.5651 135.262 40.1217 135.666 40.6035C136.063 41.0918 136.561 41.4792 137.16 41.7656C137.759 42.0521 138.459 42.1953 139.26 42.1953C139.82 42.1953 140.357 42.1009 140.871 41.9121C141.385 41.7168 141.841 41.4564 142.238 41.1309C142.635 40.8118 142.951 40.4408 143.186 40.0176C143.426 39.5879 143.55 39.1387 143.557 38.6699H141.848C141.841 38.9629 141.763 39.2363 141.613 39.4902C141.47 39.7376 141.278 39.9525 141.037 40.1348C140.796 40.3236 140.52 40.4701 140.207 40.5742C139.901 40.6784 139.585 40.7305 139.26 40.7305ZM153.713 42H155.598V41.8438C155.48 41.5508 155.389 41.209 155.324 40.8184C155.259 40.4212 155.227 40.0469 155.227 39.6953V34.7832C155.227 34.1908 155.119 33.6732 154.904 33.2305C154.689 32.7878 154.396 32.4167 154.025 32.1172C153.648 31.8242 153.202 31.6061 152.688 31.4629C152.173 31.3132 151.617 31.2383 151.018 31.2383C150.36 31.2383 149.771 31.3294 149.25 31.5117C148.736 31.694 148.299 31.9316 147.941 32.2246C147.577 32.5241 147.297 32.8594 147.102 33.2305C146.913 33.6016 146.815 33.9792 146.809 34.3633H148.625C148.625 34.1419 148.677 33.9303 148.781 33.7285C148.892 33.5202 149.045 33.3411 149.24 33.1914C149.436 33.0417 149.673 32.9212 149.953 32.8301C150.24 32.7389 150.562 32.6934 150.92 32.6934C151.304 32.6934 151.649 32.7422 151.955 32.8398C152.268 32.9375 152.531 33.0742 152.746 33.25C152.961 33.4323 153.127 33.6504 153.244 33.9043C153.361 34.1582 153.42 34.4447 153.42 34.7637V35.5938H151.447C150.712 35.5938 150.044 35.6654 149.445 35.8086C148.853 35.9518 148.345 36.1667 147.922 36.4531C147.499 36.7461 147.17 37.1107 146.936 37.5469C146.708 37.9831 146.594 38.4909 146.594 39.0703C146.594 39.513 146.678 39.9264 146.848 40.3105C147.023 40.6882 147.271 41.0137 147.59 41.2871C147.902 41.5671 148.283 41.7884 148.732 41.9512C149.188 42.1139 149.696 42.1953 150.256 42.1953C150.601 42.1953 150.926 42.1595 151.232 42.0879C151.538 42.0163 151.828 41.9186 152.102 41.7949C152.368 41.6712 152.613 41.528 152.834 41.3652C153.062 41.2025 153.267 41.0299 153.449 40.8477C153.469 41.069 153.498 41.2839 153.537 41.4922C153.583 41.694 153.641 41.8633 153.713 42ZM150.52 40.623C150.168 40.623 149.859 40.5775 149.592 40.4863C149.325 40.3952 149.104 40.2682 148.928 40.1055C148.752 39.9492 148.618 39.7604 148.527 39.5391C148.443 39.3177 148.4 39.0768 148.4 38.8164C148.4 38.543 148.449 38.2988 148.547 38.084C148.651 37.8691 148.801 37.6836 148.996 37.5273C149.27 37.306 149.637 37.1432 150.1 37.0391C150.568 36.9284 151.115 36.873 151.74 36.873H153.42V39.0117C153.316 39.2201 153.173 39.4219 152.99 39.6172C152.808 39.806 152.593 39.9753 152.346 40.125C152.092 40.2747 151.812 40.3952 151.506 40.4863C151.2 40.5775 150.871 40.623 150.52 40.623ZM168.283 32.8984V31.4336H158.098V32.8984H162.248V42H164.064V32.8984H168.283ZM172.512 35.4375V31.4336H170.705V42H175.744C176.376 42 176.939 41.9154 177.434 41.7461C177.928 41.5768 178.345 41.3424 178.684 41.043C179.022 40.75 179.279 40.4017 179.455 39.998C179.631 39.5879 179.719 39.1484 179.719 38.6797C179.719 38.2044 179.628 37.7682 179.445 37.3711C179.27 36.974 179.012 36.6322 178.674 36.3457C178.335 36.0592 177.919 35.8379 177.424 35.6816C176.936 35.5189 176.376 35.4375 175.744 35.4375H172.512ZM172.512 36.9121H175.744C176.122 36.9121 176.444 36.9674 176.711 37.0781C176.984 37.1823 177.209 37.319 177.385 37.4883C177.561 37.6641 177.691 37.8626 177.775 38.084C177.86 38.2988 177.902 38.5202 177.902 38.748C177.902 38.9824 177.86 39.207 177.775 39.4219C177.697 39.6367 177.57 39.8255 177.395 39.9883C177.219 40.151 176.994 40.2812 176.721 40.3789C176.447 40.4766 176.122 40.5254 175.744 40.5254H172.512V36.9121ZM187.307 40.7305C186.74 40.7305 186.265 40.6198 185.881 40.3984C185.503 40.1706 185.201 39.8743 184.973 39.5098C184.738 39.1517 184.569 38.748 184.465 38.2988C184.367 37.8431 184.318 37.3841 184.318 36.9219V36.5117C184.318 36.056 184.367 35.6035 184.465 35.1543C184.569 34.7051 184.738 34.2982 184.973 33.9336C185.207 33.5755 185.513 33.2858 185.891 33.0645C186.275 32.8366 186.747 32.7227 187.307 32.7227C187.671 32.7227 188.01 32.7845 188.322 32.9082C188.641 33.0319 188.915 33.2012 189.143 33.416C189.37 33.6309 189.549 33.8815 189.68 34.168C189.816 34.4479 189.888 34.7474 189.895 35.0664H191.604C191.604 34.5326 191.496 34.0312 191.281 33.5625C191.066 33.0938 190.77 32.6868 190.393 32.3418C190.008 32.0033 189.553 31.7363 189.025 31.541C188.505 31.3392 187.932 31.2383 187.307 31.2383C186.506 31.2383 185.806 31.3815 185.207 31.668C184.608 31.9544 184.11 32.3385 183.713 32.8203C183.309 33.3086 183.007 33.8717 182.805 34.5098C182.603 35.1478 182.502 35.8151 182.502 36.5117V36.9219C182.502 37.625 182.603 38.2956 182.805 38.9336C183.007 39.5651 183.309 40.1217 183.713 40.6035C184.11 41.0918 184.608 41.4792 185.207 41.7656C185.806 42.0521 186.506 42.1953 187.307 42.1953C187.867 42.1953 188.404 42.1009 188.918 41.9121C189.432 41.7168 189.888 41.4564 190.285 41.1309C190.682 40.8118 190.998 40.4408 191.232 40.0176C191.473 39.5879 191.597 39.1387 191.604 38.6699H189.895C189.888 38.9629 189.81 39.2363 189.66 39.4902C189.517 39.7376 189.325 39.9525 189.084 40.1348C188.843 40.3236 188.566 40.4701 188.254 40.5742C187.948 40.6784 187.632 40.7305 187.307 40.7305ZM203.439 31.4336H198.479C197.854 31.4336 197.29 31.515 196.789 31.6777C196.288 31.8405 195.865 32.0618 195.52 32.3418C195.174 32.6283 194.908 32.9701 194.719 33.3672C194.536 33.7578 194.445 34.1875 194.445 34.6562C194.445 35.3464 194.628 35.9518 194.992 36.4727C195.357 36.987 195.878 37.3678 196.555 37.6152L193.889 42H195.842L198.352 37.8887H201.633V42H203.439V31.4336ZM196.262 34.6758C196.262 34.4479 196.307 34.2298 196.398 34.0215C196.49 33.8066 196.626 33.6146 196.809 33.4453C196.991 33.2826 197.222 33.1523 197.502 33.0547C197.782 32.9505 198.107 32.8984 198.479 32.8984H201.633V36.4043H198.254C197.909 36.4043 197.613 36.3555 197.365 36.2578C197.118 36.1602 196.913 36.0299 196.75 35.8672C196.581 35.7109 196.457 35.5286 196.379 35.3203C196.301 35.112 196.262 34.8971 196.262 34.6758Z" fill="#396857"/>
</svg>
