<svg width="250" height="68" viewBox="0 0 250 68" fill="none" xmlns="http://www.w3.org/2000/svg">
<rect x="1" y="1" width="248" height="66" rx="24" stroke="#396857" stroke-width="2"/>
<path d="M83.9473 35.7109V34.0898C83.9408 33.582 83.8952 33.0677 83.8105 32.5469C83.7324 32.026 83.6087 31.5247 83.4395 31.043C83.2637 30.5612 83.0423 30.112 82.7754 29.6953C82.515 29.2721 82.2025 28.9043 81.8379 28.5918C81.4733 28.2793 81.0534 28.0352 80.5781 27.8594C80.1029 27.6771 79.5723 27.5859 78.9863 27.5859C78.4004 27.5859 77.8698 27.6771 77.3945 27.8594C76.9258 28.0352 76.5091 28.2793 76.1445 28.5918C75.7799 28.9108 75.4642 29.2819 75.1973 29.7051C74.9368 30.1217 74.722 30.571 74.5527 31.0527C74.377 31.5345 74.2467 32.0358 74.1621 32.5566C74.084 33.071 74.0417 33.582 74.0352 34.0898V35.7109C74.0417 36.2188 74.0872 36.7298 74.1719 37.2441C74.2565 37.7585 74.3867 38.2565 74.5625 38.7383C74.7318 39.2201 74.9499 39.6725 75.2168 40.0957C75.4837 40.5124 75.7995 40.877 76.1641 41.1895C76.5286 41.502 76.9453 41.7493 77.4141 41.9316C77.8893 42.1074 78.4199 42.1953 79.0059 42.1953C79.5918 42.1953 80.1191 42.1074 80.5879 41.9316C81.0632 41.7493 81.4831 41.502 81.8477 41.1895C82.2122 40.877 82.5247 40.5124 82.7852 40.0957C83.0521 39.679 83.2702 39.2298 83.4395 38.748C83.6087 38.2663 83.7324 37.7682 83.8105 37.2539C83.8952 36.7331 83.9408 36.2188 83.9473 35.7109ZM82.1602 34.0703V35.7109C82.1536 36.0495 82.1309 36.4043 82.0918 36.7754C82.0592 37.1465 81.9974 37.5111 81.9062 37.8691C81.8086 38.2337 81.6816 38.582 81.5254 38.9141C81.3757 39.2396 81.1868 39.526 80.959 39.7734C80.7246 40.0273 80.4447 40.2292 80.1191 40.3789C79.8001 40.5286 79.429 40.6035 79.0059 40.6035C78.5827 40.6035 78.2116 40.5286 77.8926 40.3789C77.5736 40.2292 77.2969 40.0273 77.0625 39.7734C76.8281 39.526 76.6328 39.2363 76.4766 38.9043C76.3203 38.5723 76.1934 38.224 76.0957 37.8594C75.998 37.5013 75.9264 37.1367 75.8809 36.7656C75.8418 36.3945 75.819 36.043 75.8125 35.7109V34.0703C75.819 33.7383 75.8418 33.39 75.8809 33.0254C75.9264 32.6543 75.998 32.2865 76.0957 31.9219C76.1868 31.5638 76.3105 31.222 76.4668 30.8965C76.623 30.5645 76.8184 30.2715 77.0527 30.0176C77.2871 29.7702 77.5638 29.5716 77.8828 29.4219C78.2018 29.2721 78.5697 29.1973 78.9863 29.1973C79.4095 29.1973 79.7806 29.2721 80.0996 29.4219C80.4186 29.5651 80.6953 29.7604 80.9297 30.0078C81.1641 30.2617 81.3594 30.5547 81.5156 30.8867C81.6719 31.2122 81.7988 31.554 81.8965 31.9121C81.9876 32.2767 82.0527 32.6445 82.0918 33.0156C82.1309 33.3802 82.1536 33.7318 82.1602 34.0703ZM96.2129 32.8984V31.4336H86.0273V32.8984H90.1777V42H91.9941V32.8984H96.2129ZM107.404 42V31.4336H98.6348V42H100.441V32.9277H105.598V42H107.404ZM117.609 31.4336L112.443 39.2363V31.4336H110.646V42H112.443L117.609 34.207V42H119.416V31.4336H117.609ZM127.248 40.7305C126.682 40.7305 126.206 40.6198 125.822 40.3984C125.445 40.1706 125.142 39.8743 124.914 39.5098C124.68 39.1517 124.51 38.748 124.406 38.2988C124.309 37.8431 124.26 37.3841 124.26 36.9219V36.5117C124.26 36.056 124.309 35.6035 124.406 35.1543C124.51 34.7051 124.68 34.2982 124.914 33.9336C125.148 33.5755 125.454 33.2858 125.832 33.0645C126.216 32.8366 126.688 32.7227 127.248 32.7227C127.613 32.7227 127.951 32.7845 128.264 32.9082C128.583 33.0319 128.856 33.2012 129.084 33.416C129.312 33.6309 129.491 33.8815 129.621 34.168C129.758 34.4479 129.829 34.7474 129.836 35.0664H131.545C131.545 34.5326 131.438 34.0312 131.223 33.5625C131.008 33.0938 130.712 32.6868 130.334 32.3418C129.95 32.0033 129.494 31.7363 128.967 31.541C128.446 31.3392 127.873 31.2383 127.248 31.2383C126.447 31.2383 125.747 31.3815 125.148 31.668C124.549 31.9544 124.051 32.3385 123.654 32.8203C123.251 33.3086 122.948 33.8717 122.746 34.5098C122.544 35.1478 122.443 35.8151 122.443 36.5117V36.9219C122.443 37.625 122.544 38.2956 122.746 38.9336C122.948 39.5651 123.251 40.1217 123.654 40.6035C124.051 41.0918 124.549 41.4792 125.148 41.7656C125.747 42.0521 126.447 42.1953 127.248 42.1953C127.808 42.1953 128.345 42.1009 128.859 41.9121C129.374 41.7168 129.829 41.4564 130.227 41.1309C130.624 40.8118 130.939 40.4408 131.174 40.0176C131.415 39.5879 131.538 39.1387 131.545 38.6699H129.836C129.829 38.9629 129.751 39.2363 129.602 39.4902C129.458 39.7376 129.266 39.9525 129.025 40.1348C128.785 40.3236 128.508 40.4701 128.195 40.5742C127.889 40.6784 127.574 40.7305 127.248 40.7305ZM141.701 42H143.586V41.8438C143.469 41.5508 143.378 41.209 143.312 40.8184C143.247 40.4212 143.215 40.0469 143.215 39.6953V34.7832C143.215 34.1908 143.107 33.6732 142.893 33.2305C142.678 32.7878 142.385 32.4167 142.014 32.1172C141.636 31.8242 141.19 31.6061 140.676 31.4629C140.161 31.3132 139.605 31.2383 139.006 31.2383C138.348 31.2383 137.759 31.3294 137.238 31.5117C136.724 31.694 136.288 31.9316 135.93 32.2246C135.565 32.5241 135.285 32.8594 135.09 33.2305C134.901 33.6016 134.803 33.9792 134.797 34.3633H136.613C136.613 34.1419 136.665 33.9303 136.77 33.7285C136.88 33.5202 137.033 33.3411 137.229 33.1914C137.424 33.0417 137.661 32.9212 137.941 32.8301C138.228 32.7389 138.55 32.6934 138.908 32.6934C139.292 32.6934 139.637 32.7422 139.943 32.8398C140.256 32.9375 140.52 33.0742 140.734 33.25C140.949 33.4323 141.115 33.6504 141.232 33.9043C141.35 34.1582 141.408 34.4447 141.408 34.7637V35.5938H139.436C138.7 35.5938 138.033 35.6654 137.434 35.8086C136.841 35.9518 136.333 36.1667 135.91 36.4531C135.487 36.7461 135.158 37.1107 134.924 37.5469C134.696 37.9831 134.582 38.4909 134.582 39.0703C134.582 39.513 134.667 39.9264 134.836 40.3105C135.012 40.6882 135.259 41.0137 135.578 41.2871C135.891 41.5671 136.271 41.7884 136.721 41.9512C137.176 42.1139 137.684 42.1953 138.244 42.1953C138.589 42.1953 138.915 42.1595 139.221 42.0879C139.527 42.0163 139.816 41.9186 140.09 41.7949C140.357 41.6712 140.601 41.528 140.822 41.3652C141.05 41.2025 141.255 41.0299 141.438 40.8477C141.457 41.069 141.486 41.2839 141.525 41.4922C141.571 41.694 141.63 41.8633 141.701 42ZM138.508 40.623C138.156 40.623 137.847 40.5775 137.58 40.4863C137.313 40.3952 137.092 40.2682 136.916 40.1055C136.74 39.9492 136.607 39.7604 136.516 39.5391C136.431 39.3177 136.389 39.0768 136.389 38.8164C136.389 38.543 136.438 38.2988 136.535 38.084C136.639 37.8691 136.789 37.6836 136.984 37.5273C137.258 37.306 137.626 37.1432 138.088 37.0391C138.557 36.9284 139.104 36.873 139.729 36.873H141.408V39.0117C141.304 39.2201 141.161 39.4219 140.979 39.6172C140.796 39.806 140.581 39.9753 140.334 40.125C140.08 40.2747 139.8 40.3952 139.494 40.4863C139.188 40.5775 138.859 40.623 138.508 40.623ZM156.271 32.8984V31.4336H146.086V32.8984H150.236V42H152.053V32.8984H156.271ZM160.5 35.4375V31.4336H158.693V42H163.732C164.364 42 164.927 41.9154 165.422 41.7461C165.917 41.5768 166.333 41.3424 166.672 41.043C167.01 40.75 167.268 40.4017 167.443 39.998C167.619 39.5879 167.707 39.1484 167.707 38.6797C167.707 38.2044 167.616 37.7682 167.434 37.3711C167.258 36.974 167.001 36.6322 166.662 36.3457C166.324 36.0592 165.907 35.8379 165.412 35.6816C164.924 35.5189 164.364 35.4375 163.732 35.4375H160.5ZM160.5 36.9121H163.732C164.11 36.9121 164.432 36.9674 164.699 37.0781C164.973 37.1823 165.197 37.319 165.373 37.4883C165.549 37.6641 165.679 37.8626 165.764 38.084C165.848 38.2988 165.891 38.5202 165.891 38.748C165.891 38.9824 165.848 39.207 165.764 39.4219C165.686 39.6367 165.559 39.8255 165.383 39.9883C165.207 40.151 164.982 40.2812 164.709 40.3789C164.436 40.4766 164.11 40.5254 163.732 40.5254H160.5V36.9121ZM175.295 40.7305C174.729 40.7305 174.253 40.6198 173.869 40.3984C173.492 40.1706 173.189 39.8743 172.961 39.5098C172.727 39.1517 172.557 38.748 172.453 38.2988C172.355 37.8431 172.307 37.3841 172.307 36.9219V36.5117C172.307 36.056 172.355 35.6035 172.453 35.1543C172.557 34.7051 172.727 34.2982 172.961 33.9336C173.195 33.5755 173.501 33.2858 173.879 33.0645C174.263 32.8366 174.735 32.7227 175.295 32.7227C175.66 32.7227 175.998 32.7845 176.311 32.9082C176.63 33.0319 176.903 33.2012 177.131 33.416C177.359 33.6309 177.538 33.8815 177.668 34.168C177.805 34.4479 177.876 34.7474 177.883 35.0664H179.592C179.592 34.5326 179.484 34.0312 179.27 33.5625C179.055 33.0938 178.758 32.6868 178.381 32.3418C177.997 32.0033 177.541 31.7363 177.014 31.541C176.493 31.3392 175.92 31.2383 175.295 31.2383C174.494 31.2383 173.794 31.3815 173.195 31.668C172.596 31.9544 172.098 32.3385 171.701 32.8203C171.298 33.3086 170.995 33.8717 170.793 34.5098C170.591 35.1478 170.49 35.8151 170.49 36.5117V36.9219C170.49 37.625 170.591 38.2956 170.793 38.9336C170.995 39.5651 171.298 40.1217 171.701 40.6035C172.098 41.0918 172.596 41.4792 173.195 41.7656C173.794 42.0521 174.494 42.1953 175.295 42.1953C175.855 42.1953 176.392 42.1009 176.906 41.9121C177.421 41.7168 177.876 41.4564 178.273 41.1309C178.671 40.8118 178.986 40.4408 179.221 40.0176C179.462 39.5879 179.585 39.1387 179.592 38.6699H177.883C177.876 38.9629 177.798 39.2363 177.648 39.4902C177.505 39.7376 177.313 39.9525 177.072 40.1348C176.831 40.3236 176.555 40.4701 176.242 40.5742C175.936 40.6784 175.62 40.7305 175.295 40.7305ZM191.428 31.4336H186.467C185.842 31.4336 185.279 31.515 184.777 31.6777C184.276 31.8405 183.853 32.0618 183.508 32.3418C183.163 32.6283 182.896 32.9701 182.707 33.3672C182.525 33.7578 182.434 34.1875 182.434 34.6562C182.434 35.3464 182.616 35.9518 182.98 36.4727C183.345 36.987 183.866 37.3678 184.543 37.6152L181.877 42H183.83L186.34 37.8887H189.621V42H191.428V31.4336ZM184.25 34.6758C184.25 34.4479 184.296 34.2298 184.387 34.0215C184.478 33.8066 184.615 33.6146 184.797 33.4453C184.979 33.2826 185.21 33.1523 185.49 33.0547C185.77 32.9505 186.096 32.8984 186.467 32.8984H189.621V36.4043H186.242C185.897 36.4043 185.601 36.3555 185.354 36.2578C185.106 36.1602 184.901 36.0299 184.738 35.8672C184.569 35.7109 184.445 35.5286 184.367 35.3203C184.289 35.112 184.25 34.8971 184.25 34.6758Z" fill="#396857"/>
</svg>
