<svg width="650" height="68" viewBox="0 0 650 68" fill="none" xmlns="http://www.w3.org/2000/svg">
<rect x="1" y="1" width="648" height="66" rx="24" fill="#FFF9C7" stroke="#396857" stroke-width="2"/>
<path d="M108.094 35.8379V33.9629C108.094 33.3704 108.042 32.8008 107.938 32.2539C107.833 31.7005 107.677 31.1829 107.469 30.7012C107.28 30.252 107.046 29.8385 106.766 29.4609C106.486 29.0833 106.157 28.7546 105.779 28.4746C105.402 28.1947 104.975 27.9766 104.5 27.8203C104.025 27.6641 103.504 27.5859 102.938 27.5859C102.378 27.5859 101.863 27.6641 101.395 27.8203C100.932 27.9701 100.519 28.1849 100.154 28.4648C99.7767 28.7513 99.4479 29.0898 99.168 29.4805C98.8945 29.8646 98.6634 30.2878 98.4746 30.75C98.2793 31.2318 98.1328 31.7428 98.0352 32.2832C97.9375 32.8236 97.8887 33.3835 97.8887 33.9629V35.8379C97.8887 36.3913 97.9342 36.9316 98.0254 37.459C98.1165 37.9798 98.2533 38.4714 98.4355 38.9336C98.6243 39.4154 98.8587 39.8581 99.1387 40.2617C99.4251 40.6654 99.7572 41.0104 100.135 41.2969C100.506 41.5768 100.926 41.7982 101.395 41.9609C101.87 42.1172 102.391 42.1953 102.957 42.1953C103.504 42.1953 104.005 42.1204 104.461 41.9707C104.923 41.821 105.343 41.6159 105.721 41.3555C106.111 41.069 106.456 40.7272 106.756 40.3301C107.055 39.9264 107.306 39.487 107.508 39.0117C107.697 38.5365 107.84 38.0319 107.938 37.498C108.042 36.9642 108.094 36.4108 108.094 35.8379ZM105.73 33.9434V35.8379C105.724 36.1895 105.701 36.5378 105.662 36.8828C105.63 37.2214 105.574 37.5469 105.496 37.8594C105.405 38.2174 105.281 38.5462 105.125 38.8457C104.975 39.1387 104.786 39.3926 104.559 39.6074C104.363 39.7962 104.129 39.946 103.855 40.0566C103.589 40.1673 103.289 40.2227 102.957 40.2227C102.612 40.2227 102.306 40.1673 102.039 40.0566C101.779 39.9395 101.548 39.7832 101.346 39.5879C101.137 39.3796 100.958 39.1257 100.809 38.8262C100.665 38.5202 100.551 38.1914 100.467 37.8398C100.389 37.5273 100.333 37.2018 100.301 36.8633C100.268 36.5247 100.252 36.1829 100.252 35.8379V33.9434C100.252 33.5918 100.268 33.2435 100.301 32.8984C100.34 32.5469 100.398 32.2148 100.477 31.9023C100.561 31.5378 100.682 31.209 100.838 30.916C100.994 30.6165 101.186 30.3594 101.414 30.1445C101.603 29.9688 101.824 29.832 102.078 29.7344C102.332 29.6302 102.618 29.5781 102.938 29.5781C103.27 29.5781 103.566 29.6302 103.826 29.7344C104.087 29.8385 104.318 29.9818 104.52 30.1641C104.747 30.3724 104.939 30.6263 105.096 30.9258C105.258 31.2188 105.389 31.5443 105.486 31.9023C105.571 32.2148 105.63 32.5436 105.662 32.8887C105.701 33.2337 105.724 33.5853 105.73 33.9434ZM115.125 40.3203C114.637 40.3203 114.23 40.2227 113.904 40.0273C113.579 39.832 113.322 39.5716 113.133 39.2461C112.938 38.9336 112.798 38.5723 112.713 38.1621C112.635 37.7454 112.596 37.3223 112.596 36.8926V36.5508C112.596 36.1276 112.635 35.7109 112.713 35.3008C112.798 34.8906 112.941 34.526 113.143 34.207C113.331 33.888 113.585 33.6309 113.904 33.4355C114.23 33.2337 114.637 33.1328 115.125 33.1328C115.444 33.1328 115.74 33.1882 116.014 33.2988C116.294 33.4095 116.535 33.5592 116.736 33.748C116.932 33.9368 117.081 34.1582 117.186 34.4121C117.296 34.666 117.352 34.9362 117.352 35.2227H119.549C119.555 34.6367 119.448 34.0996 119.227 33.6113C119.012 33.123 118.709 32.7031 118.318 32.3516C117.928 32 117.459 31.7266 116.912 31.5312C116.372 31.3359 115.783 31.2383 115.145 31.2383C114.337 31.2383 113.628 31.3815 113.016 31.668C112.41 31.9479 111.902 32.3288 111.492 32.8105C111.082 33.2923 110.773 33.8555 110.564 34.5C110.363 35.1445 110.262 35.8281 110.262 36.5508V36.8926C110.262 37.6217 110.366 38.3086 110.574 38.9531C110.783 39.5911 111.092 40.151 111.502 40.6328C111.906 41.1146 112.41 41.4987 113.016 41.7852C113.628 42.0651 114.34 42.2051 115.154 42.2051C115.74 42.2051 116.297 42.1107 116.824 41.9219C117.358 41.7266 117.83 41.4596 118.24 41.1211C118.644 40.7956 118.963 40.4082 119.197 39.959C119.438 39.5033 119.555 39.0182 119.549 38.5039H117.352C117.352 38.7708 117.29 39.015 117.166 39.2363C117.049 39.4577 116.889 39.6497 116.688 39.8125C116.479 39.9753 116.238 40.1022 115.965 40.1934C115.698 40.278 115.418 40.3203 115.125 40.3203ZM132.537 33.3086V31.4336H121.98V33.3086H126.062V42H128.406V33.3086H132.537ZM141.297 42H143.68V41.834C143.549 41.5605 143.449 41.235 143.377 40.8574C143.312 40.4733 143.279 40.0436 143.279 39.5684V34.8711C143.279 34.2721 143.169 33.7448 142.947 33.2891C142.726 32.8268 142.42 32.446 142.029 32.1465C141.639 31.847 141.173 31.6224 140.633 31.4727C140.099 31.3164 139.523 31.2383 138.904 31.2383C138.214 31.2383 137.599 31.3294 137.059 31.5117C136.525 31.6875 136.076 31.9284 135.711 32.2344C135.333 32.5339 135.047 32.8789 134.852 33.2695C134.656 33.6602 134.555 34.0671 134.549 34.4902H136.893C136.893 34.2884 136.928 34.0996 137 33.9238C137.078 33.7415 137.195 33.5885 137.352 33.4648C137.508 33.3281 137.703 33.2207 137.938 33.1426C138.178 33.0645 138.458 33.0254 138.777 33.0254C139.129 33.0254 139.438 33.071 139.705 33.1621C139.979 33.2467 140.21 33.3704 140.398 33.5332C140.574 33.696 140.708 33.888 140.799 34.1094C140.896 34.3307 140.945 34.5781 140.945 34.8516V35.5645H139.246C138.484 35.5645 137.801 35.6361 137.195 35.7793C136.596 35.9225 136.092 36.1309 135.682 36.4043C135.239 36.6973 134.9 37.0684 134.666 37.5176C134.438 37.9603 134.324 38.4714 134.324 39.0508C134.324 39.5 134.412 39.9199 134.588 40.3105C134.77 40.6947 135.024 41.0234 135.35 41.2969C135.669 41.5768 136.053 41.7982 136.502 41.9609C136.958 42.1172 137.459 42.1953 138.006 42.1953C138.344 42.1953 138.66 42.1628 138.953 42.0977C139.246 42.0326 139.52 41.9414 139.773 41.8242C140.027 41.7135 140.255 41.5833 140.457 41.4336C140.665 41.2773 140.851 41.1146 141.014 40.9453C141.046 41.1471 141.082 41.3424 141.121 41.5312C141.167 41.7135 141.225 41.8698 141.297 42ZM138.455 40.3203C138.156 40.3203 137.895 40.2845 137.674 40.2129C137.452 40.1348 137.267 40.0306 137.117 39.9004C136.967 39.7702 136.854 39.6139 136.775 39.4316C136.697 39.2428 136.658 39.041 136.658 38.8262C136.658 38.5658 136.704 38.3314 136.795 38.123C136.893 37.9147 137.039 37.7357 137.234 37.5859C137.456 37.4102 137.752 37.2767 138.123 37.1855C138.494 37.0879 138.934 37.0391 139.441 37.0391H140.945V38.9922C140.861 39.1615 140.74 39.3242 140.584 39.4805C140.428 39.6367 140.242 39.7767 140.027 39.9004C139.812 40.0241 139.572 40.125 139.305 40.2031C139.044 40.2812 138.761 40.3203 138.455 40.3203ZM146.502 42H151.463C152.12 42 152.706 41.9382 153.221 41.8145C153.742 41.6842 154.181 41.4922 154.539 41.2383C154.897 40.9909 155.171 40.6816 155.359 40.3105C155.555 39.9329 155.652 39.4935 155.652 38.9922C155.652 38.7057 155.604 38.4355 155.506 38.1816C155.415 37.9277 155.275 37.6934 155.086 37.4785C154.897 37.2767 154.669 37.1009 154.402 36.9512C154.142 36.7949 153.836 36.6745 153.484 36.5898L153.387 36.5703C153.621 36.4857 153.836 36.388 154.031 36.2773C154.227 36.1602 154.396 36.0332 154.539 35.8965C154.754 35.6882 154.917 35.4538 155.027 35.1934C155.138 34.9329 155.193 34.6562 155.193 34.3633C155.193 33.862 155.089 33.429 154.881 33.0645C154.679 32.6934 154.386 32.3874 154.002 32.1465C153.618 31.9121 153.152 31.7363 152.605 31.6191C152.065 31.4954 151.46 31.4336 150.789 31.4336H146.502V42ZM148.836 37.498H151.463C151.788 37.498 152.068 37.5306 152.303 37.5957C152.544 37.6608 152.739 37.752 152.889 37.8691C153.032 37.9798 153.139 38.1165 153.211 38.2793C153.283 38.4355 153.318 38.6146 153.318 38.8164C153.318 39.0247 153.283 39.2103 153.211 39.373C153.139 39.5358 153.032 39.6725 152.889 39.7832C152.739 39.8939 152.544 39.9818 152.303 40.0469C152.068 40.1055 151.788 40.1348 151.463 40.1348H148.836V37.498ZM148.836 35.8184V33.3086H150.789C151.141 33.3086 151.45 33.3379 151.717 33.3965C151.984 33.4486 152.199 33.5299 152.361 33.6406C152.531 33.7513 152.654 33.888 152.732 34.0508C152.817 34.207 152.859 34.3926 152.859 34.6074C152.859 34.7897 152.827 34.9492 152.762 35.0859C152.697 35.2227 152.599 35.3398 152.469 35.4375C152.306 35.5677 152.091 35.6654 151.824 35.7305C151.557 35.7891 151.242 35.8184 150.877 35.8184H148.836ZM165.223 31.4336L160.75 38.6211V31.4336H158.416V42H160.75L165.223 34.8223V42H167.557V31.4336H165.223ZM180.584 33.3086V31.4336H170.027V33.3086H174.109V42H176.453V33.3086H180.584ZM184.871 35.1738V31.4336H182.537V42H187.781C188.458 42 189.061 41.9154 189.588 41.7461C190.122 41.5703 190.571 41.3294 190.936 41.0234C191.3 40.724 191.577 40.3659 191.766 39.9492C191.954 39.526 192.049 39.0703 192.049 38.582C192.049 38.0807 191.954 37.6217 191.766 37.2051C191.577 36.7884 191.3 36.4271 190.936 36.1211C190.571 35.8216 190.122 35.5905 189.588 35.4277C189.061 35.2585 188.458 35.1738 187.781 35.1738H184.871ZM184.871 37.0586H187.781C188.12 37.0586 188.41 37.1042 188.65 37.1953C188.898 37.2799 189.1 37.3906 189.256 37.5273C189.412 37.6771 189.526 37.8464 189.598 38.0352C189.676 38.224 189.715 38.4193 189.715 38.6211C189.715 38.8164 189.679 39.0052 189.607 39.1875C189.536 39.3698 189.422 39.5293 189.266 39.666C189.109 39.8027 188.908 39.9134 188.66 39.998C188.413 40.0827 188.12 40.125 187.781 40.125H184.871V37.0586ZM206.307 38.875C206.307 39.4349 206.437 39.9199 206.697 40.3301C206.964 40.7402 207.312 41.0755 207.742 41.3359C208.191 41.6289 208.712 41.847 209.305 41.9902C209.897 42.127 210.499 42.1953 211.111 42.1953C211.801 42.1953 212.439 42.1237 213.025 41.9805C213.618 41.8372 214.129 41.6289 214.559 41.3555C214.988 41.0885 215.327 40.7598 215.574 40.3691C215.822 39.972 215.945 39.5228 215.945 39.0215C215.945 38.6699 215.883 38.3509 215.76 38.0645C215.636 37.778 215.46 37.5273 215.232 37.3125C215.057 37.1497 214.855 37.0065 214.627 36.8828C214.399 36.7591 214.142 36.6517 213.855 36.5605C214.077 36.4759 214.282 36.3783 214.471 36.2676C214.66 36.1569 214.826 36.0365 214.969 35.9062C215.216 35.6914 215.408 35.4505 215.545 35.1836C215.682 34.9102 215.75 34.6237 215.75 34.3242C215.75 33.8164 215.636 33.3737 215.408 32.9961C215.187 32.612 214.874 32.2897 214.471 32.0293C214.061 31.7754 213.569 31.5833 212.996 31.4531C212.423 31.3164 211.795 31.248 211.111 31.248C210.48 31.248 209.881 31.3229 209.314 31.4727C208.755 31.6159 208.266 31.821 207.85 32.0879C207.426 32.3678 207.091 32.7064 206.844 33.1035C206.596 33.4941 206.473 33.9368 206.473 34.4316H208.797C208.797 34.2233 208.859 34.0345 208.982 33.8652C209.106 33.696 209.279 33.5527 209.5 33.4355C209.715 33.3184 209.965 33.2272 210.252 33.1621C210.538 33.0905 210.848 33.0547 211.18 33.0547C211.557 33.0547 211.886 33.0938 212.166 33.1719C212.452 33.25 212.69 33.3509 212.879 33.4746C213.055 33.6048 213.188 33.7546 213.279 33.9238C213.37 34.0931 213.416 34.2656 213.416 34.4414C213.416 34.6237 213.38 34.7897 213.309 34.9395C213.237 35.0892 213.133 35.2194 212.996 35.3301C212.892 35.4082 212.768 35.4766 212.625 35.5352C212.488 35.5938 212.332 35.6426 212.156 35.6816C212.026 35.7077 211.883 35.7272 211.727 35.7402C211.57 35.7533 211.404 35.7598 211.229 35.7598H209.08V37.4492H211.229C211.411 37.4492 211.583 37.4557 211.746 37.4688C211.915 37.4818 212.075 37.5013 212.225 37.5273C212.413 37.5664 212.583 37.6185 212.732 37.6836C212.889 37.7422 213.022 37.8171 213.133 37.9082C213.283 38.0189 213.396 38.1589 213.475 38.3281C213.559 38.4974 213.602 38.6927 213.602 38.9141C213.602 39.1159 213.546 39.3079 213.436 39.4902C213.331 39.666 213.178 39.8223 212.977 39.959C212.768 40.0957 212.511 40.2064 212.205 40.291C211.906 40.3691 211.564 40.4082 211.18 40.4082C210.796 40.4082 210.447 40.3659 210.135 40.2812C209.822 40.1966 209.555 40.0827 209.334 39.9395C209.106 39.8027 208.93 39.6432 208.807 39.4609C208.689 39.2721 208.631 39.0768 208.631 38.875H206.307ZM225.379 42H227.762V41.834C227.632 41.5605 227.531 41.235 227.459 40.8574C227.394 40.4733 227.361 40.0436 227.361 39.5684V34.8711C227.361 34.2721 227.251 33.7448 227.029 33.2891C226.808 32.8268 226.502 32.446 226.111 32.1465C225.721 31.847 225.255 31.6224 224.715 31.4727C224.181 31.3164 223.605 31.2383 222.986 31.2383C222.296 31.2383 221.681 31.3294 221.141 31.5117C220.607 31.6875 220.158 31.9284 219.793 32.2344C219.415 32.5339 219.129 32.8789 218.934 33.2695C218.738 33.6602 218.637 34.0671 218.631 34.4902H220.975C220.975 34.2884 221.01 34.0996 221.082 33.9238C221.16 33.7415 221.277 33.5885 221.434 33.4648C221.59 33.3281 221.785 33.2207 222.02 33.1426C222.26 33.0645 222.54 33.0254 222.859 33.0254C223.211 33.0254 223.52 33.071 223.787 33.1621C224.061 33.2467 224.292 33.3704 224.48 33.5332C224.656 33.696 224.79 33.888 224.881 34.1094C224.979 34.3307 225.027 34.5781 225.027 34.8516V35.5645H223.328C222.566 35.5645 221.883 35.6361 221.277 35.7793C220.678 35.9225 220.174 36.1309 219.764 36.4043C219.321 36.6973 218.982 37.0684 218.748 37.5176C218.52 37.9603 218.406 38.4714 218.406 39.0508C218.406 39.5 218.494 39.9199 218.67 40.3105C218.852 40.6947 219.106 41.0234 219.432 41.2969C219.751 41.5768 220.135 41.7982 220.584 41.9609C221.04 42.1172 221.541 42.1953 222.088 42.1953C222.426 42.1953 222.742 42.1628 223.035 42.0977C223.328 42.0326 223.602 41.9414 223.855 41.8242C224.109 41.7135 224.337 41.5833 224.539 41.4336C224.747 41.2773 224.933 41.1146 225.096 40.9453C225.128 41.1471 225.164 41.3424 225.203 41.5312C225.249 41.7135 225.307 41.8698 225.379 42ZM222.537 40.3203C222.238 40.3203 221.977 40.2845 221.756 40.2129C221.535 40.1348 221.349 40.0306 221.199 39.9004C221.049 39.7702 220.936 39.6139 220.857 39.4316C220.779 39.2428 220.74 39.041 220.74 38.8262C220.74 38.5658 220.786 38.3314 220.877 38.123C220.975 37.9147 221.121 37.7357 221.316 37.5859C221.538 37.4102 221.834 37.2767 222.205 37.1855C222.576 37.0879 223.016 37.0391 223.523 37.0391H225.027V38.9922C224.943 39.1615 224.822 39.3242 224.666 39.4805C224.51 39.6367 224.324 39.7767 224.109 39.9004C223.895 40.0241 223.654 40.125 223.387 40.2031C223.126 40.2812 222.843 40.3203 222.537 40.3203ZM239.725 31.4336H234.617C233.947 31.4336 233.348 31.5182 232.82 31.6875C232.293 31.8568 231.844 32.0911 231.473 32.3906C231.108 32.6966 230.825 33.0547 230.623 33.4648C230.428 33.875 230.33 34.3275 230.33 34.8223C230.33 35.4863 230.509 36.0755 230.867 36.5898C231.225 37.0977 231.727 37.4818 232.371 37.7422L229.891 42H232.322L234.588 38.123H237.391V42H239.725V31.4336ZM232.674 34.8711C232.674 34.6823 232.713 34.4967 232.791 34.3145C232.869 34.1257 232.99 33.9564 233.152 33.8066C233.309 33.6569 233.507 33.5365 233.748 33.4453C233.995 33.3542 234.285 33.3086 234.617 33.3086H237.391V36.3945H234.471C234.165 36.3945 233.898 36.3522 233.67 36.2676C233.449 36.1764 233.263 36.0592 233.113 35.916C232.964 35.7728 232.853 35.61 232.781 35.4277C232.71 35.2454 232.674 35.0599 232.674 34.8711ZM242.596 42H247.557C248.214 42 248.8 41.9382 249.314 41.8145C249.835 41.6842 250.275 41.4922 250.633 41.2383C250.991 40.9909 251.264 40.6816 251.453 40.3105C251.648 39.9329 251.746 39.4935 251.746 38.9922C251.746 38.7057 251.697 38.4355 251.6 38.1816C251.508 37.9277 251.368 37.6934 251.18 37.4785C250.991 37.2767 250.763 37.1009 250.496 36.9512C250.236 36.7949 249.93 36.6745 249.578 36.5898L249.48 36.5703C249.715 36.4857 249.93 36.388 250.125 36.2773C250.32 36.1602 250.49 36.0332 250.633 35.8965C250.848 35.6882 251.01 35.4538 251.121 35.1934C251.232 34.9329 251.287 34.6562 251.287 34.3633C251.287 33.862 251.183 33.429 250.975 33.0645C250.773 32.6934 250.48 32.3874 250.096 32.1465C249.712 31.9121 249.246 31.7363 248.699 31.6191C248.159 31.4954 247.553 31.4336 246.883 31.4336H242.596V42ZM244.93 37.498H247.557C247.882 37.498 248.162 37.5306 248.396 37.5957C248.637 37.6608 248.833 37.752 248.982 37.8691C249.126 37.9798 249.233 38.1165 249.305 38.2793C249.376 38.4355 249.412 38.6146 249.412 38.8164C249.412 39.0247 249.376 39.2103 249.305 39.373C249.233 39.5358 249.126 39.6725 248.982 39.7832C248.833 39.8939 248.637 39.9818 248.396 40.0469C248.162 40.1055 247.882 40.1348 247.557 40.1348H244.93V37.498ZM244.93 35.8184V33.3086H246.883C247.234 33.3086 247.544 33.3379 247.811 33.3965C248.077 33.4486 248.292 33.5299 248.455 33.6406C248.624 33.7513 248.748 33.888 248.826 34.0508C248.911 34.207 248.953 34.3926 248.953 34.6074C248.953 34.7897 248.921 34.9492 248.855 35.0859C248.79 35.2227 248.693 35.3398 248.562 35.4375C248.4 35.5677 248.185 35.6654 247.918 35.7305C247.651 35.7891 247.335 35.8184 246.971 35.8184H244.93ZM258.553 37.8105L261.873 42H264.92L260.438 36.5215L264.588 31.4336H261.688L258.387 35.6523H256.912V31.4336H254.578V42H256.912V37.8105H258.553ZM268.006 46.2676C268.52 46.2676 268.969 46.1764 269.354 45.9941C269.738 45.8184 270.07 45.597 270.35 45.3301C270.63 45.0697 270.861 44.7832 271.043 44.4707C271.232 44.1647 271.388 43.875 271.512 43.6016L276.873 31.4336H274.285L271.736 37.918L271.297 39.0508L270.936 37.8887L268.309 31.4336H265.74L270.242 41.5312L269.578 42.791C269.507 42.9342 269.428 43.071 269.344 43.2012C269.266 43.3314 269.161 43.4811 269.031 43.6504C268.895 43.8197 268.735 43.9694 268.553 44.0996C268.37 44.2363 268.165 44.3047 267.938 44.3047C267.833 44.3047 267.697 44.2982 267.527 44.2852C267.365 44.2786 267.218 44.2721 267.088 44.2656L266.766 46.0918C266.954 46.1374 267.15 46.1764 267.352 46.209C267.56 46.248 267.778 46.2676 268.006 46.2676ZM299.686 42V31.4336H297.342V35.8379H292.889V31.4336H290.545V42H292.889V37.7227H297.342V42H299.686ZM309.461 42H311.844V41.834C311.714 41.5605 311.613 41.235 311.541 40.8574C311.476 40.4733 311.443 40.0436 311.443 39.5684V34.8711C311.443 34.2721 311.333 33.7448 311.111 33.2891C310.89 32.8268 310.584 32.446 310.193 32.1465C309.803 31.847 309.337 31.6224 308.797 31.4727C308.263 31.3164 307.687 31.2383 307.068 31.2383C306.378 31.2383 305.763 31.3294 305.223 31.5117C304.689 31.6875 304.24 31.9284 303.875 32.2344C303.497 32.5339 303.211 32.8789 303.016 33.2695C302.82 33.6602 302.719 34.0671 302.713 34.4902H305.057C305.057 34.2884 305.092 34.0996 305.164 33.9238C305.242 33.7415 305.359 33.5885 305.516 33.4648C305.672 33.3281 305.867 33.2207 306.102 33.1426C306.342 33.0645 306.622 33.0254 306.941 33.0254C307.293 33.0254 307.602 33.071 307.869 33.1621C308.143 33.2467 308.374 33.3704 308.562 33.5332C308.738 33.696 308.872 33.888 308.963 34.1094C309.061 34.3307 309.109 34.5781 309.109 34.8516V35.5645H307.41C306.648 35.5645 305.965 35.6361 305.359 35.7793C304.76 35.9225 304.256 36.1309 303.846 36.4043C303.403 36.6973 303.064 37.0684 302.83 37.5176C302.602 37.9603 302.488 38.4714 302.488 39.0508C302.488 39.5 302.576 39.9199 302.752 40.3105C302.934 40.6947 303.188 41.0234 303.514 41.2969C303.833 41.5768 304.217 41.7982 304.666 41.9609C305.122 42.1172 305.623 42.1953 306.17 42.1953C306.508 42.1953 306.824 42.1628 307.117 42.0977C307.41 42.0326 307.684 41.9414 307.938 41.8242C308.191 41.7135 308.419 41.5833 308.621 41.4336C308.829 41.2773 309.015 41.1146 309.178 40.9453C309.21 41.1471 309.246 41.3424 309.285 41.5312C309.331 41.7135 309.389 41.8698 309.461 42ZM306.619 40.3203C306.32 40.3203 306.059 40.2845 305.838 40.2129C305.617 40.1348 305.431 40.0306 305.281 39.9004C305.132 39.7702 305.018 39.6139 304.939 39.4316C304.861 39.2428 304.822 39.041 304.822 38.8262C304.822 38.5658 304.868 38.3314 304.959 38.123C305.057 37.9147 305.203 37.7357 305.398 37.5859C305.62 37.4102 305.916 37.2767 306.287 37.1855C306.658 37.0879 307.098 37.0391 307.605 37.0391H309.109V38.9922C309.025 39.1615 308.904 39.3242 308.748 39.4805C308.592 39.6367 308.406 39.7767 308.191 39.9004C307.977 40.0241 307.736 40.125 307.469 40.2031C307.208 40.2812 306.925 40.3203 306.619 40.3203ZM331.697 32.0293C331.346 32.0293 331.01 32.0651 330.691 32.1367C330.372 32.2083 330.073 32.3092 329.793 32.4395C329.526 32.5697 329.272 32.7259 329.031 32.9082C328.797 33.084 328.576 33.2826 328.367 33.5039C328.458 32.9701 328.598 32.5111 328.787 32.127C328.982 31.7428 329.22 31.4206 329.5 31.1602C329.78 30.8932 330.096 30.6784 330.447 30.5156C330.805 30.3529 331.196 30.2259 331.619 30.1348C332.277 30.0046 332.814 29.8678 333.23 29.7246C333.654 29.5814 334.015 29.3926 334.314 29.1582C334.633 28.9108 334.871 28.6016 335.027 28.2305C335.184 27.8529 335.262 27.3809 335.262 26.8145H333.367C333.367 27.0358 333.318 27.2246 333.221 27.3809C333.123 27.5306 332.983 27.6576 332.801 27.7617C332.605 27.8659 332.371 27.9538 332.098 28.0254C331.831 28.097 331.521 28.1686 331.17 28.2402C330.447 28.39 329.793 28.6536 329.207 29.0312C328.621 29.4089 328.123 29.9199 327.713 30.5645C327.498 30.89 327.309 31.2513 327.146 31.6484C326.99 32.0456 326.857 32.4785 326.746 32.9473C326.635 33.403 326.551 33.8978 326.492 34.4316C326.434 34.9655 326.404 35.5352 326.404 36.1406V36.8926C326.404 37.6543 326.512 38.3607 326.727 39.0117C326.941 39.6562 327.257 40.2161 327.674 40.6914C328.09 41.1602 328.598 41.5312 329.197 41.8047C329.803 42.0716 330.493 42.2051 331.268 42.2051C332.036 42.2051 332.719 42.0781 333.318 41.8242C333.924 41.5638 334.432 41.2057 334.842 40.75C335.258 40.2943 335.574 39.7572 335.789 39.1387C336.004 38.5137 336.111 37.8366 336.111 37.1074V36.8926C336.111 36.196 336.01 35.5514 335.809 34.959C335.613 34.3665 335.327 33.8522 334.949 33.416C334.572 32.9863 334.109 32.6478 333.562 32.4004C333.022 32.153 332.4 32.0293 331.697 32.0293ZM331.248 33.9238C331.691 33.9238 332.072 34.0052 332.391 34.168C332.716 34.3242 332.98 34.5391 333.182 34.8125C333.383 35.0859 333.533 35.4017 333.631 35.7598C333.729 36.1178 333.777 36.4954 333.777 36.8926V37.1074C333.777 37.5436 333.729 37.957 333.631 38.3477C333.533 38.7383 333.383 39.0801 333.182 39.373C332.98 39.666 332.719 39.8971 332.4 40.0664C332.088 40.2357 331.71 40.3203 331.268 40.3203C330.818 40.3203 330.431 40.2357 330.105 40.0664C329.786 39.8971 329.529 39.666 329.334 39.373C329.126 39.0801 328.973 38.7383 328.875 38.3477C328.784 37.957 328.738 37.5436 328.738 37.1074V36.8926C328.738 36.4954 328.784 36.1178 328.875 35.7598C328.973 35.4017 329.126 35.0859 329.334 34.8125C329.529 34.5391 329.786 34.3242 330.105 34.168C330.424 34.0052 330.805 33.9238 331.248 33.9238ZM343.68 42.1953C344.708 42.1953 345.584 41.9935 346.307 41.5898C347.036 41.1862 347.576 40.7305 347.928 40.2227L346.678 39.0117C346.352 39.4284 345.939 39.7507 345.438 39.9785C344.936 40.1999 344.396 40.3105 343.816 40.3105C343.393 40.3105 343.003 40.2389 342.645 40.0957C342.293 39.9525 341.987 39.7507 341.727 39.4902C341.466 39.2428 341.261 38.9629 341.111 38.6504C340.962 38.3379 340.851 37.9505 340.779 37.4883V37.4395H348.104V36.4336C348.104 35.6784 348.003 34.9818 347.801 34.3438C347.599 33.7057 347.299 33.1556 346.902 32.6934C346.505 32.2376 346.014 31.8828 345.428 31.6289C344.842 31.3685 344.168 31.2383 343.406 31.2383C342.723 31.2383 342.078 31.3685 341.473 31.6289C340.874 31.8828 340.346 32.2474 339.891 32.7227C339.435 33.1979 339.077 33.7708 338.816 34.4414C338.556 35.112 338.426 35.8607 338.426 36.6875V37.0879C338.426 37.8105 338.549 38.4844 338.797 39.1094C339.051 39.7279 339.409 40.265 339.871 40.7207C340.333 41.1829 340.887 41.5443 341.531 41.8047C342.182 42.0651 342.898 42.1953 343.68 42.1953ZM343.396 33.1328C343.787 33.1328 344.129 33.2012 344.422 33.3379C344.721 33.4681 344.969 33.6439 345.164 33.8652C345.366 34.0931 345.522 34.36 345.633 34.666C345.743 34.9655 345.799 35.2682 345.799 35.5742V35.7305H340.828C340.9 35.3268 341.01 34.9655 341.16 34.6465C341.31 34.3275 341.495 34.054 341.717 33.8262C341.938 33.6048 342.189 33.4355 342.469 33.3184C342.755 33.1947 343.064 33.1328 343.396 33.1328ZM355.359 40.3203C354.871 40.3203 354.464 40.2227 354.139 40.0273C353.813 39.832 353.556 39.5716 353.367 39.2461C353.172 38.9336 353.032 38.5723 352.947 38.1621C352.869 37.7454 352.83 37.3223 352.83 36.8926V36.5508C352.83 36.1276 352.869 35.7109 352.947 35.3008C353.032 34.8906 353.175 34.526 353.377 34.207C353.566 33.888 353.82 33.6309 354.139 33.4355C354.464 33.2337 354.871 33.1328 355.359 33.1328C355.678 33.1328 355.975 33.1882 356.248 33.2988C356.528 33.4095 356.769 33.5592 356.971 33.748C357.166 33.9368 357.316 34.1582 357.42 34.4121C357.531 34.666 357.586 34.9362 357.586 35.2227H359.783C359.79 34.6367 359.682 34.0996 359.461 33.6113C359.246 33.123 358.943 32.7031 358.553 32.3516C358.162 32 357.693 31.7266 357.146 31.5312C356.606 31.3359 356.017 31.2383 355.379 31.2383C354.572 31.2383 353.862 31.3815 353.25 31.668C352.645 31.9479 352.137 32.3288 351.727 32.8105C351.316 33.2923 351.007 33.8555 350.799 34.5C350.597 35.1445 350.496 35.8281 350.496 36.5508V36.8926C350.496 37.6217 350.6 38.3086 350.809 38.9531C351.017 39.5911 351.326 40.151 351.736 40.6328C352.14 41.1146 352.645 41.4987 353.25 41.7852C353.862 42.0651 354.575 42.2051 355.389 42.2051C355.975 42.2051 356.531 42.1107 357.059 41.9219C357.592 41.7266 358.064 41.4596 358.475 41.1211C358.878 40.7956 359.197 40.4082 359.432 39.959C359.673 39.5033 359.79 39.0182 359.783 38.5039H357.586C357.586 38.7708 357.524 39.015 357.4 39.2363C357.283 39.4577 357.124 39.6497 356.922 39.8125C356.714 39.9753 356.473 40.1022 356.199 40.1934C355.932 40.278 355.652 40.3203 355.359 40.3203ZM371.756 42V31.4336H362.615V42H364.959V33.3379H369.422V42H371.756ZM383.758 31.4336H375.779L375.77 35.9453C375.77 36.2643 375.766 36.5638 375.76 36.8438C375.753 37.1172 375.74 37.3743 375.721 37.6152C375.701 37.9082 375.669 38.1751 375.623 38.416C375.577 38.6569 375.522 38.8685 375.457 39.0508C375.327 39.3828 375.148 39.627 374.92 39.7832C374.699 39.9395 374.409 40.0176 374.051 40.0176L373.699 40.0273V42H374.197C374.939 42 375.561 41.8698 376.062 41.6094C376.564 41.349 376.967 40.9616 377.273 40.4473C377.462 40.1283 377.615 39.7604 377.732 39.3438C377.856 38.9206 377.951 38.4551 378.016 37.9473C378.048 37.6478 378.071 37.3288 378.084 36.9902C378.104 36.6517 378.113 36.3034 378.113 35.9453L378.123 33.3379H381.414V42H383.758V31.4336ZM393.543 42H395.926V41.834C395.796 41.5605 395.695 41.235 395.623 40.8574C395.558 40.4733 395.525 40.0436 395.525 39.5684V34.8711C395.525 34.2721 395.415 33.7448 395.193 33.2891C394.972 32.8268 394.666 32.446 394.275 32.1465C393.885 31.847 393.419 31.6224 392.879 31.4727C392.345 31.3164 391.769 31.2383 391.15 31.2383C390.46 31.2383 389.845 31.3294 389.305 31.5117C388.771 31.6875 388.322 31.9284 387.957 32.2344C387.579 32.5339 387.293 32.8789 387.098 33.2695C386.902 33.6602 386.801 34.0671 386.795 34.4902H389.139C389.139 34.2884 389.174 34.0996 389.246 33.9238C389.324 33.7415 389.441 33.5885 389.598 33.4648C389.754 33.3281 389.949 33.2207 390.184 33.1426C390.424 33.0645 390.704 33.0254 391.023 33.0254C391.375 33.0254 391.684 33.071 391.951 33.1621C392.225 33.2467 392.456 33.3704 392.645 33.5332C392.82 33.696 392.954 33.888 393.045 34.1094C393.143 34.3307 393.191 34.5781 393.191 34.8516V35.5645H391.492C390.73 35.5645 390.047 35.6361 389.441 35.7793C388.842 35.9225 388.338 36.1309 387.928 36.4043C387.485 36.6973 387.146 37.0684 386.912 37.5176C386.684 37.9603 386.57 38.4714 386.57 39.0508C386.57 39.5 386.658 39.9199 386.834 40.3105C387.016 40.6947 387.27 41.0234 387.596 41.2969C387.915 41.5768 388.299 41.7982 388.748 41.9609C389.204 42.1172 389.705 42.1953 390.252 42.1953C390.59 42.1953 390.906 42.1628 391.199 42.0977C391.492 42.0326 391.766 41.9414 392.02 41.8242C392.273 41.7135 392.501 41.5833 392.703 41.4336C392.911 41.2773 393.097 41.1146 393.26 40.9453C393.292 41.1471 393.328 41.3424 393.367 41.5312C393.413 41.7135 393.471 41.8698 393.543 42ZM390.701 40.3203C390.402 40.3203 390.141 40.2845 389.92 40.2129C389.699 40.1348 389.513 40.0306 389.363 39.9004C389.214 39.7702 389.1 39.6139 389.021 39.4316C388.943 39.2428 388.904 39.041 388.904 38.8262C388.904 38.5658 388.95 38.3314 389.041 38.123C389.139 37.9147 389.285 37.7357 389.48 37.5859C389.702 37.4102 389.998 37.2767 390.369 37.1855C390.74 37.0879 391.18 37.0391 391.688 37.0391H393.191V38.9922C393.107 39.1615 392.986 39.3242 392.83 39.4805C392.674 39.6367 392.488 39.7767 392.273 39.9004C392.059 40.0241 391.818 40.125 391.551 40.2031C391.29 40.2812 391.007 40.3203 390.701 40.3203ZM408.807 33.3086V31.4336H398.25V33.3086H402.332V42H404.676V33.3086H408.807ZM419.803 42V31.4336H417.459V35.8379H413.006V31.4336H410.662V42H413.006V37.7227H417.459V42H419.803ZM424.158 46.2676C424.673 46.2676 425.122 46.1764 425.506 45.9941C425.89 45.8184 426.222 45.597 426.502 45.3301C426.782 45.0697 427.013 44.7832 427.195 44.4707C427.384 44.1647 427.54 43.875 427.664 43.6016L433.025 31.4336H430.438L427.889 37.918L427.449 39.0508L427.088 37.8887L424.461 31.4336H421.893L426.395 41.5312L425.73 42.791C425.659 42.9342 425.581 43.071 425.496 43.2012C425.418 43.3314 425.314 43.4811 425.184 43.6504C425.047 43.8197 424.887 43.9694 424.705 44.0996C424.523 44.2363 424.318 44.3047 424.09 44.3047C423.986 44.3047 423.849 44.2982 423.68 44.2852C423.517 44.2786 423.37 44.2721 423.24 44.2656L422.918 46.0918C423.107 46.1374 423.302 46.1764 423.504 46.209C423.712 46.248 423.93 46.2676 424.158 46.2676ZM436.492 35.8867V31.4336H434.1V42H436.492V37.6445H437.488C437.514 38.2891 437.605 38.888 437.762 39.4414C437.924 39.9948 438.156 40.4766 438.455 40.8867C438.755 41.2969 439.126 41.6191 439.568 41.8535C440.018 42.0879 440.542 42.2051 441.141 42.2051C441.759 42.2051 442.296 42.0749 442.752 41.8145C443.208 41.5475 443.585 41.1862 443.885 40.7305C444.184 40.2747 444.409 39.7376 444.559 39.1191C444.708 38.4941 444.783 37.8236 444.783 37.1074V36.3457C444.783 35.6296 444.708 34.9622 444.559 34.3438C444.409 33.7188 444.181 33.1751 443.875 32.7129C443.576 32.2572 443.195 31.8991 442.732 31.6387C442.277 31.3717 441.74 31.2383 441.121 31.2383C440.542 31.2383 440.031 31.3555 439.588 31.5898C439.152 31.8242 438.784 32.1497 438.484 32.5664C438.185 32.9831 437.954 33.4746 437.791 34.041C437.628 34.6074 437.531 35.2227 437.498 35.8867H436.492ZM439.744 37.1074V36.3457C439.744 35.9225 439.764 35.5156 439.803 35.125C439.848 34.7344 439.923 34.3893 440.027 34.0898C440.132 33.7839 440.271 33.543 440.447 33.3672C440.623 33.1849 440.848 33.0938 441.121 33.0938C441.395 33.0938 441.619 33.1849 441.795 33.3672C441.977 33.543 442.124 33.7806 442.234 34.0801C442.339 34.3861 442.41 34.7344 442.449 35.125C442.495 35.5156 442.518 35.9225 442.518 36.3457V37.1074C442.518 37.5306 442.495 37.9408 442.449 38.3379C442.41 38.7285 442.339 39.0736 442.234 39.373C442.13 39.6725 441.987 39.9134 441.805 40.0957C441.629 40.2715 441.408 40.3594 441.141 40.3594C440.861 40.3594 440.633 40.2715 440.457 40.0957C440.281 39.9134 440.141 39.6725 440.037 39.373C439.926 39.0736 439.848 38.7285 439.803 38.3379C439.764 37.9408 439.744 37.5306 439.744 37.1074ZM462.752 37.8105L466.072 42H469.119L464.637 36.5215L468.787 31.4336H465.887L462.586 35.6523H461.111V31.4336H458.777V42H461.111V37.8105H462.752ZM470.447 36.6191V36.8242C470.447 37.599 470.558 38.3118 470.779 38.9629C471.001 39.6139 471.323 40.1803 471.746 40.6621C472.163 41.1439 472.677 41.5215 473.289 41.7949C473.901 42.0684 474.594 42.2051 475.369 42.2051C476.137 42.2051 476.824 42.0684 477.43 41.7949C478.042 41.5215 478.556 41.1439 478.973 40.6621C479.389 40.1803 479.708 39.6139 479.93 38.9629C480.151 38.3118 480.262 37.599 480.262 36.8242V36.6191C480.262 35.8509 480.151 35.1413 479.93 34.4902C479.708 33.8327 479.389 33.263 478.973 32.7812C478.549 32.2995 478.032 31.9219 477.42 31.6484C476.814 31.375 476.124 31.2383 475.35 31.2383C474.575 31.2383 473.885 31.375 473.279 31.6484C472.674 31.9219 472.163 32.2995 471.746 32.7812C471.323 33.263 471.001 33.8327 470.779 34.4902C470.558 35.1413 470.447 35.8509 470.447 36.6191ZM472.781 36.8242V36.6191C472.781 36.1569 472.83 35.7142 472.928 35.291C473.032 34.8678 473.191 34.4967 473.406 34.1777C473.615 33.8587 473.878 33.6048 474.197 33.416C474.523 33.2272 474.907 33.1328 475.35 33.1328C475.799 33.1328 476.183 33.2272 476.502 33.416C476.827 33.6048 477.098 33.8587 477.312 34.1777C477.514 34.4967 477.667 34.8678 477.771 35.291C477.876 35.7142 477.928 36.1569 477.928 36.6191V36.8242C477.928 37.2995 477.876 37.7487 477.771 38.1719C477.674 38.5951 477.521 38.9661 477.312 39.2852C477.104 39.6042 476.837 39.8581 476.512 40.0469C476.186 40.2292 475.805 40.3203 475.369 40.3203C474.92 40.3203 474.533 40.2292 474.207 40.0469C473.882 39.8581 473.615 39.6042 473.406 39.2852C473.191 38.9661 473.032 38.5951 472.928 38.1719C472.83 37.7487 472.781 37.2995 472.781 36.8242ZM491.873 42V31.4336H489.529V35.8379H485.076V31.4336H482.732V42H485.076V37.7227H489.529V42H491.873ZM499.5 40.3203C499.012 40.3203 498.605 40.2227 498.279 40.0273C497.954 39.832 497.697 39.5716 497.508 39.2461C497.312 38.9336 497.173 38.5723 497.088 38.1621C497.01 37.7454 496.971 37.3223 496.971 36.8926V36.5508C496.971 36.1276 497.01 35.7109 497.088 35.3008C497.173 34.8906 497.316 34.526 497.518 34.207C497.706 33.888 497.96 33.6309 498.279 33.4355C498.605 33.2337 499.012 33.1328 499.5 33.1328C499.819 33.1328 500.115 33.1882 500.389 33.2988C500.669 33.4095 500.91 33.5592 501.111 33.748C501.307 33.9368 501.456 34.1582 501.561 34.4121C501.671 34.666 501.727 34.9362 501.727 35.2227H503.924C503.93 34.6367 503.823 34.0996 503.602 33.6113C503.387 33.123 503.084 32.7031 502.693 32.3516C502.303 32 501.834 31.7266 501.287 31.5312C500.747 31.3359 500.158 31.2383 499.52 31.2383C498.712 31.2383 498.003 31.3815 497.391 31.668C496.785 31.9479 496.277 32.3288 495.867 32.8105C495.457 33.2923 495.148 33.8555 494.939 34.5C494.738 35.1445 494.637 35.8281 494.637 36.5508V36.8926C494.637 37.6217 494.741 38.3086 494.949 38.9531C495.158 39.5911 495.467 40.151 495.877 40.6328C496.281 41.1146 496.785 41.4987 497.391 41.7852C498.003 42.0651 498.715 42.2051 499.529 42.2051C500.115 42.2051 500.672 42.1107 501.199 41.9219C501.733 41.7266 502.205 41.4596 502.615 41.1211C503.019 40.7956 503.338 40.4082 503.572 39.959C503.813 39.5033 503.93 39.0182 503.924 38.5039H501.727C501.727 38.7708 501.665 39.015 501.541 39.2363C501.424 39.4577 501.264 39.6497 501.062 39.8125C500.854 39.9753 500.613 40.1022 500.34 40.1934C500.073 40.278 499.793 40.3203 499.5 40.3203ZM508.24 46.2676C508.755 46.2676 509.204 46.1764 509.588 45.9941C509.972 45.8184 510.304 45.597 510.584 45.3301C510.864 45.0697 511.095 44.7832 511.277 44.4707C511.466 44.1647 511.622 43.875 511.746 43.6016L517.107 31.4336H514.52L511.971 37.918L511.531 39.0508L511.17 37.8887L508.543 31.4336H505.975L510.477 41.5312L509.812 42.791C509.741 42.9342 509.663 43.071 509.578 43.2012C509.5 43.3314 509.396 43.4811 509.266 43.6504C509.129 43.8197 508.969 43.9694 508.787 44.0996C508.605 44.2363 508.4 44.3047 508.172 44.3047C508.068 44.3047 507.931 44.2982 507.762 44.2852C507.599 44.2786 507.452 44.2721 507.322 44.2656L507 46.0918C507.189 46.1374 507.384 46.1764 507.586 46.209C507.794 46.248 508.012 46.2676 508.24 46.2676ZM527.898 31.4336H519.92L519.91 35.9453C519.91 36.2643 519.907 36.5638 519.9 36.8438C519.894 37.1172 519.881 37.3743 519.861 37.6152C519.842 37.9082 519.809 38.1751 519.764 38.416C519.718 38.6569 519.663 38.8685 519.598 39.0508C519.467 39.3828 519.288 39.627 519.061 39.7832C518.839 39.9395 518.549 40.0176 518.191 40.0176L517.84 40.0273V42H518.338C519.08 42 519.702 41.8698 520.203 41.6094C520.704 41.349 521.108 40.9616 521.414 40.4473C521.603 40.1283 521.756 39.7604 521.873 39.3438C521.997 38.9206 522.091 38.4551 522.156 37.9473C522.189 37.6478 522.212 37.3288 522.225 36.9902C522.244 36.6517 522.254 36.3034 522.254 35.9453L522.264 33.3379H525.555V42H527.898V31.4336ZM533.211 35.1738V31.4336H530.877V42H536.121C536.798 42 537.4 41.9154 537.928 41.7461C538.462 41.5703 538.911 41.3294 539.275 41.0234C539.64 40.724 539.917 40.3659 540.105 39.9492C540.294 39.526 540.389 39.0703 540.389 38.582C540.389 38.0807 540.294 37.6217 540.105 37.2051C539.917 36.7884 539.64 36.4271 539.275 36.1211C538.911 35.8216 538.462 35.5905 537.928 35.4277C537.4 35.2585 536.798 35.1738 536.121 35.1738H533.211ZM533.211 37.0586H536.121C536.46 37.0586 536.749 37.1042 536.99 37.1953C537.238 37.2799 537.439 37.3906 537.596 37.5273C537.752 37.6771 537.866 37.8464 537.938 38.0352C538.016 38.224 538.055 38.4193 538.055 38.6211C538.055 38.8164 538.019 39.0052 537.947 39.1875C537.876 39.3698 537.762 39.5293 537.605 39.666C537.449 39.8027 537.247 39.9134 537 39.998C536.753 40.0827 536.46 40.125 536.121 40.125H533.211V37.0586ZM552.947 33.3086V31.4336H542.391V33.3086H546.473V42H548.816V33.3086H552.947ZM561.707 42H564.09V41.834C563.96 41.5605 563.859 41.235 563.787 40.8574C563.722 40.4733 563.689 40.0436 563.689 39.5684V34.8711C563.689 34.2721 563.579 33.7448 563.357 33.2891C563.136 32.8268 562.83 32.446 562.439 32.1465C562.049 31.847 561.583 31.6224 561.043 31.4727C560.509 31.3164 559.933 31.2383 559.314 31.2383C558.624 31.2383 558.009 31.3294 557.469 31.5117C556.935 31.6875 556.486 31.9284 556.121 32.2344C555.743 32.5339 555.457 32.8789 555.262 33.2695C555.066 33.6602 554.965 34.0671 554.959 34.4902H557.303C557.303 34.2884 557.339 34.0996 557.41 33.9238C557.488 33.7415 557.605 33.5885 557.762 33.4648C557.918 33.3281 558.113 33.2207 558.348 33.1426C558.589 33.0645 558.868 33.0254 559.188 33.0254C559.539 33.0254 559.848 33.071 560.115 33.1621C560.389 33.2467 560.62 33.3704 560.809 33.5332C560.984 33.696 561.118 33.888 561.209 34.1094C561.307 34.3307 561.355 34.5781 561.355 34.8516V35.5645H559.656C558.895 35.5645 558.211 35.6361 557.605 35.7793C557.007 35.9225 556.502 36.1309 556.092 36.4043C555.649 36.6973 555.311 37.0684 555.076 37.5176C554.848 37.9603 554.734 38.4714 554.734 39.0508C554.734 39.5 554.822 39.9199 554.998 40.3105C555.18 40.6947 555.434 41.0234 555.76 41.2969C556.079 41.5768 556.463 41.7982 556.912 41.9609C557.368 42.1172 557.869 42.1953 558.416 42.1953C558.755 42.1953 559.07 42.1628 559.363 42.0977C559.656 42.0326 559.93 41.9414 560.184 41.8242C560.438 41.7135 560.665 41.5833 560.867 41.4336C561.076 41.2773 561.261 41.1146 561.424 40.9453C561.456 41.1471 561.492 41.3424 561.531 41.5312C561.577 41.7135 561.635 41.8698 561.707 42ZM558.865 40.3203C558.566 40.3203 558.305 40.2845 558.084 40.2129C557.863 40.1348 557.677 40.0306 557.527 39.9004C557.378 39.7702 557.264 39.6139 557.186 39.4316C557.107 39.2428 557.068 39.041 557.068 38.8262C557.068 38.5658 557.114 38.3314 557.205 38.123C557.303 37.9147 557.449 37.7357 557.645 37.5859C557.866 37.4102 558.162 37.2767 558.533 37.1855C558.904 37.0879 559.344 37.0391 559.852 37.0391H561.355V38.9922C561.271 39.1615 561.15 39.3242 560.994 39.4805C560.838 39.6367 560.652 39.7767 560.438 39.9004C560.223 40.0241 559.982 40.125 559.715 40.2031C559.454 40.2812 559.171 40.3203 558.865 40.3203ZM566.844 31.4336V42H574.793V45.1348H576.922L577.117 40.125H575.691V31.4336H573.348V40.1152H569.178V31.4336H566.844ZM585.633 31.4336L581.16 38.6211V31.4336H578.826V42H581.16L585.633 34.8223V42H587.967V31.4336H585.633ZM592.645 35.8867V31.4336H590.252V42H592.645V37.6445H593.641C593.667 38.2891 593.758 38.888 593.914 39.4414C594.077 39.9948 594.308 40.4766 594.607 40.8867C594.907 41.2969 595.278 41.6191 595.721 41.8535C596.17 42.0879 596.694 42.2051 597.293 42.2051C597.911 42.2051 598.449 42.0749 598.904 41.8145C599.36 41.5475 599.738 41.1862 600.037 40.7305C600.337 40.2747 600.561 39.7376 600.711 39.1191C600.861 38.4941 600.936 37.8236 600.936 37.1074V36.3457C600.936 35.6296 600.861 34.9622 600.711 34.3438C600.561 33.7188 600.333 33.1751 600.027 32.7129C599.728 32.2572 599.347 31.8991 598.885 31.6387C598.429 31.3717 597.892 31.2383 597.273 31.2383C596.694 31.2383 596.183 31.3555 595.74 31.5898C595.304 31.8242 594.936 32.1497 594.637 32.5664C594.337 32.9831 594.106 33.4746 593.943 34.041C593.781 34.6074 593.683 35.2227 593.65 35.8867H592.645ZM595.896 37.1074V36.3457C595.896 35.9225 595.916 35.5156 595.955 35.125C596.001 34.7344 596.076 34.3893 596.18 34.0898C596.284 33.7839 596.424 33.543 596.6 33.3672C596.775 33.1849 597 33.0938 597.273 33.0938C597.547 33.0938 597.771 33.1849 597.947 33.3672C598.13 33.543 598.276 33.7806 598.387 34.0801C598.491 34.3861 598.562 34.7344 598.602 35.125C598.647 35.5156 598.67 35.9225 598.67 36.3457V37.1074C598.67 37.5306 598.647 37.9408 598.602 38.3379C598.562 38.7285 598.491 39.0736 598.387 39.373C598.283 39.6725 598.139 39.9134 597.957 40.0957C597.781 40.2715 597.56 40.3594 597.293 40.3594C597.013 40.3594 596.785 40.2715 596.609 40.0957C596.434 39.9134 596.294 39.6725 596.189 39.373C596.079 39.0736 596.001 38.7285 595.955 38.3379C595.916 37.9408 595.896 37.5306 595.896 37.1074Z" fill="#396857"/>
<path d="M49 32L61 44L81 24" stroke="#396857" stroke-width="5" stroke-linecap="round" stroke-linejoin="round"/>
</svg>
