<svg width="318" height="84" viewBox="0 0 318 84" fill="none" xmlns="http://www.w3.org/2000/svg">
<rect x="2" y="22" width="83" height="3" fill="#396857"/>
<path d="M22.2656 50.0781V48.8125H6.39844V34.1406H24.4922V32.875H5.15625V67H24.4922V65.7344H6.39844V50.0781H22.2656ZM50.8359 56.8047L54.1875 67H55.5L44.3203 32.875H42.8672L31.6875 67H33L36.3281 56.8047H50.8359ZM36.7266 55.5391L43.5938 34.6094L50.4375 55.5391H36.7266ZM83.9766 34.1406V32.875H60.2812V34.1406H71.5312L71.4844 67H72.75V34.1406H83.9766ZM119.328 67V21.5H117.703L117.766 64.0312L93.6719 21.5H92.1094V67H93.7031L93.6406 24.375L117.766 67H119.328ZM158.859 47.6562V40.8438C158.839 39.3646 158.703 37.8438 158.453 36.2812C158.203 34.7188 157.828 33.1979 157.328 31.7188C156.807 30.2396 156.151 28.8438 155.359 27.5312C154.589 26.2188 153.661 25.0625 152.578 24.0625C151.474 23.0833 150.224 22.3125 148.828 21.75C147.432 21.1667 145.859 20.875 144.109 20.875C142.359 20.875 140.786 21.1667 139.391 21.75C137.995 22.3125 136.755 23.0833 135.672 24.0625C134.568 25.0625 133.62 26.2188 132.828 27.5312C132.057 28.8438 131.422 30.2396 130.922 31.7188C130.401 33.1979 130.016 34.7188 129.766 36.2812C129.516 37.8438 129.38 39.3646 129.359 40.8438V47.6562C129.38 49.1354 129.516 50.6562 129.766 52.2188C130.036 53.7812 130.432 55.3021 130.953 56.7812C131.453 58.2604 132.099 59.6562 132.891 60.9688C133.682 62.2812 134.63 63.4271 135.734 64.4062C136.818 65.4062 138.057 66.1979 139.453 66.7812C140.87 67.3438 142.443 67.625 144.172 67.625C145.901 67.625 147.464 67.3438 148.859 66.7812C150.276 66.1979 151.526 65.4062 152.609 64.4062C153.693 63.4271 154.62 62.2812 155.391 60.9688C156.182 59.6562 156.828 58.2604 157.328 56.7812C157.828 55.3021 158.203 53.7812 158.453 52.2188C158.703 50.6562 158.839 49.1354 158.859 47.6562ZM157.203 40.7812V47.6562C157.182 48.9896 157.068 50.3646 156.859 51.7812C156.672 53.1979 156.359 54.5833 155.922 55.9375C155.484 57.2917 154.922 58.5729 154.234 59.7812C153.547 60.9896 152.724 62.0521 151.766 62.9688C150.807 63.8854 149.693 64.6146 148.422 65.1562C147.172 65.6771 145.755 65.9375 144.172 65.9375C142.589 65.9375 141.161 65.6771 139.891 65.1562C138.641 64.6146 137.536 63.8854 136.578 62.9688C135.599 62.0521 134.766 60.9896 134.078 59.7812C133.391 58.5729 132.828 57.2917 132.391 55.9375C131.953 54.5833 131.63 53.1979 131.422 51.7812C131.214 50.3646 131.099 48.9896 131.078 47.6562V40.7812C131.099 39.4688 131.214 38.1042 131.422 36.6875C131.63 35.2708 131.953 33.8854 132.391 32.5312C132.828 31.1771 133.38 29.8958 134.047 28.6875C134.734 27.4792 135.568 26.4167 136.547 25.5C137.505 24.6042 138.609 23.8958 139.859 23.375C141.109 22.8333 142.526 22.5625 144.109 22.5625C145.693 22.5625 147.109 22.8333 148.359 23.375C149.63 23.8958 150.755 24.6042 151.734 25.5C152.693 26.4167 153.516 27.4792 154.203 28.6875C154.891 29.8958 155.453 31.1667 155.891 32.5C156.328 33.8542 156.651 35.2396 156.859 36.6562C157.068 38.0729 157.182 39.4479 157.203 40.7812ZM185.453 47.5312L196.484 67H198.203V66.5625L187.047 47.0312C188.422 46.4896 189.682 45.8333 190.828 45.0625C191.995 44.2917 192.995 43.3958 193.828 42.375C194.661 41.3542 195.307 40.2083 195.766 38.9375C196.245 37.6458 196.484 36.2083 196.484 34.625C196.484 32.6667 196.12 30.8958 195.391 29.3125C194.682 27.7083 193.714 26.3333 192.484 25.1875C191.234 24.0417 189.776 23.1562 188.109 22.5312C186.443 21.8854 184.672 21.5417 182.797 21.5H170.453V67H172.078V47.5312H185.453ZM172.078 45.8438V23.1875H182.766C184.411 23.2292 185.964 23.5208 187.422 24.0625C188.901 24.6042 190.182 25.3646 191.266 26.3438C192.349 27.3438 193.203 28.5417 193.828 29.9375C194.474 31.3333 194.797 32.8958 194.797 34.625C194.797 36.1458 194.526 37.5833 193.984 38.9375C193.464 40.2708 192.734 41.4375 191.797 42.4375C190.859 43.4583 189.734 44.2708 188.422 44.875C187.13 45.4792 185.714 45.8021 184.172 45.8438H172.078ZM210.078 21.5H207.609V67H209.297V44.875L209.266 24.0938L220.172 52.3125H221.734L233.516 23.7812L233.453 44.875V67H235.141V21.5H232.516L220.984 50.0938L210.078 21.5ZM269.578 53.4062L274.047 67H275.797L260.891 21.5H258.953L244.047 67H245.797L250.234 53.4062H269.578ZM250.766 51.7188L259.922 23.8125L269.047 51.7188H250.766ZM287.953 65.3125V21.5H286.234V67H312.016V65.3125H287.953Z" fill="#396857"/>
</svg>
