<svg width="166" height="68" viewBox="0 0 166 68" fill="none" xmlns="http://www.w3.org/2000/svg">
<rect x="1" y="1" width="164" height="66" rx="24" fill="#F4F8F8" stroke="#396857" stroke-width="2"/>
<path d="M26.3333 49C25.4167 49 24.6317 48.6733 23.9783 48.02C23.325 47.3667 22.9989 46.5822 23 45.6667V39H26.3333V45.6667H49.6667V22.3333H26.3333V29H23V22.3333C23 21.4167 23.3267 20.6317 23.98 19.9783C24.6333 19.325 25.4178 18.9989 26.3333 19H49.6667C50.5833 19 51.3683 19.3267 52.0217 19.98C52.675 20.6333 53.0011 21.4178 53 22.3333V45.6667C53 46.5833 52.6733 47.3683 52.02 48.0217C51.3667 48.675 50.5822 49.0011 49.6667 49H26.3333ZM35.5 42.3333L33.1667 39.9167L37.4167 35.6667H23V32.3333H37.4167L33.1667 28.0833L35.5 25.6667L43.8333 34L35.5 42.3333Z" fill="#396857"/>
<path d="M74.6797 42H79.2305C79.8359 41.9935 80.4219 41.8991 80.9883 41.7168C81.5612 41.5345 82.0658 41.2708 82.502 40.9258C82.9382 40.5872 83.2865 40.1641 83.5469 39.6562C83.8073 39.1484 83.9342 38.5625 83.9277 37.8984C83.9277 37.4753 83.8626 37.0814 83.7324 36.7168C83.6087 36.3522 83.4329 36.0234 83.2051 35.7305C82.9902 35.4635 82.7168 35.2194 82.3848 34.998C82.0527 34.7767 81.7077 34.6237 81.3496 34.5391V34.5098C81.6947 34.36 81.9876 34.2005 82.2285 34.0312C82.4759 33.862 82.7005 33.6536 82.9023 33.4062C83.0977 33.1654 83.2507 32.8919 83.3613 32.5859C83.4785 32.2799 83.5404 31.9414 83.5469 31.5703C83.5534 30.9062 83.4264 30.3366 83.166 29.8613C82.9056 29.3861 82.5573 28.9954 82.1211 28.6895C81.6849 28.3835 81.1868 28.1589 80.627 28.0156C80.0671 27.8659 79.4941 27.7878 78.9082 27.7812H74.6797V42ZM76.4961 35.3496H79.377C79.7611 35.3626 80.1191 35.4277 80.4512 35.5449C80.7832 35.6621 81.0729 35.8281 81.3203 36.043C81.5677 36.2643 81.7598 36.5312 81.8965 36.8438C82.0397 37.1562 82.1081 37.5143 82.1016 37.918C82.1016 38.3151 82.0234 38.6699 81.8672 38.9824C81.7174 39.2949 81.5124 39.5586 81.252 39.7734C80.9915 39.9883 80.6921 40.1576 80.3535 40.2812C80.015 40.3984 79.6569 40.4603 79.2793 40.4668H76.4961V35.3496ZM76.4961 33.8457V29.3242H78.9668C79.3184 29.3307 79.6602 29.3763 79.9922 29.4609C80.3307 29.5456 80.6302 29.6758 80.8906 29.8516C81.1445 30.0339 81.3464 30.265 81.4961 30.5449C81.6523 30.8249 81.7305 31.1634 81.7305 31.5605C81.7305 31.9316 81.6523 32.2572 81.4961 32.5371C81.3398 32.8171 81.1348 33.0514 80.8809 33.2402C80.627 33.4355 80.3372 33.5853 80.0117 33.6895C79.6862 33.7871 79.3542 33.8392 79.0156 33.8457H76.4961ZM88.2246 35.4375V31.4336H86.418V42H89.1914C89.7643 42 90.2689 41.9154 90.7051 41.7461C91.1413 41.5703 91.5091 41.3327 91.8086 41.0332C92.1016 40.7337 92.3229 40.3822 92.4727 39.9785C92.6289 39.5749 92.707 39.1419 92.707 38.6797C92.707 38.2174 92.6289 37.7878 92.4727 37.3906C92.3229 36.9935 92.1016 36.6484 91.8086 36.3555C91.5091 36.069 91.138 35.8444 90.6953 35.6816C90.2591 35.5189 89.7578 35.4375 89.1914 35.4375H88.2246ZM95.627 42V31.4336H93.8203V42H95.627ZM88.2246 36.9121H89.1914C89.4974 36.9121 89.7578 36.9674 89.9727 37.0781C90.1875 37.1888 90.3633 37.332 90.5 37.5078C90.6302 37.6836 90.7246 37.8822 90.7832 38.1035C90.8483 38.3184 90.8809 38.5332 90.8809 38.748C90.8809 38.9759 90.8483 39.1973 90.7832 39.4121C90.7246 39.6204 90.6302 39.806 90.5 39.9688C90.3633 40.138 90.1875 40.2747 89.9727 40.3789C89.7578 40.4766 89.4974 40.5254 89.1914 40.5254H88.2246V36.9121ZM103.088 35.3496L100.295 31.4336H98.2051L102.141 36.6582L98.0977 42H100.207L103.127 37.9766L106.047 42H108.137L104.094 36.6582L108.029 31.4336H105.91L103.088 35.3496ZM110.227 36.6191V36.834C110.227 37.5957 110.337 38.3021 110.559 38.9531C110.78 39.6042 111.099 40.1706 111.516 40.6523C111.926 41.1341 112.427 41.5117 113.02 41.7852C113.618 42.0586 114.292 42.1953 115.041 42.1953C115.783 42.1953 116.451 42.0586 117.043 41.7852C117.635 41.5117 118.14 41.1341 118.557 40.6523C118.967 40.1706 119.283 39.6042 119.504 38.9531C119.725 38.3021 119.836 37.5957 119.836 36.834V36.6191C119.836 35.8574 119.725 35.151 119.504 34.5C119.283 33.8424 118.967 33.2728 118.557 32.791C118.14 32.3092 117.632 31.9316 117.033 31.6582C116.441 31.3783 115.77 31.2383 115.021 31.2383C114.279 31.2383 113.612 31.3783 113.02 31.6582C112.427 31.9316 111.926 32.3092 111.516 32.791C111.099 33.2728 110.78 33.8424 110.559 34.5C110.337 35.151 110.227 35.8574 110.227 36.6191ZM112.033 36.834V36.6191C112.033 36.1048 112.095 35.6133 112.219 35.1445C112.342 34.6693 112.531 34.2526 112.785 33.8945C113.033 33.5365 113.342 33.2533 113.713 33.0449C114.084 32.8301 114.52 32.7227 115.021 32.7227C115.523 32.7227 115.959 32.8301 116.33 33.0449C116.708 33.2533 117.023 33.5365 117.277 33.8945C117.525 34.2526 117.71 34.6693 117.834 35.1445C117.964 35.6133 118.029 36.1048 118.029 36.6191V36.834C118.029 37.3548 117.967 37.8529 117.844 38.3281C117.72 38.7969 117.535 39.2103 117.287 39.5684C117.033 39.9264 116.717 40.2096 116.34 40.418C115.969 40.6263 115.536 40.7305 115.041 40.7305C114.54 40.7305 114.1 40.6263 113.723 40.418C113.345 40.2096 113.033 39.9264 112.785 39.5684C112.531 39.2103 112.342 38.7969 112.219 38.3281C112.095 37.8529 112.033 37.3548 112.033 36.834ZM122.57 40.5254H121.574L121.75 45.1055H123.371V42H130.744V45.1055H132.375L132.551 40.5254H131.193V31.4336H124.387L124.23 35.3984C124.185 36.1536 124.123 36.8372 124.045 37.4492C123.973 38.0612 123.876 38.5885 123.752 39.0312C123.628 39.474 123.469 39.8255 123.273 40.0859C123.085 40.3398 122.85 40.4863 122.57 40.5254ZM126.037 35.3984L126.125 33.1035H129.387V40.5254H125.07C125.227 40.2389 125.357 39.9134 125.461 39.5488C125.572 39.1842 125.663 38.7839 125.734 38.3477C125.806 37.918 125.865 37.4557 125.91 36.9609C125.962 36.4661 126.005 35.9453 126.037 35.3984Z" fill="#396857"/>
</svg>
