<svg width="16" height="16" viewBox="0 0 16 16" fill="none" xmlns="http://www.w3.org/2000/svg">
<path d="M8 16C12.4183 16 16 12.4183 16 8C16 3.58172 12.4183 0 8 0C3.58172 0 0 3.58172 0 8C0 12.4183 3.58172 16 8 16Z" fill="#B0C3BC"/>
<path d="M8.04492 2.48492C8.17457 2.36915 8.43792 2.16579 8.82929 2.06879C8.98406 2.03047 9.56424 1.88654 10.0253 2.18221C10.3219 2.37228 10.5236 2.71488 10.633 2.90182C10.7278 3.06295 10.7181 3.08564 10.7902 3.16698C11.0139 3.42041 11.2416 3.35315 11.5154 3.60266C11.5949 3.67462 11.7261 3.79352 11.7707 3.98124C11.8209 4.194 11.7075 4.26909 11.7707 4.45447C11.8136 4.5804 11.9174 4.66487 12.124 4.83304C12.3249 4.9973 12.3833 4.99652 12.457 5.09821C12.5632 5.24369 12.5729 5.42125 12.5551 5.57143" stroke="black" stroke-width="0.25"/>
<path d="M10.2052 4.10156C10.2052 4.60489 10.2052 5.16956 10.2052 5.6737C11.0118 5.6737 11.8184 5.6737 12.6242 5.6737C12.7772 5.70612 13.0144 5.77987 13.238 5.96791C13.238 5.96791 13.3261 6.04167 13.4038 6.13406C13.6219 6.39262 13.7893 7.06777 13.8138 7.9496C13.8202 8.95625 13.8265 9.96371 13.8329 10.9704C13.7996 11.3529 13.66 11.588 13.583 11.6958C13.3951 11.9608 13.0961 12.1837 12.9493 12.2647C12.9493 12.2647 12.5885 12.4828 12.23 12.5533C11.5868 12.6805 10.6628 12.1318 9.97358 11.1268C9.14795 10.035 8.32311 8.94328 7.49747 7.85072C7.48954 7.83045 7.46972 7.77291 7.48796 7.70645C7.48954 7.69915 7.52761 7.57109 7.6442 7.55407C7.71558 7.54435 7.78775 7.58001 7.829 7.64485C7.98445 7.83208 8.1391 8.0193 8.29455 8.20653" stroke="black" stroke-width="0.25"/>
<path d="M7.7369 7.6099C7.65399 7.50855 7.57108 7.40721 7.48817 7.30515C7.48582 7.29796 7.45141 7.17003 7.54996 7.07443C7.60706 7.01909 7.69701 6.98746 7.78383 7.00471C7.83701 7.0155 7.87377 7.04065 7.89255 7.05718C8.13189 7.32384 8.37044 7.59049 8.60979 7.85714" stroke="black" stroke-width="0.25"/>
<path d="M7.77602 6.94333C7.76947 6.9198 7.76292 6.88597 7.76374 6.84551C7.76456 6.79624 7.76702 6.68298 7.86279 6.61605C7.94383 6.55942 8.04287 6.57192 8.06088 6.57413C8.12064 6.58148 8.16484 6.60428 8.18694 6.61899C8.46934 6.93671 8.75175 7.2537 9.03415 7.57143" stroke="black" stroke-width="0.25"/>
<path d="M8.35579 6.78154C8.35268 6.77594 8.29366 6.65359 8.35812 6.54484C8.4117 6.45448 8.5142 6.43449 8.53051 6.43209C8.54992 6.42889 8.62603 6.41769 8.69669 6.46407C8.71766 6.47767 8.73241 6.49286 8.74018 6.50246C8.82016 6.59522 9.35676 7.33411 9.39481 7.38609C9.55245 7.22056 9.71008 7.05503 9.86772 6.8895C9.87782 6.8863 10.0059 6.84791 10.1092 6.93428C10.2242 7.03104 10.1962 7.19017 10.1939 7.20216C10.1807 7.27094 10.1434 7.31572 10.1279 7.33411C10.0347 7.44846 9.91354 7.61319 9.75513 7.8371C10.4556 8.79589 11.156 9.75549 11.8572 10.7143C11.8541 9.77228 11.851 8.83028 11.8479 7.88908" stroke="black" stroke-width="0.25"/>
<path d="M11.998 9.42857C11.998 9.47619 11.998 9.52381 11.998 9.57143" stroke="black" stroke-width="0.25"/>
<path d="M10.0215 8.14286C10.0215 7.90476 10.0215 7.66667 10.0215 7.42857" stroke="black" stroke-width="0.25"/>
<path d="M10.8586 5.71429C10.8681 5.78177 10.876 5.88129 10.8586 5.99685C10.8195 6.25662 10.6833 6.41941 10.5927 6.52737C10.442 6.70786 10.2776 6.80486 10.1631 6.85715" stroke="black" stroke-width="0.25"/>
<path d="M10 7.00001C9.9786 6.91921 9.82697 6.5426 9.77976 6.44781C9.60121 6.09354 9.32454 5.92339 9.25592 5.88377C8.98589 5.72683 8.73135 5.71284 8.61035 5.7144" stroke="black" stroke-width="0.25"/>
<path d="M9.31641 5.99999C9.31641 5.8574 9.31641 5.42909 9.31641 5.28571" stroke="black" stroke-width="0.25"/>
<path d="M9.63473 5.19744C9.57743 5.22779 9.48574 5.26773 9.36703 5.28131C9.10096 5.31086 8.89711 5.18386 8.82917 5.13593C8.65397 5.01292 8.58111 4.85316 8.4624 4.59436C8.4141 4.48892 8.37562 4.40425 8.35025 4.27884C8.30849 4.06956 8.33469 3.89942 8.35679 3.76683C8.37644 3.64861 8.40755 3.54956 8.46895 3.35146C8.5148 3.20529 8.55655 3.08467 8.58766 3C8.70309 3.10624 8.80788 3.18292 8.88484 3.23484C9.08459 3.36983 9.26879 3.45211 9.44644 3.53119C9.52176 3.56474 9.5848 3.59109 9.62818 3.60867C9.63719 3.58311 9.67075 3.49444 9.76326 3.44412C9.86723 3.38821 9.97203 3.41856 10.0179 3.43134C10.049 3.44013 10.1824 3.48166 10.2586 3.61825C10.3183 3.72449 10.3052 3.82673 10.2979 3.88584C10.279 4.03841 10.198 4.14465 10.1562 4.19178" stroke="black" stroke-width="0.25"/>
<path d="M8.75195 4.14285C8.81025 4.28543 8.86854 4.42885 8.92684 4.57142C9.00999 4.51764 9.09315 4.46385 9.17545 4.40922" stroke="black" stroke-width="0.1"/>
<path d="M9.4567 4.71429C9.38611 4.78572 9.32838 4.82858 9.24495 4.85715C9.16152 4.88572 9.10379 4.85715 9.0332 4.85715" stroke="black" stroke-width="0.1"/>
<path d="M7.05279 5.76173C7.05966 5.82782 7.06271 5.9289 7.03447 6.04398C6.97036 6.30213 6.79251 6.4522 6.6742 6.55173C6.5849 6.62716 6.42003 6.76323 6.16586 6.82466C6.06434 6.84876 5.68576 6.92574 5.32549 6.70258C4.81562 6.38689 4.79959 5.75551 4.79883 5.71429" stroke="black" stroke-width="0.25"/>
<path d="M6.12858 5.24272C6.20344 5.25243 6.31015 5.25972 6.43677 5.24272C6.50128 5.23382 6.64303 5.21359 6.7792 5.13993C6.98148 5.02986 7.07545 4.85261 7.15986 4.69398C7.1965 4.62518 7.33028 4.36053 7.34302 3.98903C7.3486 3.82473 7.32869 3.6831 7.3048 3.57302C7.24667 3.30998 7.13677 3.11574 7.05873 3C6.74098 3.18777 6.42244 3.37554 6.10469 3.56331C6.09354 3.5447 6.07523 3.5188 6.04656 3.49452C5.9271 3.39011 5.76465 3.42086 5.73837 3.42572C5.69536 3.43381 5.54883 3.46133 5.47796 3.59245C5.41027 3.71871 5.45964 3.85387 5.48274 3.91538C5.52017 4.01655 5.58069 4.08211 5.61732 4.1161C5.61732 4.63328 5.61732 5.15126 5.61732 5.66844C4.84008 5.67815 4.06283 5.68787 3.28559 5.69758C3.16614 5.717 2.98218 5.76071 2.78468 5.87402C2.44783 6.06665 2.279 6.34021 2.20653 6.46161C2.13725 6.57654 2.04885 6.75379 1.9947 6.99012C1.98833 8.42672 1.98196 9.86333 1.97559 11.2991C2.00585 11.4594 2.07991 11.7305 2.28378 11.9944C2.3666 12.102 2.61267 12.4104 3.04509 12.5229C3.21153 12.5666 3.35567 12.5674 3.44964 12.5617C5.20959 12.565 6.97033 12.5682 8.73028 12.5714C8.91742 12.5488 9.15314 12.4848 9.37612 12.3262C9.69466 12.0996 9.84119 11.7823 9.92561 11.6018C9.971 11.5031 10.0021 11.4181 10.022 11.3566" stroke="black" stroke-width="0.25"/>
<path d="M3.81055 7.85715C3.81055 8.76217 3.81055 9.66641 3.81055 10.5714" stroke="black" stroke-width="0.25"/>
<path d="M1.97559 9.42857C2.02264 9.42857 2.0697 9.42857 2.11675 9.42857" stroke="black" stroke-width="0.25"/>
<path d="M3.3877 13.1429C3.3877 12.9524 3.3877 12.7619 3.3877 12.5714" stroke="black" stroke-width="0.25" stroke-miterlimit="10"/>
<path d="M8.61035 13.1429C8.61035 12.9524 8.61035 12.7619 8.61035 12.5714" stroke="black" stroke-width="0.25" stroke-miterlimit="10"/>
<path d="M4.50372 12.1249C4.08541 12.1303 3.66786 12.1358 3.24955 12.1412C3.23964 12.1426 3.10249 12.1569 3.01867 12.0669C2.94172 11.9837 2.94629 11.8514 3.02934 11.7777C3.09106 11.7232 3.17335 11.7211 3.19697 11.7211C3.63662 11.7191 4.07703 11.7163 4.51668 11.7143" stroke="black" stroke-width="0.25" stroke-miterlimit="10"/>
<path d="M3.15395 11.7118C3.1362 11.7145 3.0102 11.7297 2.9138 11.6325C2.84192 11.5611 2.79541 11.4363 2.84192 11.3177C2.88082 11.2196 2.97214 11.1527 3.077 11.1464C3.65118 11.1455 4.22536 11.1437 4.79955 11.1429" stroke="black" stroke-width="0.25" stroke-miterlimit="10"/>
<path d="M3.06907 11.1429C3.04618 11.1188 3.01224 11.0763 2.99093 11.0153C2.97514 10.9688 2.93804 10.867 2.99251 10.7763C3.05565 10.6705 3.18905 10.6665 3.19931 10.6665C3.56793 10.6681 3.93575 10.6697 4.30437 10.6713C4.26412 10.5598 4.24122 10.4636 4.22781 10.393C4.1986 10.2438 4.1836 10.158 4.21518 10.0569C4.22939 10.0112 4.26806 9.88772 4.36831 9.85965C4.45908 9.83399 4.54591 9.90376 4.57195 9.92462C4.6501 9.98717 4.68246 10.0682 4.72824 10.219C4.76297 10.3352 4.8056 10.4908 4.84269 10.6785C5.90434 10.6753 6.9652 10.6721 8.02685 10.6689C8.03316 10.065 8.03948 9.46106 8.04579 8.85715" stroke="black" stroke-width="0.25" stroke-miterlimit="10"/>
<path d="M6.5 5.60001C7 5.60001 8.76424 5.67521 8.99977 5.77" stroke="black" stroke-width="0.25"/>
<path d="M7.51413 5.64C7.56926 5.62422 7.6741 5.58713 7.77272 5.4956C7.80844 5.46246 7.90628 5.36935 7.94666 5.2139C7.97928 5.08765 7.95909 4.98349 7.942 4.89906C7.90162 4.69942 7.83484 4.67969 7.80067 4.53135C7.76883 4.39168 7.8162 4.35538 7.87134 4.03502C7.89929 3.87326 7.93191 3.68388 7.92337 3.45268C7.91793 3.30907 7.91017 3.14257 7.83406 2.94688C7.74787 2.72594 7.62207 2.58785 7.53354 2.49316C7.43647 2.389 7.247 2.19016 6.9325 2.07811C6.67235 1.985 6.45647 1.99683 6.27942 2.0063C6.10548 2.01577 5.91367 2.02603 5.69235 2.13492C5.48113 2.23908 5.35223 2.37953 5.28855 2.44976C5.15188 2.60126 5.07267 2.76539 5.02064 2.86955C4.91969 3.07155 4.93367 3.11495 4.85136 3.20885C4.77525 3.29565 4.73255 3.29486 4.49881 3.42822C4.25186 3.56946 4.12684 3.64285 4.05229 3.75726C4.02589 3.79829 3.93969 3.9348 3.95367 4.12497C3.9661 4.29305 4.05151 4.40667 4.095 4.46428C4.1843 4.58264 4.28758 4.64734 4.34893 4.6789C4.74342 4.81541 5.1379 4.95271 5.53316 5.08922" stroke="black" stroke-width="0.25"/>
<path d="M6.40039 5.22656V5.72266" stroke="black" stroke-width="0.25" stroke-miterlimit="10"/>
<path d="M6.7756 4.85715C6.73225 4.81231 6.6511 4.74333 6.53995 4.72091C6.37989 4.68987 6.25762 4.7761 6.21094 4.81404" stroke="black" stroke-width="0.1"/>
<path d="M6.49316 4.47245L6.71043 4.57142C6.77948 4.42887 6.84761 4.28541 6.91666 4.14285" stroke="black" stroke-width="0.1"/>
<path d="M3.81075 12.1429C3.63449 12.1455 3.45909 12.1482 3.28283 12.1508C3.26728 12.1828 3.24914 12.2307 3.24654 12.2901C3.23877 12.4419 3.33381 12.5484 3.35541 12.5714" stroke="black" stroke-width="0.25" stroke-miterlimit="10"/>
</svg>
