<svg width="14" height="16" viewBox="0 0 14 16" fill="none" xmlns="http://www.w3.org/2000/svg">
<path d="M13.189 12.4937C12.8521 11.6958 12.3633 10.971 11.7497 10.3597C11.138 9.74673 10.4133 9.25797 9.61579 8.92046C9.60864 8.91689 9.6015 8.91511 9.59436 8.91154C10.7069 8.10796 11.4301 6.79904 11.4301 5.32225C11.4301 2.87582 9.44793 0.893677 7.0015 0.893677C4.55507 0.893677 2.57293 2.87582 2.57293 5.32225C2.57293 6.79904 3.29614 8.10796 4.40864 8.91332C4.4015 8.91689 4.39436 8.91868 4.38722 8.92225C3.58721 9.25975 2.86936 9.74368 2.25329 10.3615C1.64027 10.9733 1.15151 11.6979 0.814001 12.4955C0.482433 13.2763 0.303611 14.1134 0.287215 14.9615C0.286738 14.9806 0.290081 14.9996 0.297047 15.0173C0.304012 15.0351 0.31446 15.0512 0.327773 15.0649C0.341086 15.0785 0.356996 15.0894 0.374565 15.0968C0.392135 15.1042 0.411008 15.108 0.430072 15.108H1.5015C1.58007 15.108 1.64257 15.0455 1.64436 14.9687C1.68007 13.5901 2.23364 12.299 3.21221 11.3205C4.22471 10.308 5.56936 9.75082 7.0015 9.75082C8.43364 9.75082 9.77829 10.308 10.7908 11.3205C11.7694 12.299 12.3229 13.5901 12.3586 14.9687C12.3604 15.0473 12.4229 15.108 12.5015 15.108H13.5729C13.592 15.108 13.6109 15.1042 13.6284 15.0968C13.646 15.0894 13.6619 15.0785 13.6752 15.0649C13.6885 15.0512 13.699 15.0351 13.706 15.0173C13.7129 14.9996 13.7163 14.9806 13.7158 14.9615C13.6979 14.108 13.5211 13.2776 13.189 12.4937ZM7.0015 8.39368C6.18186 8.39368 5.41043 8.07404 4.83007 7.49368C4.24971 6.91332 3.93007 6.14189 3.93007 5.32225C3.93007 4.50261 4.24971 3.73118 4.83007 3.15082C5.41043 2.57046 6.18186 2.25082 7.0015 2.25082C7.82114 2.25082 8.59257 2.57046 9.17293 3.15082C9.75329 3.73118 10.0729 4.50261 10.0729 5.32225C10.0729 6.14189 9.75329 6.91332 9.17293 7.49368C8.59257 8.07404 7.82114 8.39368 7.0015 8.39368Z" fill="#396857"/>
</svg>
