<svg width="25" height="27" viewBox="0 0 25 27" fill="none" xmlns="http://www.w3.org/2000/svg">
<path d="M17.4859 16.9811H16.4019L16.0176 16.5643C17.4089 14.7489 18.1735 12.4313 18.172 10.0343C18.172 8.04971 17.6489 6.10968 16.6688 4.45955C15.6888 2.80942 14.2957 1.52329 12.6659 0.76382C11.0361 0.00434771 9.24274 -0.194365 7.51255 0.192811C5.78236 0.579987 4.19308 1.53566 2.94568 2.93898C1.69828 4.34231 0.848796 6.13025 0.504639 8.07671C0.160483 10.0232 0.337117 12.0407 1.0122 13.8743C1.68729 15.7078 2.83051 17.2749 4.29729 18.3775C5.76408 19.4801 7.48855 20.0686 9.25264 20.0686C11.4619 20.0686 13.4928 19.1578 15.0571 17.6449L15.4276 18.0772V19.2967L22.2887 27L24.3333 24.6998L17.4859 16.9811ZM9.25264 16.9811C5.83583 16.9811 3.07768 13.8782 3.07768 10.0343C3.07768 6.1904 5.83583 3.08748 9.25264 3.08748C12.6694 3.08748 15.4276 6.1904 15.4276 10.0343C15.4276 13.8782 12.6694 16.9811 9.25264 16.9811Z" fill="black"/>
</svg>
