<svg width="14" height="16" viewBox="0 0 14 16" fill="none" xmlns="http://www.w3.org/2000/svg">
<path d="M12.7163 7.14802H11.5021V3.14802C11.5021 1.88552 10.4788 0.862305 9.21634 0.862305H4.78777C3.52527 0.862305 2.50205 1.88552 2.50205 3.14802V7.14802H1.28777C0.971696 7.14802 0.716339 7.40338 0.716339 7.71945V14.5766C0.716339 14.8927 0.971696 15.148 1.28777 15.148H12.7163C13.0324 15.148 13.2878 14.8927 13.2878 14.5766V7.71945C13.2878 7.40338 13.0324 7.14802 12.7163 7.14802ZM3.78777 3.14802C3.78777 2.59623 4.23598 2.14802 4.78777 2.14802H9.21634C9.76813 2.14802 10.2163 2.59623 10.2163 3.14802V7.14802H3.78777V3.14802ZM12.0021 13.8623H2.00205V8.43373H12.0021V13.8623ZM6.50205 11.3802V12.3266C6.50205 12.4052 6.56634 12.4694 6.64491 12.4694H7.3592C7.43777 12.4694 7.50205 12.4052 7.50205 12.3266V11.3802C7.64946 11.2743 7.75948 11.1245 7.81629 10.9521C7.87309 10.7798 7.87375 10.5939 7.81816 10.4211C7.76257 10.2484 7.65361 10.0977 7.50695 9.99087C7.3603 9.884 7.18352 9.82642 7.00205 9.82642C6.82059 9.82642 6.64381 9.884 6.49716 9.99087C6.3505 10.0977 6.24154 10.2484 6.18595 10.4211C6.13036 10.5939 6.13102 10.7798 6.18782 10.9521C6.24463 11.1245 6.35465 11.2743 6.50205 11.3802V11.3802Z" fill="#396857"/>
</svg>
