<svg width="238" height="51" viewBox="0 0 238 51" fill="none" xmlns="http://www.w3.org/2000/svg">
<path d="M18.791 37V11.4062H16.8223V22.8848H4.78125V11.4062H2.8125V37H4.78125V24.7305H16.8223V37H18.791ZM37.5117 29.8633L39.7793 37H41.8887L33.627 11.4062H31.7285L23.4141 37H25.5234L27.791 29.8633H37.5117ZM28.3887 27.9824L32.6777 14.5703L36.9316 27.9824H28.3887ZM47.6719 11.4062H45.6328V37H62.4727V11.4062H60.4512V35.207H55.0723V11.4062H53.0332V35.207H47.6719V11.4062ZM80.7539 29.8633L83.0215 37H85.1309L76.8691 11.4062H74.9707L66.6562 37H68.7656L71.0332 29.8633H80.7539ZM71.6309 27.9824L75.9199 14.5703L80.1738 27.9824H71.6309ZM113.748 11.4062H111.041V37H113.098V25.6621L112.957 14.6582L118.195 29.3008H119.566L125.244 14.3945L125.104 25.6621V37H127.143V11.4062H124.4L118.898 25.8555L113.748 11.4062ZM146.25 11.4062L134.789 32.7988L134.807 11.4062H132.75V37H134.807L146.268 15.5723L146.232 37H148.307V11.4062H146.25ZM170.666 29.2305H168.592C168.451 30.1211 168.223 30.9531 167.906 31.7266C167.602 32.5 167.197 33.168 166.693 33.7305C166.178 34.3047 165.551 34.7559 164.812 35.084C164.086 35.4121 163.23 35.5703 162.246 35.5586C161.414 35.5586 160.676 35.4238 160.031 35.1543C159.387 34.873 158.818 34.4922 158.326 34.0117C157.834 33.5312 157.418 32.9805 157.078 32.3594C156.75 31.7266 156.48 31.0586 156.27 30.3555C156.059 29.6523 155.9 28.9375 155.795 28.2109C155.701 27.4727 155.654 26.7578 155.654 26.0664V22.3223C155.654 21.6309 155.701 20.9219 155.795 20.1953C155.9 19.457 156.059 18.7363 156.27 18.0332C156.48 17.3301 156.756 16.668 157.096 16.0469C157.436 15.4141 157.852 14.8633 158.344 14.3945C158.824 13.9258 159.387 13.5566 160.031 13.2871C160.688 13.0059 161.426 12.8594 162.246 12.8477C163.23 12.8477 164.086 13.0176 164.812 13.3574C165.539 13.6855 166.16 14.1367 166.676 14.7109C167.191 15.2969 167.602 15.9766 167.906 16.75C168.223 17.5234 168.451 18.3496 168.592 19.2285H170.666C170.537 18.0566 170.256 16.9727 169.822 15.9766C169.4 14.9688 168.832 14.1016 168.117 13.375C167.414 12.6484 166.57 12.0801 165.586 11.6699C164.602 11.248 163.488 11.043 162.246 11.0547C161.227 11.0664 160.307 11.2305 159.486 11.5469C158.666 11.8516 157.939 12.2734 157.307 12.8125C156.662 13.3516 156.105 13.9844 155.637 14.7109C155.168 15.4375 154.781 16.2168 154.477 17.0488C154.172 17.8926 153.943 18.7656 153.791 19.668C153.639 20.5703 153.557 21.4668 153.545 22.3574V26.0664C153.557 26.957 153.639 27.8535 153.791 28.7559C153.943 29.6465 154.172 30.5137 154.477 31.3574C154.781 32.1895 155.162 32.9688 155.619 33.6953C156.088 34.4219 156.65 35.0547 157.307 35.5938C157.939 36.1328 158.666 36.5605 159.486 36.877C160.307 37.1934 161.227 37.3516 162.246 37.3516C163.465 37.3633 164.561 37.1641 165.533 36.7539C166.518 36.332 167.367 35.752 168.082 35.0137C168.797 34.2988 169.371 33.4434 169.805 32.4473C170.238 31.4512 170.525 30.3789 170.666 29.2305ZM192.287 29.2305H190.213C190.072 30.1211 189.844 30.9531 189.527 31.7266C189.223 32.5 188.818 33.168 188.314 33.7305C187.799 34.3047 187.172 34.7559 186.434 35.084C185.707 35.4121 184.852 35.5703 183.867 35.5586C183.035 35.5586 182.297 35.4238 181.652 35.1543C181.008 34.873 180.439 34.4922 179.947 34.0117C179.455 33.5312 179.039 32.9805 178.699 32.3594C178.371 31.7266 178.102 31.0586 177.891 30.3555C177.68 29.6523 177.521 28.9375 177.416 28.2109C177.322 27.4727 177.275 26.7578 177.275 26.0664V22.3223C177.275 21.6309 177.322 20.9219 177.416 20.1953C177.521 19.457 177.68 18.7363 177.891 18.0332C178.102 17.3301 178.377 16.668 178.717 16.0469C179.057 15.4141 179.473 14.8633 179.965 14.3945C180.445 13.9258 181.008 13.5566 181.652 13.2871C182.309 13.0059 183.047 12.8594 183.867 12.8477C184.852 12.8477 185.707 13.0176 186.434 13.3574C187.16 13.6855 187.781 14.1367 188.297 14.7109C188.812 15.2969 189.223 15.9766 189.527 16.75C189.844 17.5234 190.072 18.3496 190.213 19.2285H192.287C192.158 18.0566 191.877 16.9727 191.443 15.9766C191.021 14.9688 190.453 14.1016 189.738 13.375C189.035 12.6484 188.191 12.0801 187.207 11.6699C186.223 11.248 185.109 11.043 183.867 11.0547C182.848 11.0664 181.928 11.2305 181.107 11.5469C180.287 11.8516 179.561 12.2734 178.928 12.8125C178.283 13.3516 177.727 13.9844 177.258 14.7109C176.789 15.4375 176.402 16.2168 176.098 17.0488C175.793 17.8926 175.564 18.7656 175.412 19.668C175.26 20.5703 175.178 21.4668 175.166 22.3574V26.0664C175.178 26.957 175.26 27.8535 175.412 28.7559C175.564 29.6465 175.793 30.5137 176.098 31.3574C176.402 32.1895 176.783 32.9688 177.24 33.6953C177.709 34.4219 178.271 35.0547 178.928 35.5938C179.561 36.1328 180.287 36.5605 181.107 36.877C181.928 37.1934 182.848 37.3516 183.867 37.3516C185.086 37.3633 186.182 37.1641 187.154 36.7539C188.139 36.332 188.988 35.752 189.703 35.0137C190.418 34.2988 190.992 33.4434 191.426 32.4473C191.859 31.4512 192.146 30.3789 192.287 29.2305ZM211.113 11.4062L199.652 32.7988L199.67 11.4062H197.613V37H199.67L211.131 15.5723L211.096 37H213.17V11.4062H211.113ZM232.295 37H234.387V11.4062H226.951C225.686 11.418 224.531 11.5938 223.488 11.9336C222.445 12.2734 221.555 12.7598 220.816 13.3926C220.066 14.0488 219.486 14.8457 219.076 15.7832C218.666 16.709 218.461 17.7637 218.461 18.9473C218.461 19.8379 218.59 20.6523 218.848 21.3906C219.117 22.1172 219.504 22.7734 220.008 23.3594C220.371 23.7812 220.816 24.1855 221.344 24.5723C221.883 24.9473 222.598 25.3105 223.488 25.6621L217.547 37H219.814L225.316 26.2246H232.295V37ZM220.553 18.9121C220.553 18.0098 220.699 17.207 220.992 16.5039C221.297 15.8008 221.725 15.2031 222.275 14.7109C222.838 14.2305 223.512 13.8613 224.297 13.6035C225.082 13.3457 225.967 13.2168 226.951 13.2168H232.295V24.3965H226.389C225.486 24.3965 224.672 24.2617 223.945 23.9922C223.23 23.7109 222.621 23.3242 222.117 22.832C221.613 22.3516 221.227 21.7773 220.957 21.1094C220.688 20.4414 220.553 19.709 220.553 18.9121Z" fill="#396857"/>
<path d="M0 49H238" stroke="#396857" stroke-width="4"/>
</svg>
