<svg width="253" height="68" viewBox="0 0 253 68" fill="none" xmlns="http://www.w3.org/2000/svg">
<rect x="1" y="1" width="251" height="66" rx="24" fill="#FFF9C7" stroke="#396857" stroke-width="2"/>
<path d="M106.908 37.7227H105.102C105.043 38.1523 104.942 38.5527 104.799 38.9238C104.656 39.2884 104.464 39.6042 104.223 39.8711C103.982 40.1445 103.686 40.3561 103.334 40.5059C102.989 40.6556 102.579 40.7305 102.104 40.7305C101.667 40.7305 101.286 40.6621 100.961 40.5254C100.635 40.3822 100.352 40.1868 100.111 39.9395C99.8704 39.6986 99.6719 39.4186 99.5156 39.0996C99.3594 38.7806 99.2324 38.4388 99.1348 38.0742C99.0371 37.7161 98.9655 37.3516 98.9199 36.9805C98.8809 36.6029 98.8613 36.2383 98.8613 35.8867V33.8848C98.8613 33.5332 98.8809 33.1719 98.9199 32.8008C98.9655 32.4232 99.0371 32.0553 99.1348 31.6973C99.2324 31.3392 99.3594 31.0007 99.5156 30.6816C99.6784 30.3626 99.8802 30.0827 100.121 29.8418C100.355 29.6009 100.635 29.4121 100.961 29.2754C101.293 29.1322 101.674 29.0605 102.104 29.0605C102.579 29.0605 102.989 29.1419 103.334 29.3047C103.686 29.4609 103.982 29.679 104.223 29.959C104.464 30.2389 104.656 30.5645 104.799 30.9355C104.942 31.3066 105.043 31.707 105.102 32.1367H106.908C106.83 31.4596 106.667 30.8411 106.42 30.2812C106.179 29.7214 105.857 29.2396 105.453 28.8359C105.049 28.4388 104.568 28.1328 104.008 27.918C103.448 27.6966 102.813 27.5859 102.104 27.5859C101.511 27.5859 100.977 27.6706 100.502 27.8398C100.027 28.0026 99.6035 28.2305 99.2324 28.5234C98.8548 28.8164 98.5293 29.1647 98.2559 29.5684C97.9889 29.9655 97.7676 30.3984 97.5918 30.8672C97.4095 31.3359 97.2728 31.8275 97.1816 32.3418C97.097 32.8561 97.0514 33.377 97.0449 33.9043V35.8867C97.0514 36.4141 97.097 36.9349 97.1816 37.4492C97.2728 37.9635 97.4095 38.4551 97.5918 38.9238C97.7676 39.3926 97.9889 39.8255 98.2559 40.2227C98.5293 40.6198 98.8548 40.9648 99.2324 41.2578C99.6035 41.5508 100.027 41.7819 100.502 41.9512C100.984 42.1139 101.518 42.1953 102.104 42.1953C102.787 42.1953 103.406 42.0879 103.959 41.873C104.519 41.6517 105.004 41.3424 105.414 40.9453C105.818 40.5547 106.146 40.0859 106.4 39.5391C106.654 38.9857 106.824 38.3802 106.908 37.7227ZM109.203 36.6191V36.834C109.203 37.5957 109.314 38.3021 109.535 38.9531C109.757 39.6042 110.076 40.1706 110.492 40.6523C110.902 41.1341 111.404 41.5117 111.996 41.7852C112.595 42.0586 113.269 42.1953 114.018 42.1953C114.76 42.1953 115.427 42.0586 116.02 41.7852C116.612 41.5117 117.117 41.1341 117.533 40.6523C117.943 40.1706 118.259 39.6042 118.48 38.9531C118.702 38.3021 118.812 37.5957 118.812 36.834V36.6191C118.812 35.8574 118.702 35.151 118.48 34.5C118.259 33.8424 117.943 33.2728 117.533 32.791C117.117 32.3092 116.609 31.9316 116.01 31.6582C115.417 31.3783 114.747 31.2383 113.998 31.2383C113.256 31.2383 112.589 31.3783 111.996 31.6582C111.404 31.9316 110.902 32.3092 110.492 32.791C110.076 33.2728 109.757 33.8424 109.535 34.5C109.314 35.151 109.203 35.8574 109.203 36.6191ZM111.01 36.834V36.6191C111.01 36.1048 111.072 35.6133 111.195 35.1445C111.319 34.6693 111.508 34.2526 111.762 33.8945C112.009 33.5365 112.318 33.2533 112.689 33.0449C113.061 32.8301 113.497 32.7227 113.998 32.7227C114.499 32.7227 114.936 32.8301 115.307 33.0449C115.684 33.2533 116 33.5365 116.254 33.8945C116.501 34.2526 116.687 34.6693 116.811 35.1445C116.941 35.6133 117.006 36.1048 117.006 36.6191V36.834C117.006 37.3548 116.944 37.8529 116.82 38.3281C116.697 38.7969 116.511 39.2103 116.264 39.5684C116.01 39.9264 115.694 40.2096 115.316 40.418C114.945 40.6263 114.512 40.7305 114.018 40.7305C113.516 40.7305 113.077 40.6263 112.699 40.418C112.322 40.2096 112.009 39.9264 111.762 39.5684C111.508 39.2103 111.319 38.7969 111.195 38.3281C111.072 37.8529 111.01 37.3548 111.01 36.834ZM126.088 35.3496L123.295 31.4336H121.205L125.141 36.6582L121.098 42H123.207L126.127 37.9766L129.047 42H131.137L127.094 36.6582L131.029 31.4336H128.91L126.088 35.3496ZM133.725 46.0625H135.531V40.9844C135.661 41.1276 135.801 41.2611 135.951 41.3848C136.101 41.502 136.26 41.6094 136.43 41.707C136.71 41.8633 137.022 41.9837 137.367 42.0684C137.719 42.153 138.096 42.1953 138.5 42.1953C139.164 42.1953 139.753 42.0586 140.268 41.7852C140.788 41.5117 141.225 41.1341 141.576 40.6523C141.928 40.1706 142.195 39.6042 142.377 38.9531C142.559 38.2956 142.65 37.5892 142.65 36.834V36.6289C142.65 35.8411 142.559 35.1185 142.377 34.4609C142.195 33.7969 141.928 33.2272 141.576 32.752C141.225 32.2767 140.788 31.9056 140.268 31.6387C139.747 31.3717 139.148 31.2383 138.471 31.2383C138.087 31.2383 137.725 31.2806 137.387 31.3652C137.055 31.4434 136.752 31.5605 136.479 31.7168C136.283 31.821 136.101 31.9479 135.932 32.0977C135.762 32.2409 135.606 32.4036 135.463 32.5859L135.375 31.4336H133.725V46.0625ZM140.844 36.6289V36.834C140.844 37.3483 140.785 37.8398 140.668 38.3086C140.557 38.7773 140.385 39.1908 140.15 39.5488C139.916 39.9069 139.617 40.1934 139.252 40.4082C138.887 40.6165 138.454 40.7207 137.953 40.7207C137.641 40.7207 137.354 40.6816 137.094 40.6035C136.84 40.5254 136.609 40.418 136.4 40.2812C136.218 40.1641 136.055 40.0208 135.912 39.8516C135.769 39.6823 135.642 39.5 135.531 39.3047V34.2168C135.655 33.9954 135.798 33.7936 135.961 33.6113C136.124 33.429 136.309 33.276 136.518 33.1523C136.706 33.0286 136.918 32.9342 137.152 32.8691C137.393 32.804 137.654 32.7715 137.934 32.7715C138.441 32.7715 138.878 32.8757 139.242 33.084C139.607 33.2923 139.91 33.5723 140.15 33.9238C140.385 34.2819 140.557 34.6953 140.668 35.1641C140.785 35.6263 140.844 36.1146 140.844 36.6289ZM152.689 42H154.574V41.8438C154.457 41.5508 154.366 41.209 154.301 40.8184C154.236 40.4212 154.203 40.0469 154.203 39.6953V34.7832C154.203 34.1908 154.096 33.6732 153.881 33.2305C153.666 32.7878 153.373 32.4167 153.002 32.1172C152.624 31.8242 152.178 31.6061 151.664 31.4629C151.15 31.3132 150.593 31.2383 149.994 31.2383C149.337 31.2383 148.747 31.3294 148.227 31.5117C147.712 31.694 147.276 31.9316 146.918 32.2246C146.553 32.5241 146.273 32.8594 146.078 33.2305C145.889 33.6016 145.792 33.9792 145.785 34.3633H147.602C147.602 34.1419 147.654 33.9303 147.758 33.7285C147.868 33.5202 148.021 33.3411 148.217 33.1914C148.412 33.0417 148.65 32.9212 148.93 32.8301C149.216 32.7389 149.538 32.6934 149.896 32.6934C150.281 32.6934 150.626 32.7422 150.932 32.8398C151.244 32.9375 151.508 33.0742 151.723 33.25C151.938 33.4323 152.104 33.6504 152.221 33.9043C152.338 34.1582 152.396 34.4447 152.396 34.7637V35.5938H150.424C149.688 35.5938 149.021 35.6654 148.422 35.8086C147.829 35.9518 147.322 36.1667 146.898 36.4531C146.475 36.7461 146.146 37.1107 145.912 37.5469C145.684 37.9831 145.57 38.4909 145.57 39.0703C145.57 39.513 145.655 39.9264 145.824 40.3105C146 40.6882 146.247 41.0137 146.566 41.2871C146.879 41.5671 147.26 41.7884 147.709 41.9512C148.165 42.1139 148.673 42.1953 149.232 42.1953C149.577 42.1953 149.903 42.1595 150.209 42.0879C150.515 42.0163 150.805 41.9186 151.078 41.7949C151.345 41.6712 151.589 41.528 151.811 41.3652C152.038 41.2025 152.243 41.0299 152.426 40.8477C152.445 41.069 152.475 41.2839 152.514 41.4922C152.559 41.694 152.618 41.8633 152.689 42ZM149.496 40.623C149.145 40.623 148.835 40.5775 148.568 40.4863C148.301 40.3952 148.08 40.2682 147.904 40.1055C147.729 39.9492 147.595 39.7604 147.504 39.5391C147.419 39.3177 147.377 39.0768 147.377 38.8164C147.377 38.543 147.426 38.2988 147.523 38.084C147.628 37.8691 147.777 37.6836 147.973 37.5273C148.246 37.306 148.614 37.1432 149.076 37.0391C149.545 36.9284 150.092 36.873 150.717 36.873H152.396V39.0117C152.292 39.2201 152.149 39.4219 151.967 39.6172C151.785 39.806 151.57 39.9753 151.322 40.125C151.068 40.2747 150.788 40.3952 150.482 40.4863C150.176 40.5775 149.848 40.623 149.496 40.623ZM166.439 42V31.4336H164.633V36.0137H159.477V31.4336H157.67V42H159.477V37.4883H164.633V42H166.439ZM176.645 31.4336L171.479 39.2363V31.4336H169.682V42H171.479L176.645 34.207V42H178.451V31.4336H176.645ZM191.283 32.8984V31.4336H181.098V32.8984H185.248V42H187.064V32.8984H191.283ZM195.512 35.4375V31.4336H193.705V42H198.744C199.376 42 199.939 41.9154 200.434 41.7461C200.928 41.5768 201.345 41.3424 201.684 41.043C202.022 40.75 202.279 40.4017 202.455 39.998C202.631 39.5879 202.719 39.1484 202.719 38.6797C202.719 38.2044 202.628 37.7682 202.445 37.3711C202.27 36.974 202.012 36.6322 201.674 36.3457C201.335 36.0592 200.919 35.8379 200.424 35.6816C199.936 35.5189 199.376 35.4375 198.744 35.4375H195.512ZM195.512 36.9121H198.744C199.122 36.9121 199.444 36.9674 199.711 37.0781C199.984 37.1823 200.209 37.319 200.385 37.4883C200.561 37.6641 200.691 37.8626 200.775 38.084C200.86 38.2988 200.902 38.5202 200.902 38.748C200.902 38.9824 200.86 39.207 200.775 39.4219C200.697 39.6367 200.57 39.8255 200.395 39.9883C200.219 40.151 199.994 40.2812 199.721 40.3789C199.447 40.4766 199.122 40.5254 198.744 40.5254H195.512V36.9121Z" fill="#396857"/>
<path d="M48 32L60 44L80 24" stroke="#396857" stroke-width="5" stroke-linecap="round" stroke-linejoin="round"/>
</svg>
