<svg width="250" height="68" viewBox="0 0 250 68" fill="none" xmlns="http://www.w3.org/2000/svg">
<rect x="1" y="1" width="248" height="66" rx="24" stroke="#396857" stroke-width="2"/>
<path d="M74.6797 42H79.2305C79.8359 41.9935 80.4219 41.8991 80.9883 41.7168C81.5612 41.5345 82.0658 41.2708 82.502 40.9258C82.9382 40.5872 83.2865 40.1641 83.5469 39.6562C83.8073 39.1484 83.9342 38.5625 83.9277 37.8984C83.9277 37.4753 83.8626 37.0814 83.7324 36.7168C83.6087 36.3522 83.4329 36.0234 83.2051 35.7305C82.9902 35.4635 82.7168 35.2194 82.3848 34.998C82.0527 34.7767 81.7077 34.6237 81.3496 34.5391V34.5098C81.6947 34.36 81.9876 34.2005 82.2285 34.0312C82.4759 33.862 82.7005 33.6536 82.9023 33.4062C83.0977 33.1654 83.2507 32.8919 83.3613 32.5859C83.4785 32.2799 83.5404 31.9414 83.5469 31.5703C83.5534 30.9062 83.4264 30.3366 83.166 29.8613C82.9056 29.3861 82.5573 28.9954 82.1211 28.6895C81.6849 28.3835 81.1868 28.1589 80.627 28.0156C80.0671 27.8659 79.4941 27.7878 78.9082 27.7812H74.6797V42ZM76.4961 35.3496H79.377C79.7611 35.3626 80.1191 35.4277 80.4512 35.5449C80.7832 35.6621 81.0729 35.8281 81.3203 36.043C81.5677 36.2643 81.7598 36.5312 81.8965 36.8438C82.0397 37.1562 82.1081 37.5143 82.1016 37.918C82.1016 38.3151 82.0234 38.6699 81.8672 38.9824C81.7174 39.2949 81.5124 39.5586 81.252 39.7734C80.9915 39.9883 80.6921 40.1576 80.3535 40.2812C80.015 40.3984 79.6569 40.4603 79.2793 40.4668H76.4961V35.3496ZM76.4961 33.8457V29.3242H78.9668C79.3184 29.3307 79.6602 29.3763 79.9922 29.4609C80.3307 29.5456 80.6302 29.6758 80.8906 29.8516C81.1445 30.0339 81.3464 30.265 81.4961 30.5449C81.6523 30.8249 81.7305 31.1634 81.7305 31.5605C81.7305 31.9316 81.6523 32.2572 81.4961 32.5371C81.3398 32.8171 81.1348 33.0514 80.8809 33.2402C80.627 33.4355 80.3372 33.5853 80.0117 33.6895C79.6862 33.7871 79.3542 33.8392 79.0156 33.8457H76.4961ZM91.2129 40.7305C90.6465 40.7305 90.1712 40.6198 89.7871 40.3984C89.4095 40.1706 89.1068 39.8743 88.8789 39.5098C88.6445 39.1517 88.4753 38.748 88.3711 38.2988C88.2734 37.8431 88.2246 37.3841 88.2246 36.9219V36.5117C88.2246 36.056 88.2734 35.6035 88.3711 35.1543C88.4753 34.7051 88.6445 34.2982 88.8789 33.9336C89.1133 33.5755 89.4193 33.2858 89.7969 33.0645C90.181 32.8366 90.653 32.7227 91.2129 32.7227C91.5775 32.7227 91.916 32.7845 92.2285 32.9082C92.5475 33.0319 92.821 33.2012 93.0488 33.416C93.2767 33.6309 93.4557 33.8815 93.5859 34.168C93.7227 34.4479 93.7943 34.7474 93.8008 35.0664H95.5098C95.5098 34.5326 95.4023 34.0312 95.1875 33.5625C94.9727 33.0938 94.6764 32.6868 94.2988 32.3418C93.9147 32.0033 93.459 31.7363 92.9316 31.541C92.4108 31.3392 91.8379 31.2383 91.2129 31.2383C90.4121 31.2383 89.7122 31.3815 89.1133 31.668C88.5143 31.9544 88.0163 32.3385 87.6191 32.8203C87.2155 33.3086 86.9128 33.8717 86.7109 34.5098C86.5091 35.1478 86.4082 35.8151 86.4082 36.5117V36.9219C86.4082 37.625 86.5091 38.2956 86.7109 38.9336C86.9128 39.5651 87.2155 40.1217 87.6191 40.6035C88.0163 41.0918 88.5143 41.4792 89.1133 41.7656C89.7122 42.0521 90.4121 42.1953 91.2129 42.1953C91.7728 42.1953 92.3099 42.1009 92.8242 41.9121C93.3385 41.7168 93.7943 41.4564 94.1914 41.1309C94.5885 40.8118 94.9043 40.4408 95.1387 40.0176C95.3796 39.5879 95.5033 39.1387 95.5098 38.6699H93.8008C93.7943 38.9629 93.7161 39.2363 93.5664 39.4902C93.4232 39.7376 93.2311 39.9525 92.9902 40.1348C92.7493 40.3236 92.4727 40.4701 92.1602 40.5742C91.8542 40.6784 91.5384 40.7305 91.2129 40.7305ZM103.391 42.1953C104.419 42.1953 105.282 41.9902 105.979 41.5801C106.682 41.1634 107.209 40.6882 107.561 40.1543L106.457 39.2949C106.125 39.7246 105.708 40.0697 105.207 40.3301C104.706 40.5905 104.133 40.7207 103.488 40.7207C103 40.7207 102.554 40.6296 102.15 40.4473C101.747 40.265 101.402 40.0143 101.115 39.6953C100.835 39.3958 100.614 39.0508 100.451 38.6602C100.295 38.2695 100.194 37.8171 100.148 37.3027V37.2344H107.697V36.4238C107.697 35.6882 107.603 35.0046 107.414 34.373C107.232 33.7415 106.952 33.1914 106.574 32.7227C106.197 32.2604 105.721 31.8991 105.148 31.6387C104.582 31.3717 103.918 31.2383 103.156 31.2383C102.551 31.2383 101.958 31.362 101.379 31.6094C100.806 31.8568 100.295 32.2116 99.8457 32.6738C99.39 33.1426 99.0254 33.7155 98.752 34.3926C98.4785 35.0632 98.3418 35.8249 98.3418 36.6777V37.0879C98.3418 37.8236 98.4655 38.5039 98.7129 39.1289C98.9603 39.7539 99.3053 40.2943 99.748 40.75C100.191 41.2057 100.721 41.5605 101.34 41.8145C101.965 42.0684 102.648 42.1953 103.391 42.1953ZM103.156 32.7227C103.618 32.7227 104.016 32.8073 104.348 32.9766C104.686 33.1458 104.966 33.3672 105.188 33.6406C105.409 33.9141 105.581 34.2396 105.705 34.6172C105.829 34.9883 105.891 35.3366 105.891 35.6621V35.75H100.207C100.279 35.2617 100.402 34.832 100.578 34.4609C100.76 34.0833 100.982 33.7643 101.242 33.5039C101.503 33.25 101.796 33.0579 102.121 32.9277C102.447 32.791 102.792 32.7227 103.156 32.7227ZM127.248 40.7305C126.682 40.7305 126.206 40.6198 125.822 40.3984C125.445 40.1706 125.142 39.8743 124.914 39.5098C124.68 39.1517 124.51 38.748 124.406 38.2988C124.309 37.8431 124.26 37.3841 124.26 36.9219V36.5117C124.26 36.056 124.309 35.6035 124.406 35.1543C124.51 34.7051 124.68 34.2982 124.914 33.9336C125.148 33.5755 125.454 33.2858 125.832 33.0645C126.216 32.8366 126.688 32.7227 127.248 32.7227C127.613 32.7227 127.951 32.7845 128.264 32.9082C128.583 33.0319 128.856 33.2012 129.084 33.416C129.312 33.6309 129.491 33.8815 129.621 34.168C129.758 34.4479 129.829 34.7474 129.836 35.0664H131.545C131.545 34.5326 131.438 34.0312 131.223 33.5625C131.008 33.0938 130.712 32.6868 130.334 32.3418C129.95 32.0033 129.494 31.7363 128.967 31.541C128.446 31.3392 127.873 31.2383 127.248 31.2383C126.447 31.2383 125.747 31.3815 125.148 31.668C124.549 31.9544 124.051 32.3385 123.654 32.8203C123.251 33.3086 122.948 33.8717 122.746 34.5098C122.544 35.1478 122.443 35.8151 122.443 36.5117V36.9219C122.443 37.625 122.544 38.2956 122.746 38.9336C122.948 39.5651 123.251 40.1217 123.654 40.6035C124.051 41.0918 124.549 41.4792 125.148 41.7656C125.747 42.0521 126.447 42.1953 127.248 42.1953C127.808 42.1953 128.345 42.1009 128.859 41.9121C129.374 41.7168 129.829 41.4564 130.227 41.1309C130.624 40.8118 130.939 40.4408 131.174 40.0176C131.415 39.5879 131.538 39.1387 131.545 38.6699H129.836C129.829 38.9629 129.751 39.2363 129.602 39.4902C129.458 39.7376 129.266 39.9525 129.025 40.1348C128.785 40.3236 128.508 40.4701 128.195 40.5742C127.889 40.6784 127.574 40.7305 127.248 40.7305ZM144.26 32.8984V31.4336H134.074V32.8984H138.225V42H140.041V32.8984H144.26ZM153.713 42H155.598V41.8438C155.48 41.5508 155.389 41.209 155.324 40.8184C155.259 40.4212 155.227 40.0469 155.227 39.6953V34.7832C155.227 34.1908 155.119 33.6732 154.904 33.2305C154.689 32.7878 154.396 32.4167 154.025 32.1172C153.648 31.8242 153.202 31.6061 152.688 31.4629C152.173 31.3132 151.617 31.2383 151.018 31.2383C150.36 31.2383 149.771 31.3294 149.25 31.5117C148.736 31.694 148.299 31.9316 147.941 32.2246C147.577 32.5241 147.297 32.8594 147.102 33.2305C146.913 33.6016 146.815 33.9792 146.809 34.3633H148.625C148.625 34.1419 148.677 33.9303 148.781 33.7285C148.892 33.5202 149.045 33.3411 149.24 33.1914C149.436 33.0417 149.673 32.9212 149.953 32.8301C150.24 32.7389 150.562 32.6934 150.92 32.6934C151.304 32.6934 151.649 32.7422 151.955 32.8398C152.268 32.9375 152.531 33.0742 152.746 33.25C152.961 33.4323 153.127 33.6504 153.244 33.9043C153.361 34.1582 153.42 34.4447 153.42 34.7637V35.5938H151.447C150.712 35.5938 150.044 35.6654 149.445 35.8086C148.853 35.9518 148.345 36.1667 147.922 36.4531C147.499 36.7461 147.17 37.1107 146.936 37.5469C146.708 37.9831 146.594 38.4909 146.594 39.0703C146.594 39.513 146.678 39.9264 146.848 40.3105C147.023 40.6882 147.271 41.0137 147.59 41.2871C147.902 41.5671 148.283 41.7884 148.732 41.9512C149.188 42.1139 149.696 42.1953 150.256 42.1953C150.601 42.1953 150.926 42.1595 151.232 42.0879C151.538 42.0163 151.828 41.9186 152.102 41.7949C152.368 41.6712 152.613 41.528 152.834 41.3652C153.062 41.2025 153.267 41.0299 153.449 40.8477C153.469 41.069 153.498 41.2839 153.537 41.4922C153.583 41.694 153.641 41.8633 153.713 42ZM150.52 40.623C150.168 40.623 149.859 40.5775 149.592 40.4863C149.325 40.3952 149.104 40.2682 148.928 40.1055C148.752 39.9492 148.618 39.7604 148.527 39.5391C148.443 39.3177 148.4 39.0768 148.4 38.8164C148.4 38.543 148.449 38.2988 148.547 38.084C148.651 37.8691 148.801 37.6836 148.996 37.5273C149.27 37.306 149.637 37.1432 150.1 37.0391C150.568 36.9284 151.115 36.873 151.74 36.873H153.42V39.0117C153.316 39.2201 153.173 39.4219 152.99 39.6172C152.808 39.806 152.593 39.9753 152.346 40.125C152.092 40.2747 151.812 40.3952 151.506 40.4863C151.2 40.5775 150.871 40.623 150.52 40.623ZM168.283 32.8984V31.4336H158.098V32.8984H162.248V42H164.064V32.8984H168.283ZM172.512 35.4375V31.4336H170.705V42H175.744C176.376 42 176.939 41.9154 177.434 41.7461C177.928 41.5768 178.345 41.3424 178.684 41.043C179.022 40.75 179.279 40.4017 179.455 39.998C179.631 39.5879 179.719 39.1484 179.719 38.6797C179.719 38.2044 179.628 37.7682 179.445 37.3711C179.27 36.974 179.012 36.6322 178.674 36.3457C178.335 36.0592 177.919 35.8379 177.424 35.6816C176.936 35.5189 176.376 35.4375 175.744 35.4375H172.512ZM172.512 36.9121H175.744C176.122 36.9121 176.444 36.9674 176.711 37.0781C176.984 37.1823 177.209 37.319 177.385 37.4883C177.561 37.6641 177.691 37.8626 177.775 38.084C177.86 38.2988 177.902 38.5202 177.902 38.748C177.902 38.9824 177.86 39.207 177.775 39.4219C177.697 39.6367 177.57 39.8255 177.395 39.9883C177.219 40.151 176.994 40.2812 176.721 40.3789C176.447 40.4766 176.122 40.5254 175.744 40.5254H172.512V36.9121ZM189.68 31.4336L184.514 39.2363V31.4336H182.717V42H184.514L189.68 34.207V42H191.486V31.4336H189.68Z" fill="#396857"/>
<path d="M46.3333 34C44.5083 34 43 32.4917 43 30.6667C43 30.0767 43.1717 29.5283 43.4467 29.045C43.2967 29.0333 43.1533 29 43 29C41.6766 29.0087 40.4099 29.5383 39.4741 30.4741C38.5383 31.4099 38.0087 32.6766 38 34C38 36.7367 40.2633 39 43 39C45.735 39 48 36.7367 48 34C48 33.8467 47.9667 33.7033 47.955 33.5533C47.4717 33.8283 46.9233 34 46.3333 34Z" fill="#396857"/>
<path d="M43 22.3334C30.2783 22.3334 26.455 33.3617 26.42 33.4734L26.2433 34L26.4183 34.5267C26.455 34.6384 30.2783 45.6667 43 45.6667C55.7217 45.6667 59.545 34.6384 59.58 34.5267L59.7567 34L59.5817 33.4734C59.545 33.3617 55.7217 22.3334 43 22.3334ZM43 42.3334C34.0817 42.3334 30.6267 35.9234 29.79 34C30.63 32.07 34.0867 25.6667 43 25.6667C51.9183 25.6667 55.3733 32.0767 56.21 34C55.37 35.93 51.9133 42.3334 43 42.3334Z" fill="#396857"/>
</svg>
