<svg width="250" height="68" viewBox="0 0 250 68" fill="none" xmlns="http://www.w3.org/2000/svg">
<rect x="1" y="1" width="248" height="66" rx="24" stroke="#396857" stroke-width="2"/>
<path d="M74.6797 42H79.2305C79.8359 41.9935 80.4219 41.8991 80.9883 41.7168C81.5612 41.5345 82.0658 41.2708 82.502 40.9258C82.9382 40.5872 83.2865 40.1641 83.5469 39.6562C83.8073 39.1484 83.9342 38.5625 83.9277 37.8984C83.9277 37.4753 83.8626 37.0814 83.7324 36.7168C83.6087 36.3522 83.4329 36.0234 83.2051 35.7305C82.9902 35.4635 82.7168 35.2194 82.3848 34.998C82.0527 34.7767 81.7077 34.6237 81.3496 34.5391V34.5098C81.6947 34.36 81.9876 34.2005 82.2285 34.0312C82.4759 33.862 82.7005 33.6536 82.9023 33.4062C83.0977 33.1654 83.2507 32.8919 83.3613 32.5859C83.4785 32.2799 83.5404 31.9414 83.5469 31.5703C83.5534 30.9062 83.4264 30.3366 83.166 29.8613C82.9056 29.3861 82.5573 28.9954 82.1211 28.6895C81.6849 28.3835 81.1868 28.1589 80.627 28.0156C80.0671 27.8659 79.4941 27.7878 78.9082 27.7812H74.6797V42ZM76.4961 35.3496H79.377C79.7611 35.3626 80.1191 35.4277 80.4512 35.5449C80.7832 35.6621 81.0729 35.8281 81.3203 36.043C81.5677 36.2643 81.7598 36.5312 81.8965 36.8438C82.0397 37.1562 82.1081 37.5143 82.1016 37.918C82.1016 38.3151 82.0234 38.6699 81.8672 38.9824C81.7174 39.2949 81.5124 39.5586 81.252 39.7734C80.9915 39.9883 80.6921 40.1576 80.3535 40.2812C80.015 40.3984 79.6569 40.4603 79.2793 40.4668H76.4961V35.3496ZM76.4961 33.8457V29.3242H78.9668C79.3184 29.3307 79.6602 29.3763 79.9922 29.4609C80.3307 29.5456 80.6302 29.6758 80.8906 29.8516C81.1445 30.0339 81.3464 30.265 81.4961 30.5449C81.6523 30.8249 81.7305 31.1634 81.7305 31.5605C81.7305 31.9316 81.6523 32.2572 81.4961 32.5371C81.3398 32.8171 81.1348 33.0514 80.8809 33.2402C80.627 33.4355 80.3372 33.5853 80.0117 33.6895C79.6862 33.7871 79.3542 33.8392 79.0156 33.8457H76.4961ZM91.2129 40.7305C90.6465 40.7305 90.1712 40.6198 89.7871 40.3984C89.4095 40.1706 89.1068 39.8743 88.8789 39.5098C88.6445 39.1517 88.4753 38.748 88.3711 38.2988C88.2734 37.8431 88.2246 37.3841 88.2246 36.9219V36.5117C88.2246 36.056 88.2734 35.6035 88.3711 35.1543C88.4753 34.7051 88.6445 34.2982 88.8789 33.9336C89.1133 33.5755 89.4193 33.2858 89.7969 33.0645C90.181 32.8366 90.653 32.7227 91.2129 32.7227C91.5775 32.7227 91.916 32.7845 92.2285 32.9082C92.5475 33.0319 92.821 33.2012 93.0488 33.416C93.2767 33.6309 93.4557 33.8815 93.5859 34.168C93.7227 34.4479 93.7943 34.7474 93.8008 35.0664H95.5098C95.5098 34.5326 95.4023 34.0312 95.1875 33.5625C94.9727 33.0938 94.6764 32.6868 94.2988 32.3418C93.9147 32.0033 93.459 31.7363 92.9316 31.541C92.4108 31.3392 91.8379 31.2383 91.2129 31.2383C90.4121 31.2383 89.7122 31.3815 89.1133 31.668C88.5143 31.9544 88.0163 32.3385 87.6191 32.8203C87.2155 33.3086 86.9128 33.8717 86.7109 34.5098C86.5091 35.1478 86.4082 35.8151 86.4082 36.5117V36.9219C86.4082 37.625 86.5091 38.2956 86.7109 38.9336C86.9128 39.5651 87.2155 40.1217 87.6191 40.6035C88.0163 41.0918 88.5143 41.4792 89.1133 41.7656C89.7122 42.0521 90.4121 42.1953 91.2129 42.1953C91.7728 42.1953 92.3099 42.1009 92.8242 41.9121C93.3385 41.7168 93.7943 41.4564 94.1914 41.1309C94.5885 40.8118 94.9043 40.4408 95.1387 40.0176C95.3796 39.5879 95.5033 39.1387 95.5098 38.6699H93.8008C93.7943 38.9629 93.7161 39.2363 93.5664 39.4902C93.4232 39.7376 93.2311 39.9525 92.9902 40.1348C92.7493 40.3236 92.4727 40.4701 92.1602 40.5742C91.8542 40.6784 91.5384 40.7305 91.2129 40.7305ZM103.391 42.1953C104.419 42.1953 105.282 41.9902 105.979 41.5801C106.682 41.1634 107.209 40.6882 107.561 40.1543L106.457 39.2949C106.125 39.7246 105.708 40.0697 105.207 40.3301C104.706 40.5905 104.133 40.7207 103.488 40.7207C103 40.7207 102.554 40.6296 102.15 40.4473C101.747 40.265 101.402 40.0143 101.115 39.6953C100.835 39.3958 100.614 39.0508 100.451 38.6602C100.295 38.2695 100.194 37.8171 100.148 37.3027V37.2344H107.697V36.4238C107.697 35.6882 107.603 35.0046 107.414 34.373C107.232 33.7415 106.952 33.1914 106.574 32.7227C106.197 32.2604 105.721 31.8991 105.148 31.6387C104.582 31.3717 103.918 31.2383 103.156 31.2383C102.551 31.2383 101.958 31.362 101.379 31.6094C100.806 31.8568 100.295 32.2116 99.8457 32.6738C99.39 33.1426 99.0254 33.7155 98.752 34.3926C98.4785 35.0632 98.3418 35.8249 98.3418 36.6777V37.0879C98.3418 37.8236 98.4655 38.5039 98.7129 39.1289C98.9603 39.7539 99.3053 40.2943 99.748 40.75C100.191 41.2057 100.721 41.5605 101.34 41.8145C101.965 42.0684 102.648 42.1953 103.391 42.1953ZM103.156 32.7227C103.618 32.7227 104.016 32.8073 104.348 32.9766C104.686 33.1458 104.966 33.3672 105.188 33.6406C105.409 33.9141 105.581 34.2396 105.705 34.6172C105.829 34.9883 105.891 35.3366 105.891 35.6621V35.75H100.207C100.279 35.2617 100.402 34.832 100.578 34.4609C100.76 34.0833 100.982 33.7643 101.242 33.5039C101.503 33.25 101.796 33.0579 102.121 32.9277C102.447 32.791 102.792 32.7227 103.156 32.7227ZM132.248 32.8984V31.4336H122.062V32.8984H126.213V42H128.029V32.8984H132.248ZM139.426 42.1953C140.454 42.1953 141.317 41.9902 142.014 41.5801C142.717 41.1634 143.244 40.6882 143.596 40.1543L142.492 39.2949C142.16 39.7246 141.743 40.0697 141.242 40.3301C140.741 40.5905 140.168 40.7207 139.523 40.7207C139.035 40.7207 138.589 40.6296 138.186 40.4473C137.782 40.265 137.437 40.0143 137.15 39.6953C136.87 39.3958 136.649 39.0508 136.486 38.6602C136.33 38.2695 136.229 37.8171 136.184 37.3027V37.2344H143.732V36.4238C143.732 35.6882 143.638 35.0046 143.449 34.373C143.267 33.7415 142.987 33.1914 142.609 32.7227C142.232 32.2604 141.757 31.8991 141.184 31.6387C140.617 31.3717 139.953 31.2383 139.191 31.2383C138.586 31.2383 137.993 31.362 137.414 31.6094C136.841 31.8568 136.33 32.2116 135.881 32.6738C135.425 33.1426 135.061 33.7155 134.787 34.3926C134.514 35.0632 134.377 35.8249 134.377 36.6777V37.0879C134.377 37.8236 134.501 38.5039 134.748 39.1289C134.995 39.7539 135.34 40.2943 135.783 40.75C136.226 41.2057 136.757 41.5605 137.375 41.8145C138 42.0684 138.684 42.1953 139.426 42.1953ZM139.191 32.7227C139.654 32.7227 140.051 32.8073 140.383 32.9766C140.721 33.1458 141.001 33.3672 141.223 33.6406C141.444 33.9141 141.617 34.2396 141.74 34.6172C141.864 34.9883 141.926 35.3366 141.926 35.6621V35.75H136.242C136.314 35.2617 136.438 34.832 136.613 34.4609C136.796 34.0833 137.017 33.7643 137.277 33.5039C137.538 33.25 137.831 33.0579 138.156 32.9277C138.482 32.791 138.827 32.7227 139.191 32.7227ZM151.271 40.7305C150.705 40.7305 150.23 40.6198 149.846 40.3984C149.468 40.1706 149.165 39.8743 148.938 39.5098C148.703 39.1517 148.534 38.748 148.43 38.2988C148.332 37.8431 148.283 37.3841 148.283 36.9219V36.5117C148.283 36.056 148.332 35.6035 148.43 35.1543C148.534 34.7051 148.703 34.2982 148.938 33.9336C149.172 33.5755 149.478 33.2858 149.855 33.0645C150.24 32.8366 150.712 32.7227 151.271 32.7227C151.636 32.7227 151.975 32.7845 152.287 32.9082C152.606 33.0319 152.88 33.2012 153.107 33.416C153.335 33.6309 153.514 33.8815 153.645 34.168C153.781 34.4479 153.853 34.7474 153.859 35.0664H155.568C155.568 34.5326 155.461 34.0312 155.246 33.5625C155.031 33.0938 154.735 32.6868 154.357 32.3418C153.973 32.0033 153.518 31.7363 152.99 31.541C152.469 31.3392 151.896 31.2383 151.271 31.2383C150.471 31.2383 149.771 31.3815 149.172 31.668C148.573 31.9544 148.075 32.3385 147.678 32.8203C147.274 33.3086 146.971 33.8717 146.77 34.5098C146.568 35.1478 146.467 35.8151 146.467 36.5117V36.9219C146.467 37.625 146.568 38.2956 146.77 38.9336C146.971 39.5651 147.274 40.1217 147.678 40.6035C148.075 41.0918 148.573 41.4792 149.172 41.7656C149.771 42.0521 150.471 42.1953 151.271 42.1953C151.831 42.1953 152.368 42.1009 152.883 41.9121C153.397 41.7168 153.853 41.4564 154.25 41.1309C154.647 40.8118 154.963 40.4408 155.197 40.0176C155.438 39.5879 155.562 39.1387 155.568 38.6699H153.859C153.853 38.9629 153.775 39.2363 153.625 39.4902C153.482 39.7376 153.29 39.9525 153.049 40.1348C152.808 40.3236 152.531 40.4701 152.219 40.5742C151.913 40.6784 151.597 40.7305 151.271 40.7305ZM168.283 32.8984V31.4336H158.098V32.8984H162.248V42H164.064V32.8984H168.283ZM172.307 35.4375V31.4336H170.5V42H173.273C173.846 42 174.351 41.9154 174.787 41.7461C175.223 41.5703 175.591 41.3327 175.891 41.0332C176.184 40.7337 176.405 40.3822 176.555 39.9785C176.711 39.5749 176.789 39.1419 176.789 38.6797C176.789 38.2174 176.711 37.7878 176.555 37.3906C176.405 36.9935 176.184 36.6484 175.891 36.3555C175.591 36.069 175.22 35.8444 174.777 35.6816C174.341 35.5189 173.84 35.4375 173.273 35.4375H172.307ZM179.709 42V31.4336H177.902V42H179.709ZM172.307 36.9121H173.273C173.579 36.9121 173.84 36.9674 174.055 37.0781C174.27 37.1888 174.445 37.332 174.582 37.5078C174.712 37.6836 174.807 37.8822 174.865 38.1035C174.93 38.3184 174.963 38.5332 174.963 38.748C174.963 38.9759 174.93 39.1973 174.865 39.4121C174.807 39.6204 174.712 39.806 174.582 39.9688C174.445 40.138 174.27 40.2747 174.055 40.3789C173.84 40.4766 173.579 40.5254 173.273 40.5254H172.307V36.9121Z" fill="#396857"/>
<path d="M46.3333 34C44.5083 34 43 32.4917 43 30.6667C43 30.0767 43.1717 29.5283 43.4467 29.045C43.2967 29.0333 43.1533 29 43 29C41.6766 29.0087 40.4099 29.5383 39.4741 30.4741C38.5383 31.4099 38.0087 32.6766 38 34C38 36.7367 40.2633 39 43 39C45.735 39 48 36.7367 48 34C48 33.8467 47.9667 33.7033 47.955 33.5533C47.4717 33.8283 46.9233 34 46.3333 34Z" fill="#396857"/>
<path d="M43 22.3333C30.2783 22.3333 26.455 33.3616 26.42 33.4733L26.2433 33.9999L26.4183 34.5266C26.455 34.6383 30.2783 45.6666 43 45.6666C55.7217 45.6666 59.545 34.6383 59.58 34.5266L59.7567 33.9999L59.5817 33.4733C59.545 33.3616 55.7217 22.3333 43 22.3333ZM43 42.3333C34.0817 42.3333 30.6267 35.9233 29.79 33.9999C30.63 32.0699 34.0867 25.6666 43 25.6666C51.9183 25.6666 55.3733 32.0766 56.21 33.9999C55.37 35.9299 51.9133 42.3333 43 42.3333Z" fill="#396857"/>
</svg>
