<svg width="346" height="51" viewBox="0 0 346 51" fill="none" xmlns="http://www.w3.org/2000/svg">
<path d="M19.3184 29.2305H17.2441C17.1035 30.1211 16.875 30.9531 16.5586 31.7266C16.2539 32.5 15.8496 33.168 15.3457 33.7305C14.8301 34.3047 14.2031 34.7559 13.4648 35.084C12.7383 35.4121 11.8828 35.5703 10.8984 35.5586C10.0664 35.5586 9.32812 35.4238 8.68359 35.1543C8.03906 34.873 7.4707 34.4922 6.97852 34.0117C6.48633 33.5312 6.07031 32.9805 5.73047 32.3594C5.40234 31.7266 5.13281 31.0586 4.92188 30.3555C4.71094 29.6523 4.55273 28.9375 4.44727 28.2109C4.35352 27.4727 4.30664 26.7578 4.30664 26.0664V22.3223C4.30664 21.6309 4.35352 20.9219 4.44727 20.1953C4.55273 19.457 4.71094 18.7363 4.92188 18.0332C5.13281 17.3301 5.4082 16.668 5.74805 16.0469C6.08789 15.4141 6.50391 14.8633 6.99609 14.3945C7.47656 13.9258 8.03906 13.5566 8.68359 13.2871C9.33984 13.0059 10.0781 12.8594 10.8984 12.8477C11.8828 12.8477 12.7383 13.0176 13.4648 13.3574C14.1914 13.6855 14.8125 14.1367 15.3281 14.7109C15.8438 15.2969 16.2539 15.9766 16.5586 16.75C16.875 17.5234 17.1035 18.3496 17.2441 19.2285H19.3184C19.1895 18.0566 18.9082 16.9727 18.4746 15.9766C18.0527 14.9688 17.4844 14.1016 16.7695 13.375C16.0664 12.6484 15.2227 12.0801 14.2383 11.6699C13.2539 11.248 12.1406 11.043 10.8984 11.0547C9.87891 11.0664 8.95898 11.2305 8.13867 11.5469C7.31836 11.8516 6.5918 12.2734 5.95898 12.8125C5.31445 13.3516 4.75781 13.9844 4.28906 14.7109C3.82031 15.4375 3.43359 16.2168 3.12891 17.0488C2.82422 17.8926 2.5957 18.7656 2.44336 19.668C2.29102 20.5703 2.20898 21.4668 2.19727 22.3574V26.0664C2.20898 26.957 2.29102 27.8535 2.44336 28.7559C2.5957 29.6465 2.82422 30.5137 3.12891 31.3574C3.43359 32.1895 3.81445 32.9688 4.27148 33.6953C4.74023 34.4219 5.30273 35.0547 5.95898 35.5938C6.5918 36.1328 7.31836 36.5605 8.13867 36.877C8.95898 37.1934 9.87891 37.3516 10.8984 37.3516C12.1172 37.3633 13.2129 37.1641 14.1855 36.7539C15.1699 36.332 16.0195 35.752 16.7344 35.0137C17.4492 34.2988 18.0234 33.4434 18.457 32.4473C18.8906 31.4512 19.1777 30.3789 19.3184 29.2305ZM41.0098 25.9082V22.5156C40.998 21.6484 40.9219 20.7637 40.7812 19.8613C40.6406 18.9473 40.4238 18.0625 40.1309 17.207C39.8262 16.3633 39.4453 15.5664 38.9883 14.8164C38.5312 14.0664 37.9863 13.4102 37.3535 12.8477C36.709 12.2969 35.9766 11.8633 35.1562 11.5469C34.3359 11.2187 33.4219 11.0547 32.4141 11.0547C31.3945 11.0547 30.4746 11.2187 29.6543 11.5469C28.834 11.8633 28.1074 12.2969 27.4746 12.8477C26.8418 13.4219 26.2969 14.084 25.8398 14.834C25.3828 15.5723 25.0078 16.3691 24.7148 17.2246C24.4102 18.0684 24.1816 18.9473 24.0293 19.8613C23.8887 20.7637 23.8125 21.6484 23.8008 22.5156V25.9082C23.8125 26.7754 23.8945 27.6602 24.0469 28.5625C24.1992 29.4648 24.4277 30.3438 24.7324 31.1992C25.0254 32.043 25.4004 32.8398 25.8574 33.5898C26.3262 34.3398 26.877 34.9902 27.5098 35.541C28.1426 36.1035 28.8691 36.5488 29.6895 36.877C30.5098 37.1934 31.4297 37.3516 32.4492 37.3516C33.457 37.3516 34.3711 37.1934 35.1914 36.877C36.0117 36.5488 36.7383 36.1035 37.3711 35.541C38.0039 34.9902 38.5488 34.3457 39.0059 33.6074C39.4629 32.8574 39.8379 32.0547 40.1309 31.1992C40.4238 30.3555 40.6406 29.4824 40.7812 28.5801C40.9219 27.666 40.998 26.7754 41.0098 25.9082ZM38.9531 22.4805V25.9082C38.9414 26.5879 38.8887 27.2969 38.7949 28.0352C38.7129 28.7617 38.5664 29.4766 38.3555 30.1797C38.1445 30.8828 37.875 31.5566 37.5469 32.2012C37.2188 32.834 36.8145 33.3906 36.334 33.8711C35.8535 34.3516 35.291 34.7383 34.6465 35.0312C34.002 35.3125 33.2695 35.4531 32.4492 35.4531C31.6172 35.4531 30.8789 35.3125 30.2344 35.0312C29.5898 34.7383 29.0273 34.3516 28.5469 33.8711C28.0664 33.3906 27.6562 32.834 27.3164 32.2012C26.9883 31.5566 26.7188 30.877 26.5078 30.1621C26.2969 29.459 26.1387 28.7441 26.0332 28.0176C25.9395 27.2793 25.8867 26.5762 25.875 25.9082V22.4805C25.8867 21.8125 25.9395 21.1152 26.0332 20.3887C26.1387 19.6621 26.2969 18.9414 26.5078 18.2266C26.707 17.5234 26.9707 16.8555 27.2988 16.2227C27.6387 15.5898 28.0488 15.0273 28.5293 14.5352C29.0098 14.0664 29.5664 13.6914 30.1992 13.4102C30.8438 13.1172 31.582 12.9707 32.4141 12.9707C33.2344 12.9707 33.9668 13.1113 34.6113 13.3926C35.2559 13.6738 35.8184 14.0547 36.2988 14.5352C36.7793 15.0156 37.1836 15.5781 37.5117 16.2227C37.8516 16.8555 38.127 17.5176 38.3379 18.209C38.5488 18.9238 38.7012 19.6445 38.7949 20.3711C38.8887 21.0977 38.9414 21.8008 38.9531 22.4805ZM62.6133 43.2051L62.7715 35.207H60.873V11.4062H50.2207L49.7812 20.6348C49.7461 21.6191 49.6934 22.5918 49.623 23.5527C49.5645 24.5137 49.4883 25.4336 49.3945 26.3125C49.2891 27.2617 49.1602 28.1641 49.0078 29.0195C48.8555 29.8633 48.6738 30.6309 48.4629 31.3223C48.1699 32.2598 47.8242 33.0566 47.4258 33.7129C47.0391 34.3574 46.582 34.8555 46.0547 35.207H44.9473L45.1934 43.2227H47.0039V37H60.7148V43.2051H62.6133ZM51.873 20.6348L52.1719 13.2168H58.8164V35.207H48.9023C49.3125 34.6445 49.6699 33.9707 49.9746 33.1855C50.291 32.3887 50.5605 31.5273 50.7832 30.6016C50.9941 29.7109 51.1641 28.7734 51.293 27.7891C51.4336 26.793 51.5508 25.8027 51.6445 24.8184C51.7031 24.0332 51.75 23.2832 51.7852 22.5684C51.8203 21.8418 51.8496 21.1973 51.873 20.6348ZM81.7734 24.7305V22.8848H70.4883V13.2695H83.4258V11.4062H68.3965V37H83.4961V35.1543H70.4883V24.7305H81.7734ZM92.3906 26.4531H98.3496C99.4629 26.4414 100.506 26.2656 101.479 25.9258C102.463 25.5859 103.318 25.0938 104.045 24.4492C104.783 23.8164 105.363 23.043 105.785 22.1289C106.207 21.2031 106.418 20.1543 106.418 18.9824C106.418 17.7988 106.207 16.7441 105.785 15.8184C105.363 14.8926 104.789 14.1074 104.062 13.4629C103.336 12.8184 102.48 12.3203 101.496 11.9688C100.512 11.6172 99.4629 11.4297 98.3496 11.4062H90.2988V37H92.3906V26.4531ZM92.3906 24.6602V13.2168H98.3496C99.1934 13.2285 99.9785 13.375 100.705 13.6562C101.443 13.9258 102.082 14.3125 102.621 14.8164C103.148 15.3203 103.564 15.9297 103.869 16.6445C104.174 17.3477 104.326 18.1387 104.326 19.0176C104.326 19.8965 104.168 20.6816 103.852 21.373C103.547 22.0527 103.125 22.6328 102.586 23.1133C102.047 23.6055 101.414 23.9863 100.688 24.2559C99.9609 24.5137 99.1816 24.6484 98.3496 24.6602H92.3906ZM121.236 24.9414L126.352 37H128.883L123.1 24.1504L128.338 11.4062H125.947L121.43 23.1484H119.936V11.4062H117.914V23.1484H116.35L111.814 11.4062H109.424L114.645 24.168L108.896 37H111.41L116.525 24.9414H117.914V37H119.936V24.9414H121.236ZM145.617 29.8633L147.885 37H149.994L141.732 11.4062H139.834L131.52 37H133.629L135.896 29.8633H145.617ZM136.494 27.9824L140.783 14.5703L145.037 27.9824H136.494ZM170.139 37V11.4062H168.17V22.8848H156.129V11.4062H154.16V37H156.129V24.7305H168.17V37H170.139ZM189.492 11.4062L178.031 32.7988L178.049 11.4062H175.992V37H178.049L189.51 15.5723L189.475 37H191.549V11.4062H189.492ZM211.5 24.7305V22.8848H200.215V13.2695H213.152V11.4062H198.123V37H213.223V35.1543H200.215V24.7305H211.5ZM257.15 29.2305H255.076C254.936 30.1211 254.707 30.9531 254.391 31.7266C254.086 32.5 253.682 33.168 253.178 33.7305C252.662 34.3047 252.035 34.7559 251.297 35.084C250.57 35.4121 249.715 35.5703 248.73 35.5586C247.898 35.5586 247.16 35.4238 246.516 35.1543C245.871 34.873 245.303 34.4922 244.811 34.0117C244.318 33.5312 243.902 32.9805 243.562 32.3594C243.234 31.7266 242.965 31.0586 242.754 30.3555C242.543 29.6523 242.385 28.9375 242.279 28.2109C242.186 27.4727 242.139 26.7578 242.139 26.0664V22.3223C242.139 21.6309 242.186 20.9219 242.279 20.1953C242.385 19.457 242.543 18.7363 242.754 18.0332C242.965 17.3301 243.24 16.668 243.58 16.0469C243.92 15.4141 244.336 14.8633 244.828 14.3945C245.309 13.9258 245.871 13.5566 246.516 13.2871C247.172 13.0059 247.91 12.8594 248.73 12.8477C249.715 12.8477 250.57 13.0176 251.297 13.3574C252.023 13.6855 252.645 14.1367 253.16 14.7109C253.676 15.2969 254.086 15.9766 254.391 16.75C254.707 17.5234 254.936 18.3496 255.076 19.2285H257.15C257.021 18.0566 256.74 16.9727 256.307 15.9766C255.885 14.9688 255.316 14.1016 254.602 13.375C253.898 12.6484 253.055 12.0801 252.07 11.6699C251.086 11.248 249.973 11.043 248.73 11.0547C247.711 11.0664 246.791 11.2305 245.971 11.5469C245.15 11.8516 244.424 12.2734 243.791 12.8125C243.146 13.3516 242.59 13.9844 242.121 14.7109C241.652 15.4375 241.266 16.2168 240.961 17.0488C240.656 17.8926 240.428 18.7656 240.275 19.668C240.123 20.5703 240.041 21.4668 240.029 22.3574V26.0664C240.041 26.957 240.123 27.8535 240.275 28.7559C240.428 29.6465 240.656 30.5137 240.961 31.3574C241.266 32.1895 241.646 32.9688 242.104 33.6953C242.572 34.4219 243.135 35.0547 243.791 35.5938C244.424 36.1328 245.15 36.5605 245.971 36.877C246.791 37.1934 247.711 37.3516 248.73 37.3516C249.949 37.3633 251.045 37.1641 252.018 36.7539C253.002 36.332 253.852 35.752 254.566 35.0137C255.281 34.2988 255.855 33.4434 256.289 32.4473C256.723 31.4512 257.01 30.3789 257.15 29.2305ZM275.344 29.8633L277.611 37H279.721L271.459 11.4062H269.561L261.246 37H263.355L265.623 29.8633H275.344ZM266.221 27.9824L270.51 14.5703L274.764 27.9824H266.221ZM297.598 11.4062L286.137 32.7988L286.154 11.4062H284.098V37H286.154L297.615 15.5723L297.58 37H299.654V11.4062H297.598ZM296.771 4.79688H294.979C294.967 5.25391 294.879 5.66992 294.715 6.04492C294.562 6.41992 294.346 6.73633 294.064 6.99414C293.783 7.25195 293.443 7.45117 293.045 7.5918C292.658 7.73242 292.213 7.80273 291.709 7.80273C291.193 7.80273 290.736 7.73242 290.338 7.5918C289.939 7.45117 289.6 7.25195 289.318 6.99414C289.037 6.73633 288.82 6.41992 288.668 6.04492C288.516 5.66992 288.428 5.25391 288.404 4.79688H286.629C286.641 5.48828 286.775 6.11523 287.033 6.67773C287.291 7.22852 287.643 7.70312 288.088 8.10156C288.533 8.48828 289.061 8.78711 289.67 8.99805C290.291 9.20898 290.971 9.31445 291.709 9.31445C292.447 9.31445 293.121 9.20898 293.73 8.99805C294.34 8.78711 294.867 8.48828 295.312 8.10156C295.758 7.70312 296.104 7.22852 296.35 6.67773C296.607 6.11523 296.748 5.48828 296.771 4.79688ZM322.717 13.2695V11.4062H304.348V13.2695H312.521L312.504 37H314.561V13.2695H322.717ZM340.207 29.8633L342.475 37H344.584L336.322 11.4062H334.424L326.109 37H328.219L330.486 29.8633H340.207ZM331.084 27.9824L335.373 14.5703L339.627 27.9824H331.084Z" fill="#396857"/>
<path d="M0 49L346 49" stroke="#396857" stroke-width="4"/>
</svg>
