<svg width="24" height="30" viewBox="0 0 24 30" fill="none" xmlns="http://www.w3.org/2000/svg">
<path d="M12 15C12.825 15 13.5315 14.706 14.1195 14.118C14.7075 13.53 15.001 12.824 15 12C15 11.175 14.706 10.4685 14.118 9.8805C13.53 9.2925 12.824 8.999 12 9C11.175 9 10.4685 9.294 9.8805 9.882C9.2925 10.47 8.999 11.176 9 12C9 12.825 9.294 13.5315 9.882 14.1195C10.47 14.7075 11.176 15.001 12 15ZM12 26.025C15.05 23.225 17.3125 20.681 18.7875 18.393C20.2625 16.105 21 14.074 21 12.3C21 9.575 20.131 7.344 18.393 5.607C16.655 3.87 14.524 3.001 12 3C9.475 3 7.3435 3.869 5.6055 5.607C3.8675 7.345 2.999 9.576 3 12.3C3 14.075 3.7375 16.1065 5.2125 18.3945C6.6875 20.6825 8.95 23.226 12 26.025ZM12 30C7.975 26.575 4.969 23.394 2.982 20.457C0.995 17.52 0.001 14.801 0 12.3C0 8.55 1.2065 5.5625 3.6195 3.3375C6.0325 1.1125 8.826 0 12 0C15.175 0 17.969 1.1125 20.382 3.3375C22.795 5.5625 24.001 8.55 24 12.3C24 14.8 23.006 17.519 21.018 20.457C19.03 23.395 16.024 26.576 12 30Z" fill="#396857"/>
</svg>
