<svg width="43" height="35" viewBox="0 0 43 35" fill="none" xmlns="http://www.w3.org/2000/svg">
<path d="M21.077 35V30.0417L33.4891 17.675L38.4656 22.6333L26.0536 35H21.077ZM0 23.3333V18.6667H16.3933C16.3933 18.6667 17.0021 20.0585 17.0021 21C17.0021 21.9415 16.3933 23.3333 16.3933 23.3333H0ZM40.1049 21L35.1284 16.0417L36.8263 14.35C37.2556 13.9222 37.8021 13.7083 38.4656 13.7083C39.1291 13.7083 39.6756 13.9222 40.1049 14.35L41.8028 16.0417C42.2321 16.4694 42.4468 17.0139 42.4468 17.675C42.4468 18.3361 42.2321 18.8806 41.8028 19.3083L40.1049 21ZM0 14V9.33333H25.7608C25.7608 9.33333 26.5455 10.6749 26.5571 11.62C26.5691 12.5997 25.7608 14 25.7608 14H0ZM0 4.66667V0H25.7608C25.7608 0 26.5691 1.26035 26.5571 2.24C26.5455 3.18515 25.7608 4.66667 25.7608 4.66667H0Z" fill="#396857"/>
</svg>
